<svg enable-background="new 0 0 32 32" height="512" viewBox="0 0 32 32" width="512" xmlns="http://www.w3.org/2000/svg"><g id="Gesture_x2C__hand_x2C__index_finger_x2C__single"><g><g id="XMLID_157_"><g><g id="XMLID_160_"><g><path d="m10.5 15.5c0-1.21-1.09-2.18-2.34-1.97-.98.17-1.66 1.1-1.66 2.09v8.4c0 3.59 2.97 6.49 6.65 6.49h3.35c3.31 0 6-2.69 6-6v-19.9c0-1.06-.77-2.02-1.82-2.11-.62-.05-1.19.17-1.59.58-.37.37-.59.87-.59 1.42v10c0-1.1-.9-2-2-2-.55 0-1.05.22-1.41.59-.37.36-.59.86-.59 1.41v.5c0-1.1-.9-2-2-2-.55 0-1.05.22-1.41.59-.37.36-.59.86-.59 1.41z" fill="#ffd869"/></g></g></g><g><g><g><path d="m21 4.5v12.01h1.5v-12.01c0-1.1-.9-2-2-2-.27 0-.52.05-.75.15.73.3 1.25 1.01 1.25 1.85z" fill="#f2c34e"/></g></g></g></g><g id="hand_x2C__peace_x2C__victory_x2C__two_fingers_6_"><g><g><g><path d="m16.5 21.5c-1.38 0-2.5-1.12-2.5-2.5v-3.5c0-1.38 1.12-2.5 2.5-2.5s2.5 1.12 2.5 2.5v3.5c0 1.38-1.12 2.5-2.5 2.5z" fill="#f2c34e"/></g></g></g><g><g><g><path d="m12.59 21c-1.33 0-2.41-1.08-2.41-2.41v-3.37c0-1.33 1.08-2.41 2.41-2.41s2.41 1.08 2.41 2.41v3.37c0 1.33-1.08 2.41-2.41 2.41z" fill="#f2c34e"/></g></g></g><g><g><g><path d="m6.54 16.54v2.24c0 1.23 1 2.23 2.23 2.23 1.23-.01 2.23-1.01 2.23-2.24v-2.24c0-1.23-1-2.23-2.23-2.23-1.23 0-2.23 1-2.23 2.24z" fill="#f2c34e"/></g></g><g><g><path d="m6.5 15.5v2c0 1.1.9 2 2 2 1.1 0 2-.9 2-2v-2c0-1.1-.9-2-2-2-1.1 0-2 .9-2 2z" fill="#ffd869"/></g></g><g><g><path d="m10.5 14.5v3c0 1.1.9 2 2 2 1.1 0 2-.9 2-2v-3c0-1.1-.9-2-2-2-1.1 0-2 .9-2 2z" fill="#ffd869"/></g></g><g><g><path d="m14.5 14v3.5c0 1.1.9 2 2 2 1.1 0 2-.9 2-2v-3.5c0-1.1-.9-2-2-2-1.1 0-2 .9-2 2z" fill="#ffd869"/></g></g></g><g><g><g><path d="m16.41 19.04c.37-.36.59-.86.59-1.41v-5.5c.83 0 1.5 1.17 1.5 2v3.5c0 .55-.22 1.05-.59 1.41-.36.37-.86.59-1.41.59-.26 0-.52-.05-.75-.15.25-.1.47-.25.66-.44z" fill="#f2c34e"/></g></g><g><g><path d="m8.41 19.04c.37-.36.59-.86.59-1.41v-4c.83 0 1.5 1.17 1.5 2v2c0 .55-.22 1.05-.59 1.41-.36.37-.86.59-1.41.59-.26 0-.52-.05-.75-.15.25-.1.47-.25.66-.44z" fill="#f2c34e"/></g></g><g><g><path d="m12.41 19.04c.37-.36.59-.86.59-1.41v-5c.83 0 1.5 1.17 1.5 2v3c0 .55-.22 1.05-.59 1.41-.36.37-.86.59-1.41.59-.26 0-.52-.05-.75-.15.25-.1.47-.25.66-.44z" fill="#f2c34e"/></g></g></g><g id="XMLID_155_"><g><path d="m20.5 21v-.63l-3.18-.19c-1.58-.1-2.82-1.41-2.82-2.99v-.69h8.28c.89 0 1.67.59 1.92 1.44l1.08 3.71c.34 1.16.13 2.41-.56 3.4l-2 2.88c-1.12 1.61-2.96 2.57-4.92 2.57h-5.36c-3.55 0-6.43-2.88-6.43-6.43z" fill="#ffd869"/></g></g><g><g><g><path d="m25.78 21.65-.4-1.5c.34 1.16-.17 2.41-.86 3.4l-2.3 3.31c-.94 1.34-2.47 2.14-4.1 2.14h-5.88c-2.29 0-4.3-1.2-5.44-3.01.82 2.61 3.26 4.51 6.14 4.51h5.36c1.96 0 3.8-.96 4.92-2.57l2-2.88c.69-.99.9-2.24.56-3.4z" fill="#f2c34e"/></g></g></g><g id="XMLID_144_"><g><path d="m14.01 25.81c-.06 0-.12-.01-.18-.03-.26-.1-.39-.39-.29-.65.83-2.2 3.13-4.76 6.86-4.76.28 0 .5.22.5.5s-.22.5-.5.5c-3.22 0-5.2 2.22-5.92 4.12-.08.2-.27.32-.47.32z" fill="#f2c34e"/></g></g></g></g><g><g><path d="m8.5 20c-1.38 0-2.5-1.12-2.5-2.5v-2c0-1.38 1.12-2.5 2.5-2.5s2.5 1.12 2.5 2.5v2c0 1.38-1.12 2.5-2.5 2.5zm0-6c-.82 0-1.5.67-1.5 1.5v2c0 .83.68 1.5 1.5 1.5s1.5-.67 1.5-1.5v-2c0-.83-.67-1.5-1.5-1.5z" fill="#455a64"/></g><g><path d="m12.5 20c-1.38 0-2.5-1.12-2.5-2.5v-3c0-1.38 1.12-2.5 2.5-2.5s2.5 1.12 2.5 2.5v3c0 1.38-1.12 2.5-2.5 2.5zm0-7c-.83 0-1.5.67-1.5 1.5v3c0 .83.67 1.5 1.5 1.5s1.5-.67 1.5-1.5v-3c0-.83-.67-1.5-1.5-1.5z" fill="#455a64"/></g><g id="XMLID_143_"><path d="m14.91 26.21c-.06 0-.12-.01-.18-.03-.26-.1-.39-.39-.29-.65 1.11-2.92 3.18-4.64 6-4.96.27-.04.52.17.55.44s-.17.52-.44.55c-3.06.35-4.51 2.54-5.18 4.32-.07.21-.26.33-.46.33z" fill="#455a64"/></g><g id="XMLID_137_"><path d="m22.5 15.48c-.28 0-.5-.22-.5-.5v-10.5c0-.83-.67-1.5-1.5-1.5-.4 0-.78.16-1.05.44-.29.28-.45.66-.45 1.06 0 .28-.22.5-.5.5s-.5-.22-.5-.5c0-.67.26-1.3.74-1.77.46-.47 1.08-.73 1.76-.73 1.38 0 2.5 1.12 2.5 2.5v10.5c0 .28-.22.5-.5.5z" fill="#455a64"/></g><g id="XMLID_136_"><path d="m10.5 15.98c-.28 0-.5-.22-.5-.5v-1.5c0-.28.22-.5.5-.5s.5.22.5.5v1.5c0 .28-.22.5-.5.5z" fill="#455a64"/></g><g id="XMLID_134_"><path d="m18.5 14.98c-.28 0-.5-.22-.5-.5v-10c0-.28.22-.5.5-.5s.5.22.5.5v10c0 .28-.22.5-.5.5z" fill="#455a64"/></g><g id="XMLID_118_"><path d="m16 31h-3c-3.93 0-7-3.07-7-7v-8.52c0-1.38 1.12-2.5 2.5-2.5s2.5 1.12 2.5 2.5v1c0 .28-.22.5-.5.5s-.5-.22-.5-.5v-1c0-.83-.67-1.5-1.5-1.5s-1.5.67-1.5 1.5v8.52c0 3.36 2.64 6 6 6h3c.28 0 .5.22.5.5s-.22.5-.5.5z" fill="#455a64"/></g><g id="XMLID_51_"><path d="m18.29 31h-5.36c-3.82 0-6.93-3.11-6.93-6.93v-6.72c0-.28.22-.5.5-.5s.5.22.5.49v6.72c0 3.28 2.66 5.94 5.93 5.94h5.36c1.8 0 3.49-.88 4.51-2.36l2-2.88c.61-.87.79-1.96.49-2.98l-1.08-3.71c-.17-.63-.76-1.07-1.43-1.07h-7.78v.18c0 1.32 1.03 2.42 2.35 2.5l3.18.19c.26.02.47.23.47.5v.63c0 .28-.22.5-.5.5s-.5-.22-.5-.5v-.16l-2.71-.17c-1.85-.11-3.29-1.65-3.29-3.49v-.68c0-.28.22-.5.5-.5h8.28c1.11 0 2.09.74 2.4 1.8l1.08 3.71c.38 1.31.15 2.71-.63 3.83l-2 2.88c-1.22 1.74-3.21 2.78-5.34 2.78z" fill="#455a64"/></g><g><path d="m14.5 18c-.28 0-.5-.22-.5-.5v-3.5c0-1.38 1.12-2.5 2.5-2.5s2.5 1.12 2.5 2.5v1c0 .28-.22.5-.5.5s-.5-.22-.5-.5v-1c0-.83-.67-1.5-1.5-1.5s-1.5.67-1.5 1.5v3.5c0 .28-.22.5-.5.5z" fill="#455a64"/></g></g></g></svg>