<svg enable-background="new 0 0 32 32" height="512" viewBox="0 0 32 32" width="512" xmlns="http://www.w3.org/2000/svg"><g id="five_x2C__gesture_x2C__hand_x2C__stop_3_"><g><g><path d="m4.02 9.8 4.15 6.86c.12.2.38.66.82.44.41-.21.23-.69.15-.91l-3.72-9.79c-.26-.73.12-1.59.84-1.89.74-.32 1.66.02 1.97.75l4 9.6c.07.18.27.66.72.52.44-.12.36-.63.32-.82l-2.32-11.16c-.15-.83.43-1.69 1.44-1.89.81-.15 1.72.39 1.9 1.2l2.33 10.88c.04.16.15.66.6.62.47-.05.47-.55.49-.72l.11-9.28c-.01-.61.53-1.5 1.56-1.48 1.06.02 1.52.94 1.51 1.6l.02 10.09c-.02 1.48.43 3.01 1.06 3.99.49.75 1.29.67 1.83 0 .84-1.04 1.92-2.3 3.04-3.23 1.17-.98 2.99-.7 3.83.68l-1.43 1.38c-1.45 1.41-2.58 3.12-3.34 5-.63 1.57-1.52 3.55-2.56 5.16-1.56 2.42-3.87 2.47-6.17 2.89-9.96 1.84-9.72-8.9-11.29-11.42l-4.31-7.72c-.36-.66-.02-1.48.64-1.82.64-.34 1.43-.16 1.81.47z" fill="#ffd869"/></g><g><path d="m28.79 14.63c.17.16.32.33.45.55l-1.43 1.38c-1.45 1.41-2.58 3.12-3.34 5-.63 1.57-1.52 3.55-2.56 5.16-1.56 2.42-3.87 2.47-6.17 2.89-1.88.35-3.4.24-4.64-.17 1.44.92 3.38 1.35 6.06.85 2.3-.42 4.61-.47 6.17-2.89 1.04-1.61 1.93-3.59 2.56-5.16.76-1.88 1.89-3.59 3.34-5l1.43-1.38c-.43-.72-1.13-1.13-1.87-1.23z" fill="#f2c34e"/></g><g><g><path d="m24.98 20.75c-.63 1.57-1.52 3.55-2.56 5.16-1.56 2.42-3.87 2.47-6.17 2.89-3.98.73-6.33-.54-7.82-2.49 1.39 2.72 3.82 4.89 8.74 3.98 2.3-.42 4.61-.47 6.17-2.89 1.04-1.61 1.93-3.59 2.56-5.16.76-1.88-.16-3.36-.92-1.49z" fill="#f2c34e"/></g></g><g><g><path d="m12.87 2.02 2.63 11.98c.04.16.15.66.6.62.47-.05.47-.55.49-.72l.01-.73-2.31-10.46c-.16-.73-.93-1.24-1.67-1.22.11.16.2.34.25.53z" fill="#f2c34e"/></g><g><path d="m6.72 4.59 4.43 10.64c.08.2.3.73.8.58.42-.12.41-.55.37-.8l-4.03-9.66c-.27-.65-.98-1.01-1.68-.95.04.07.08.13.11.19z" fill="#f2c34e"/></g><g><path d="m19.47 3.65.02 10.09c-.02 1.48.43 3.01 1.06 3.99.34.53.84.64 1.29.43-.55-.98-.94-2.37-.93-3.73l-.02-10.1c.01-.66-.45-1.58-1.51-1.6-.06 0-.12.01-.18.02.18.28.27.61.27.9z" fill="#f2c34e"/></g><g><path d="m7.25 17.14c.14.23.44.77.96.52.19-.1.26-.26.28-.42l-4.43-7.33c-.35-.58-.99-.82-1.62-.71z" fill="#f2c34e"/></g></g></g><g><path d="m15.01 31c-6.24 0-7.75-5.7-8.68-9.25-.3-1.13-.56-2.1-.87-2.61l-4.32-7.74c-.23-.42-.28-.89-.14-1.35.15-.5.51-.92.97-1.16.9-.47 1.96-.19 2.47.65l4.16 6.86c.04.07.14.23.2.26-.03-.05-.1-.24-.12-.3l-3.73-9.78c-.35-1 .15-2.13 1.11-2.53.48-.21 1.05-.21 1.55-.01.49.2.87.56 1.07 1.03l4 9.6c.05.14.09.2.12.23 0-.03 0-.11-.03-.23l-2.31-11.17c-.21-1.15.6-2.24 1.83-2.48 1.09-.21 2.25.54 2.49 1.58l2.33 10.88c.04.17.07.22.09.24-.01-.04 0-.18 0-.23l.11-9.29c-.01-.48.22-1.02.6-1.4.39-.39.87-.59 1.47-.58 1.27.02 2.02 1.09 2 2.11l.02 10.08c-.02 1.31.37 2.77.98 3.72.09.13.23.29.43.3.19.03.41-.12.59-.35.76-.94 1.9-2.3 3.11-3.3.67-.56 1.55-.8 2.43-.66.89.15 1.67.68 2.15 1.46.12.2.09.46-.08.62l-1.43 1.38c-1.39 1.35-2.48 2.98-3.22 4.83-.85 2.12-1.73 3.89-2.6 5.24-1.48 2.29-3.58 2.63-5.62 2.96-.29.05-.59.1-.88.15-.81.17-1.56.24-2.25.24zm-12.13-21.34c-.15 0-.29.04-.44.11 0 0 0 0-.01 0-.23.12-.41.33-.48.57-.04.14-.07.35.05.57l4.31 7.72c.38.62.66 1.66.98 2.87 1.07 4.07 2.54 9.65 9.78 8.31.3-.06.6-.1.9-.15 1.98-.32 3.7-.6 4.94-2.52.84-1.3 1.69-3.01 2.52-5.07.8-1.98 1.96-3.72 3.46-5.17l1.12-1.08c-.32-.36-.75-.6-1.22-.68-.59-.1-1.18.06-1.62.44-1.14.95-2.24 2.26-2.97 3.16-.39.48-.9.74-1.42.72-.48-.02-.91-.29-1.22-.76-.73-1.13-1.16-2.76-1.14-4.27l-.03-10.1c0-.29-.17-1.08-1.02-1.1-.29-.02-.54.09-.74.29-.22.22-.31.5-.31.68l-.11 9.29c-.08.94-.56 1.17-.94 1.21-.33.03-.91-.06-1.13-.98l-2.34-10.91c-.11-.52-.76-.91-1.32-.81-.77.15-1.13.79-1.04 1.31l2.32 11.15c.18.85-.23 1.28-.68 1.4-.2.06-.92.2-1.32-.82l-4-9.59c-.08-.21-.27-.39-.51-.48-.26-.1-.55-.1-.79 0-.48.2-.74.78-.57 1.26l3.72 9.78c.34.93-.02 1.35-.39 1.53-.32.16-.93.29-1.47-.61l-4.16-6.88c-.15-.25-.42-.39-.71-.39z" fill="#455a64"/></g></g></svg>