<svg enable-background="new 0 0 32 32" height="512" viewBox="0 0 32 32" width="512" xmlns="http://www.w3.org/2000/svg"><g id="hand_x2C__peace_x2C__victory_x2C__two_fingers_1_"><g id="XMLID_192_"><g id="XMLID_109_"><path d="m13.12 13.33 1.08 2.17 7.53-.01c.92 0 1.72.62 1.94 1.51l1.22 4.81c.27 1.07.09 2.2-.5 3.13l-2.14 3.37c-1.14 1.39-2.84 2.19-4.64 2.19h-4.67c-3.55 0-6.43-2.87-6.43-6.43 0 0 .01-6.33.01-6.73-.01-.7.33-1.39.97-1.81l.25-.17c.69-.45 1.62-.25 2.04.47l.06.02c-.61-1.06-.22-2.41.86-2.98l.44-.24c.72-.39 1.64-.07 1.98.7z" fill="#ffd869"/></g><g><path d="m24.89 21.81-.5-1.5c.27 1.07.09 2.2-.5 3.13l-2.14 3.37c-1.15 1.39-2.85 2.19-4.64 2.19h-4.67c-2.57 0-4.78-1.51-5.81-3.68.58 2.96 3.19 5.18 6.31 5.18h4.67c1.8 0 3.5-.8 4.64-2.19l2.14-3.37c.59-.93.77-2.06.5-3.13z" fill="#f2c34e"/></g><g id="XMLID_19_"><path d="m22.79 1.59c.88.29 1.37 1.22 1.1 2.1l-3.44 11.81h-3.16l-2.9.07-4.55-11.63c-.07-.2-.12-.42-.12-.62 0-.68.39-1.31 1.02-1.58.85-.36 1.83 0 2.23.83l4.18 10.45 3.49-10.42c.33-.85 1.28-1.3 2.15-1.01z" fill="#ffd869"/></g><g><g><path d="m22.95 1.66c0 .18-.01.35-.07.53l-3.9 13.31h1.46l3.43-11.81c.27-.82-.15-1.68-.92-2.03z" fill="#f2c34e"/></g></g><g id="XMLID_98_"><g><path d="m19 21.17c.16-.03.5-.05.5-.05l.07-1.75-2.45-.37c-.89-.12-1.54-.19-1.86-1.08-.47-.51-.68-1.22-.64-1.92h-.09c-.28 0-.5.22-.5.5 0 2.65 1.2 5.62 2.62 5.81z" fill="#f2c34e"/></g></g><g id="XMLID_69_"><g><path d="m10.42 23.49c-.67 0-1.29-.31-1.72-.84l-2.12-2.67c-.46-.58-.66-1.33-.55-2.07s.53-1.4 1.15-1.81l.26-.17c.46-.29.99-.39 1.51-.26.52.12.96.44 1.23.9l2.13 3.59c.58.99.31 2.25-.63 2.92-.37.27-.8.41-1.26.41z" fill="#f2c34e"/></g></g><g id="XMLID_40_"><g><path d="m13.98 22.86c-.79 0-1.52-.43-1.92-1.11l-2.67-4.64c-.37-.63-.46-1.36-.26-2.06s.66-1.28 1.31-1.62l.45-.23c.46-.25 1.03-.29 1.53-.11.51.18.93.57 1.14 1.06l2.44 5.62c.46 1.05.03 2.29-.97 2.83-.32.16-.69.26-1.05.26z" fill="#f2c34e"/></g></g><g id="XMLID_30_"><path d="m11.89 19.41c.45.76.23 1.74-.49 2.26-.3.22-.63.32-.98.32-.5 0-.99-.23-1.33-.65l-2.12-2.67c-.79-.99-.56-2.45.49-3.15l.26-.17c.69-.45 1.61-.23 2.03.48z" fill="#ffd869"/></g><g id="XMLID_29_"><path d="m15.55 18.95c.36.82.03 1.77-.75 2.19-.26.14-.55.22-.82.22-.59 0-1.17-.32-1.48-.86l-2.67-4.64c-.62-1.07-.23-2.42.85-3l.45-.23c.73-.39 1.66-.06 1.99.71z" fill="#ffd869"/></g><g id="XMLID_7_"><g><path d="m13.48 25.99c-.05 0-.09-.01-.14-.02-.27-.08-.42-.35-.34-.62.69-2.37 2.96-4.76 6.5-4.76.28 0 .5.22.5.5s-.22.5-.5.5c-3.23 0-5 2.18-5.54 4.04-.06.21-.26.36-.48.36z" fill="#f2c34e"/></g></g></g><g><g id="XMLID_191_"><path d="m10.42 22.49c-.67 0-1.29-.31-1.72-.84l-2.12-2.67c-.46-.58-.66-1.33-.55-2.07s.53-1.4 1.15-1.81l.26-.17c.46-.29.99-.39 1.51-.26.52.12.96.44 1.23.9l2.13 3.59c.58.99.31 2.25-.63 2.92-.37.27-.8.41-1.26.41zm-1.91-6.87c-.18 0-.36.05-.51.15l-.25.17c-.39.26-.65.67-.72 1.13-.08.47.04.93.34 1.3l2.12 2.67c.39.5 1.11.6 1.62.24.52-.37.67-1.06.35-1.6l-2.13-3.58c-.13-.22-.34-.38-.6-.44-.07-.03-.15-.04-.22-.04z" fill="#455a64"/></g><g id="XMLID_190_"><path d="m13.98 21.86c-.79 0-1.52-.43-1.92-1.11l-2.67-4.64c-.37-.63-.46-1.36-.26-2.06s.66-1.28 1.31-1.62l.45-.23c.46-.25 1.03-.29 1.53-.11.51.18.93.57 1.14 1.06l2.44 5.62c.46 1.05.03 2.29-.97 2.83-.32.16-.69.26-1.05.26zm-1.05-1.61c.32.55 1.06.78 1.63.46.56-.3.79-.97.54-1.55l-2.44-5.62c-.1-.24-.31-.43-.56-.51-.25-.09-.51-.07-.74.05l-.45.23c-.4.21-.69.57-.81 1.01s-.07.9.16 1.29z" fill="#455a64"/></g><g id="XMLID_188_"><path d="m14.48 16.76c-.2 0-.39-.12-.47-.32l-4.64-12.32c-.1-.27-.15-.54-.15-.8 0-.89.52-1.7 1.32-2.04 1.1-.47 2.36.01 2.88 1.08l3.69 9.21 3.05-9.13c.44-1.13 1.65-1.7 2.78-1.32 1.13.37 1.77 1.59 1.42 2.73l-3.03 10.41c-.08.26-.35.42-.62.34s-.42-.35-.34-.62l3.03-10.43c.19-.62-.15-1.29-.77-1.49-.61-.2-1.29.12-1.52.71l-3.47 10.4c-.07.2-.25.34-.46.34-.21.01-.4-.12-.48-.31l-4.19-10.44c-.27-.56-.97-.82-1.57-.56-.44.19-.72.63-.72 1.12 0 .13.03.29.09.45l4.64 12.31c.1.26-.03.55-.29.64-.06.03-.12.04-.18.04z" fill="#455a64"/></g><g id="XMLID_187_"><path d="m14.48 25.99c-.06 0-.12-.01-.18-.03-.26-.1-.39-.39-.29-.65 1.02-2.69 3-4.41 5.42-4.72.28-.03.52.16.56.43s-.16.52-.43.56c-2.05.26-3.73 1.75-4.61 4.08-.08.2-.27.33-.47.33z" fill="#455a64"/></g><g id="XMLID_32_"><path d="m17.54 31h-4.61c-3.82 0-6.93-3.11-6.93-6.93v-6.72c0-.28.22-.5.5-.5s.5.22.5.49v6.72c0 3.28 2.66 5.94 5.93 5.94h4.61c1.89 0 3.62-.95 4.63-2.54l1.78-2.79c.52-.81.68-1.81.44-2.75l-1.22-4.8c-.15-.65-.75-1.12-1.44-1.12h-6.66c.14 1.42.89 2.35 2.06 2.5l2.45.37c.25.04.43.25.43.49v1.74c0 .28-.22.5-.5.5s-.51-.22-.51-.5v-1.3l-2.02-.3c-1.42-.19-2.94-1.35-2.94-4 0-.28.22-.5.5-.5h7.19c1.15 0 2.14.78 2.42 1.89l1.22 4.8c.3 1.2.1 2.49-.57 3.53l-1.78 2.78c-1.2 1.88-3.25 3-5.48 3z" fill="#455a64"/></g></g></g></svg>