<svg enable-background="new 0 0 32 32" height="512" viewBox="0 0 32 32" width="512" xmlns="http://www.w3.org/2000/svg"><g id="fist_x2C__hand_x2C__activism"><g id="hand_x2C__peace_x2C__victory_x2C__two_fingers_5_"><g id="XMLID_107_"><g id="XMLID_108_"><path d="m24.75 13.02 1.04 4.6c.28 1.05.33 2.16-.23 3.1l-1.79 2.92c-1.09 1.78-3.03 2.86-5.11 2.86h-5.37c-3.74 0-6.78-3.03-6.78-6.78 0 0 .01-5.67.01-6.09-.01-.74.34-1.67 1.02-2.11l15.29.02c.9 0 1.69.61 1.92 1.48z" fill="#ffd869"/></g></g><g><path d="m25.79 17.62-.3-1.5c.28 1.05-.17 2.16-.73 3.1l-2.08 3.4c-.92 1.48-2.53 2.38-4.27 2.38h-5.93c-2.28 0-4.3-1.13-5.53-2.86.98 2.55 3.44 4.36 6.33 4.36h5.37c2.09 0 4.02-1.08 5.11-2.86l1.79-2.92c.56-.93.52-2.05.24-3.1z" fill="#f2c34e"/></g><g><g><path d="m20 16.5c-1.38 0-2.5-1.12-2.5-2.5v-3.5c0-1.38 1.12-2.5 2.5-2.5s2.5 1.12 2.5 2.5v3.5c0 1.38-1.12 2.5-2.5 2.5z" fill="#f2c34e"/></g></g><g><g><path d="m16.5 16.5c-1.38 0-2.5-1.12-2.5-2.5v-3.5c0-1.38 1.12-2.5 2.5-2.5s2.5 1.12 2.5 2.5v3.5c0 1.38-1.12 2.5-2.5 2.5z" fill="#f2c34e"/></g></g><g><g><path d="m12.5 16.5c-1.38 0-2.5-1.12-2.5-2.5v-3.5c0-1.38 1.12-2.5 2.5-2.5s2.5 1.12 2.5 2.5v3.5c0 1.38-1.12 2.5-2.5 2.5z" fill="#f2c34e"/></g></g><g><g><path d="m8.5 16.5c-1.14 0-2.06-.92-2.06-2.06v-2.88c0-1.14.92-2.06 2.06-2.06s2.06.92 2.06 2.06v2.88c0 1.14-.92 2.06-2.06 2.06z" fill="#f2c34e"/></g></g><g><g><path d="m6.5 10v3c0 1.1.9 2 2 2 1.1 0 2-.9 2-2v-3c0-1.1-.9-2-2-2-1.1 0-2 .9-2 2z" fill="#ffd869"/></g><g><path d="m10.5 8.5v4.5c0 1.1.9 2 2 2 1.1 0 2-.9 2-2v-4.5c0-1.1-.9-2-2-2-1.1 0-2 .9-2 2z" fill="#ffd869"/></g><g><path d="m14.5 8v4.5c0 1.1.9 2 2 2 1.1 0 2-.9 2-2v-4.5c0-1.1-.9-2-2-2-1.1 0-2 .9-2 2z" fill="#ffd869"/></g><g><path d="m18.51 8.5v4.5c0 1.1.9 2 2 2 1.11 0 2-.9 2-2v-4.5c0-1.1-.9-2-2-2-1.11 0-2 .9-2 2z" fill="#ffd869"/></g></g><g><g><path d="m20.41 14.54c.37-.36.59-.86.59-1.41v-6.5c.83 0 1.5 1.17 1.5 2v4.5c0 .55-.22 1.05-.59 1.41-.36.37-.86.59-1.41.59-.26 0-.52-.05-.75-.15.25-.1.47-.25.66-.44z" fill="#f2c34e"/></g><g><path d="m16.41 14.04c.37-.36.59-.86.59-1.41v-6.5c.83 0 1.5 1.17 1.5 2v4.5c0 .55-.22 1.05-.59 1.41-.36.37-.86.59-1.41.59-.26 0-.52-.05-.75-.15.25-.1.47-.25.66-.44z" fill="#f2c34e"/></g><g><path d="m8.41 14.54c.37-.36.59-.86.59-1.41v-5c.83 0 1.5 1.17 1.5 2v3c0 .55-.22 1.05-.59 1.41-.36.37-.86.59-1.41.59-.26 0-.52-.05-.75-.15.25-.1.47-.25.66-.44z" fill="#f2c34e"/></g><g><path d="m12.41 14.54c.37-.36.59-.86.59-1.41v-6.5c.83 0 1.5 1.17 1.5 2v4.5c0 .55-.22 1.05-.59 1.41-.36.37-.86.59-1.41.59-.26 0-.52-.05-.75-.15.25-.1.47-.25.66-.44z" fill="#f2c34e"/></g></g><g><path d="m18.11 24.92h.36c1.26 0 2.46-.56 3.26-1.54l2.5-4.79c.35-1.02 1.28-1.56 1.03-3-.25-1.45-.05-1.51-.62-2.84-.31-.73-1.04-1.21-1.84-1.21h-8.2c.3 2.87.6 4 5.9 3.82v1.71c-2.19.18-4.03 1.42-5.02 3.94-.84 2.16.32 3.91 2.63 3.91z" fill="#ffd869"/></g><g id="XMLID_68_"><g><path d="m14.01 21.81c-.06 0-.12-.01-.18-.03-.26-.1-.39-.39-.29-.65.83-2.2 3.13-4.76 6.86-4.76.28 0 .5.22.5.5s-.22.5-.5.5c-3.22 0-5.2 2.22-5.92 4.12-.08.2-.27.32-.47.32z" fill="#f2c34e"/></g></g></g><g><g><path d="m8.5 15.5c-1.38 0-2.5-1.12-2.5-2.5v-3c0-1.38 1.12-2.5 2.5-2.5s2.5 1.12 2.5 2.5v3c0 1.38-1.12 2.5-2.5 2.5zm0-7c-.83 0-1.5.67-1.5 1.5v3c0 .83.67 1.5 1.5 1.5s1.5-.67 1.5-1.5v-3c0-.83-.67-1.5-1.5-1.5z" fill="#455a64"/></g><g><path d="m12.5 15.5c-1.38 0-2.5-1.12-2.5-2.5v-4.5c0-1.38 1.12-2.5 2.5-2.5s2.5 1.12 2.5 2.5v4.5c0 1.38-1.12 2.5-2.5 2.5zm0-8.5c-.82 0-1.5.67-1.5 1.5v4.5c0 .83.67 1.5 1.5 1.5s1.5-.67 1.5-1.5v-4.5c0-.83-.67-1.5-1.5-1.5z" fill="#455a64"/></g><g><path d="m14.5 13.5c-.28 0-.5-.22-.5-.5v-5c0-1.38 1.12-2.5 2.5-2.5s2.5 1.12 2.5 2.5v1.5c0 .28-.22.5-.5.5s-.5-.22-.5-.5v-1.5c0-.83-.67-1.5-1.5-1.5s-1.5.67-1.5 1.5v5c0 .28-.22.5-.5.5z" fill="#455a64"/></g><g><path d="m22.51 10.5c-.28 0-.5-.22-.5-.5v-1.5c0-.83-.67-1.5-1.5-1.5s-1.5.67-1.5 1.5v1.5c0 .28-.22.5-.5.5s-.5-.22-.5-.5v-1.5c0-1.38 1.12-2.5 2.5-2.5s2.5 1.12 2.5 2.5v1.5c0 .28-.23.5-.5.5z" fill="#455a64"/></g><g id="XMLID_67_"><path d="m14.91 22.21c-.06 0-.12-.01-.18-.03-.26-.1-.39-.39-.29-.65 1.11-2.92 3.18-4.64 6-4.96.27-.04.52.17.55.44s-.17.52-.44.55c-3.06.35-4.51 2.54-5.18 4.32-.07.21-.26.33-.46.33z" fill="#455a64"/></g><g id="XMLID_54_"><path d="m18.6 27h-5.66c-3.83 0-6.94-3.11-6.94-6.93v-6.72c0-.28.22-.5.5-.5s.5.22.5.49v6.72c0 3.28 2.66 5.94 5.93 5.94h5.66c1.91 0 3.66-.97 4.67-2.59l1.71-2.74c.51-.81.67-1.8.44-2.73l-1.19-4.8c-.17-.67-.77-1.14-1.46-1.14h-7.76v.18c0 1.32 1.03 2.42 2.35 2.5l3.18.19c.26.02.47.23.47.5v1.63c0 .28-.22.5-.5.5s-.5-.22-.5-.5v-1.16l-2.71-.17c-1.85-.11-3.29-1.65-3.29-3.49v-.68c0-.28.22-.5.5-.5h8.26c1.15 0 2.15.78 2.43 1.9l1.19 4.8c.3 1.19.09 2.47-.56 3.5l-1.7 2.73c-1.2 1.92-3.27 3.07-5.52 3.07z" fill="#455a64"/></g></g></g></svg>