<svg enable-background="new 0 0 32 32" height="512" viewBox="0 0 32 32" width="512" xmlns="http://www.w3.org/2000/svg"><g id="Count_x2C__gesture_x2C__hand_x2C__three"><g><g id="XMLID_55_"><path d="m24.15 17.96 1.07 3.93c.27.99.15 2.04-.33 2.94l-1.33 2.49c-1.04 1.95-3.08 3.17-5.29 3.17h-3.57c-3.43 0-6.22-2.78-6.22-6.22l.01-7.76 13.72-.03c.91.01 1.7.61 1.94 1.48z" fill="#ffd869"/></g><g><path d="m25.22 21.89-.5-1.5c.27.98-.35 2.04-.83 2.94l-1.61 3.02c-.87 1.63-2.57 2.65-4.41 2.65h-4.17c-1.83 0-3.48-.8-4.62-2.06 1 2.11 3.14 3.56 5.62 3.56h3.56c2.22 0 4.25-1.22 5.29-3.17l1.33-2.49c.49-.91.61-1.96.34-2.95z" fill="#f2c34e"/></g><g><path d="m18.63 14.62 3.44-10.73c.32-.82 1.24-1.26 2.07-.98.85.28 1.32 1.19 1.06 2.03l-3.47 11.6h-9.63l-3.46-11.6c-.27-.84.2-1.75 1.05-2.03.84-.28 1.76.15 2.08.98l3.48 10.77v-11.47c0-.94.75-1.69 1.69-1.69s1.69.75 1.69 1.69z" fill="#ffd869"/></g><g><g><path d="m10.32 3.89 3.22 10.12c.26.81 1.14 1.24 1.94.95l-3.71-11.07c-.32-.82-1.24-1.26-2.08-.98-.07.02-.13.06-.19.09.36.18.66.48.82.89z" fill="#f2c34e"/></g><g><path d="m17.18 3.19v10.46c0 .79.66 1.42 1.45 1.38v-11.78c0-.72-.42-1.39-1.1-1.64-.49-.18-.94-.12-1.32.06.58.27.97.84.97 1.52z" fill="#f2c34e"/></g></g><g><path d="m24.3 2.98c0 .17-.01.34-.06.51l-3 10.06c-.22.72.19 1.49.9 1.72l3.07-10.33c.24-.79-.16-1.62-.91-1.96z" fill="#f2c34e"/></g><g><path d="m12.27 21.79c-.65 0-1.25-.29-1.66-.81l-2.05-2.58c-.45-.56-.64-1.29-.53-2s.52-1.35 1.11-1.75l.25-.17c.44-.29.96-.37 1.46-.26.5.12.92.43 1.19.87l2.06 3.47c.56.96.3 2.17-.61 2.83-.36.27-.77.4-1.22.4z" fill="#f2c34e"/></g><g id="XMLID_158_"><path d="m13.69 17.85c.43.74.22 1.69-.47 2.19-.29.21-.61.31-.95.31-.49 0-.96-.22-1.28-.63l-2.05-2.58c-.77-.96-.54-2.37.47-3.05l.25-.17c.67-.43 1.56-.22 1.96.46z" fill="#ffd869"/></g><g><path d="m13.78 26.14c-.06 0-.11-.01-.17-.03-.25-.09-.38-.37-.28-.62 1.1-2.9 3.39-4.57 6.27-4.57.27 0 .48.22.48.48s-.22.48-.48.48c-3.37 0-4.81 2.47-5.37 3.94-.07.2-.26.32-.45.32z" fill="#f2c34e"/></g><g><path d="m19.73 20.73c-.02-.01-.04-.02-.06-.02l-2.7-.36c-1.04-.14-1.87-.95-2.05-1.96-.27-.44-.48-.91-.61-1.42-.13.01-.24.06-.33.15-.09.1-.14.23-.13.37l.06.74c.13 1.58 1.36 2.88 2.93 3.08l1.84.24c.36-.11.72-.16 1.08-.19-.03-.21-.04-.42-.03-.63z" fill="#f2c34e"/></g><g><path d="m8.97 23.48v-6.67c0-.27-.22-.48-.48-.48s-.49.22-.49.48v6.84c.32-.09.64-.14.97-.17z" fill="#f2c34e"/></g></g><g><g><path d="m22.24 15.36c-.05 0-.1-.01-.14-.02-.26-.08-.42-.36-.34-.62l2.97-9.91c.18-.59-.15-1.22-.74-1.41-.58-.19-1.22.11-1.45.68l-3.43 10.7c-.08.23-.32.38-.55.34-.24-.04-.42-.25-.42-.49v-11.44c-.01-.66-.54-1.19-1.2-1.19s-1.19.53-1.19 1.19v11.46c0 .25-.18.46-.42.49s-.48-.11-.55-.34l-3.49-10.76c-.22-.55-.85-.85-1.44-.66-.59.2-.92.82-.74 1.4l2.72 9.12c.08.26-.07.54-.34.62s-.54-.07-.62-.34l-2.71-9.1c-.35-1.08.26-2.28 1.38-2.64 1.1-.37 2.28.19 2.7 1.27l2.51 7.78v-8.3c0-1.21.98-2.19 2.19-2.19s2.19.98 2.19 2.19v8.23l2.47-7.69c.43-1.11 1.61-1.67 2.7-1.3 1.1.36 1.72 1.55 1.38 2.65l-2.96 9.92c-.07.22-.26.36-.48.36z" fill="#455a64"/></g><g id="XMLID_150_"><path d="m14.75 26.15c-.06 0-.12-.01-.18-.03-.26-.1-.39-.39-.29-.65.99-2.6 2.9-4.27 5.26-4.57.27-.03.52.16.56.43s-.16.52-.43.56c-1.97.25-3.6 1.69-4.45 3.94-.08.2-.27.32-.47.32z" fill="#455a64"/></g><g id="XMLID_154_"><path d="m12.27 20.84c-.65 0-1.26-.3-1.67-.82l-2.05-2.58c-.45-.57-.64-1.3-.53-2.01.11-.72.52-1.36 1.12-1.76l.25-.17c.45-.29.97-.38 1.48-.26s.93.43 1.2.88l2.06 3.47c.57.97.3 2.19-.61 2.85-.38.27-.8.4-1.25.4zm-1.84-6.64c-.17 0-.34.05-.49.15l-.24.16c-.38.25-.62.64-.69 1.08-.07.45.05.89.33 1.24l2.05 2.58c.38.47 1.06.57 1.55.22s.64-1.01.33-1.53l-2.06-3.46c-.13-.21-.33-.36-.57-.42-.07-.01-.14-.02-.21-.02z" fill="#455a64"/></g><g id="XMLID_149_"><path d="m18.23 31h-3.53c-3.71 0-6.72-3.01-6.72-6.72v-8.43c0-.28.22-.5.5-.5s.5.22.5.5v8.43c0 3.15 2.57 5.72 5.72 5.72h3.53c1.8 0 4.02-1.34 4.86-2.93l1.33-2.52c.42-.8.52-1.72.27-2.59l-1.1-3.89c-.16-.58-.84-1.09-1.44-1.09h-7.29l.02.2c.09 1.12.96 2.04 2.08 2.19l2.7.36c.25.03.43.24.43.5v1.2c0 .28-.22.5-.5.5s-.5-.22-.5-.5v-.76l-2.27-.3c-1.58-.21-2.82-1.51-2.95-3.1l-.06-.74c-.01-.14.04-.28.13-.38s.23-.16.37-.16h7.83c1.06 0 2.12.8 2.41 1.82l1.1 3.89c.32 1.12.19 2.3-.35 3.33l-1.33 2.52c-1 1.9-3.58 3.45-5.74 3.45z" fill="#455a64"/></g></g></g></svg>