<svg id="Capa_1" enable-background="new 0 0 512 512" height="512" viewBox="0 0 512 512" width="512" xmlns="http://www.w3.org/2000/svg"><path d="m399.062 417.213c-3.966 3.966-11.559 4.399-18.42 3.77-7.531-.701-14.175-2.678-14.175-2.678l-20.449-11.373-5.491-43.154-4.79-37.694 21.922 3.791 14.515 2.503 22.386 3.873 4.502 51.272s8.324 21.366 0 29.69z" fill="#f1d0a5"/><path d="m380.643 420.983c-7.531-.701-14.175-2.678-14.175-2.678l-20.449-11.373-5.491-43.154 4.801-33.584 12.331-.319 13.701-.361s.309 1.01.814 2.864c3.173 11.486 14.216 55.197 8.468 88.605z" fill="#f1b986"/><path d="m187.342 336.251-4.5 51.275s-8.326 21.359 0 29.684c8.326 8.326 32.594 1.094 32.594 1.094l29.861-88.11-43.85-8.222z" fill="#f1b986"/><path d="m354.765 487.894-1.736 4.683-49.464-4.683s12.836-59.524-12.609-84.969h-.01c-25.445 25.445-12.609 84.969-12.609 84.969l-16.433 5.197-34.767-5.197c-15.813-50.87-14.083-92.005-9.972-117.235l25.373-7.16 50.036-14.124 72.164 21.284c4.099 25.229 5.84 66.364-9.973 117.235z" fill="#8bc852"/><path d="m243.382 487.894-14.366 5.197-1.88-5.197c-15.813-50.87-14.083-92.005-9.972-117.235l25.373-7.16c-6.192 39.415-9.179 86.124.845 124.395z" fill="#6ea533"/><path d="m357.835 343.133-.062.01s4.028 9.869 6.902 27.516h-147.573c2.781-17.091 6.655-26.888 6.892-27.485.01-.021.01-.031.01-.031l-15.319-2.874-21.407-4.018c10.168-52.993 34.398-72.597 39.507-76.202h128.206c5.11 3.606 29.34 23.21 39.508 76.202l-20.325 3.812z" fill="#da4a54"/><g fill="#c32430"><path d="m374.173 340.063-16.339 3.07-7.026-21.16c.001 0 20.254 4.09 23.365 18.09z"/><path d="m244.607 319.912-3.142 50.747h-24.364c2.781-17.091 6.655-26.888 6.892-27.485l.072-.031c.001 0 4.101-16.37 20.542-23.231z"/><path d="m251.551 260.049c-36.582 33.821-42.783 80.22-42.783 80.22h-.082l-21.407-4.018c10.168-52.993 34.398-72.597 39.507-76.202z"/></g><ellipse cx="290.952" cy="263.766" fill="#f1b986" rx="39.745" ry="28.86"/><path d="m316.917 487.888h-13.365s12.841-59.514-12.605-84.97c25.97 0 39.324 44.713 25.97 84.97z" fill="#6ea533"/><path d="m397.672 187.303h.149c12.833 0 23.232-10.407 23.232-23.232 0-12.833-10.399-23.241-23.232-23.241-.167 0-.334 0-.501.009h-212.735c-.167-.009-.334-.009-.501-.009-12.833 0-23.232 10.407-23.232 23.241 0 12.825 10.399 23.232 23.232 23.232h.149" fill="#f1b986"/><path d="m396.961 206.222c-1.566 30.586-26.043 54.94-56.639 56.382-24.601 1.164-49.191 1.453-73.781.886l-.01-.01c-8.324-.196-16.638-.484-24.951-.876-30.586-1.442-55.063-25.796-56.639-56.382-.484-9.467-.618-30.679-.608-51.653.01-27.32.247-54.239.247-54.239h212.743s.103 11.363.165 26.826c.132 26.588.173 65.282-.527 79.066z" fill="#f1d0a5"/><path d="m266.53 263.479c-8.324-.196-16.638-.484-24.951-.876-30.586-1.442-55.063-25.796-56.639-56.382-.484-9.467-.618-30.679-.608-51.653.01-27.32.247-54.239.247-54.239h55.146c-.763 103.667-5.945 147.976 26.805 163.15z" fill="#f1b986"/><path d="m184.579 100.329h45.874s-1.803 36.88-46.121 54.239c.01-27.32.247-54.239.247-54.239z" fill="#aa593d"/><path d="m397.486 127.155c-103.348 0-156.072-26.826-156.072-26.826h155.908s.102 11.363.164 26.826z" fill="#aa593d"/><path d="m241.485 141.477c-5.353 0-9.708 6.475-9.708 14.433s4.355 14.433 9.708 14.433 9.708-6.475 9.708-14.433-4.355-14.433-9.708-14.433z" fill="#454045"/><path d="m340.421 141.477c-5.352 0-9.707 6.475-9.707 14.433s4.355 14.433 9.707 14.433c5.353 0 9.708-6.475 9.708-14.433s-4.355-14.433-9.708-14.433z" fill="#454045"/><path d="m211.784 512h66.561v-24.108h-42.454c-13.314 0-24.107 10.794-24.107 24.108z" fill="#665e66"/><path d="m251.261 487.888c-13.313 0-24.112 10.798-24.112 24.112h-15.366c0-13.313 10.788-24.112 24.101-24.112z" fill="#454045"/><path d="m370.121 512h-66.561v-24.108h42.453c13.315 0 24.108 10.794 24.108 24.108z" fill="#665e66"/><path d="m290.951 218.768c-12.209 0-23.482-7.129-28.718-18.161-1.83-3.855-.188-8.463 3.667-10.293 3.853-1.829 8.463-.189 10.293 3.667 2.691 5.67 8.485 9.334 14.759 9.334s12.066-3.664 14.758-9.334c1.83-3.855 6.441-5.497 10.293-3.667 3.855 1.83 5.497 6.438 3.667 10.293-5.238 11.033-16.51 18.161-28.719 18.161z" fill="#da4a54"/><path d="m247.062 0h87.614c34.599 0 62.648 28.048 62.648 62.648v37.677h-212.91v-37.677c0-34.6 28.048-62.648 62.648-62.648z" fill="#8bc852"/><path d="m287.144 0c-34.604 0-47.419 28.052-47.419 62.645v37.684h-55.311v-37.684c0-34.593 28.041-62.645 62.645-62.645z" fill="#6ea533"/><path d="m207.613 100.329h-108.94c-4.267 0-7.726-3.459-7.726-7.726s3.459-7.726 7.726-7.726h108.94c4.267 0 7.726 3.459 7.726 7.726s-3.459 7.726-7.726 7.726z" fill="#6ea533"/><path d="m342.326 53.735h-19.345c-13.01 0-23.558 10.547-23.558 23.558v7.58h66.46v-7.58c0-13.011-10.547-23.558-23.557-23.558z" fill="#aa593d"/></svg>