<svg id="Capa_1" enable-background="new 0 0 512 512" height="512" viewBox="0 0 512 512" width="512" xmlns="http://www.w3.org/2000/svg"><ellipse cx="125.703" cy="230.508" fill="#eab14d" rx="34.346" ry="16.605" transform="matrix(.707 -.707 .707 .707 -126.176 156.4)"/><ellipse cx="386.297" cy="230.508" fill="#f6e266" rx="16.605" ry="34.346" transform="matrix(.707 -.707 .707 .707 -49.85 340.667)"/><path d="m404.774 125.435c0 69.269-66.611 125.425-148.779 125.425-5.553 0-11.023-.258-16.411-.762-74.441-6.882-132.358-60.07-132.358-124.662 0-69.281 66.612-125.436 148.769-125.436 82.167 0 148.779 56.155 148.779 125.435z" fill="#f6e266"/><path d="m195.76 112.094 43.824 138.003c-74.441-6.882-132.358-60.07-132.358-124.662 0-69.28 66.612-125.435 148.769-125.435-50.706 10.673-60.235 77.717-60.235 112.094z" fill="#eab14d"/><path d="m296.332 447.696-3.421 13.341-6.881 26.857-30.03 12.104-13.413-5.408-16.617-6.696-6.881-26.857-3.421-13.341 20.264-10.868 21.902-11.744z" fill="#f1d0a5"/><g fill="#f1b986"><path d="m296.332 447.696-3.421 13.341h-73.822l-3.421-13.341 20.264-10.868 21.902-11.744z"/><path d="m242.585 494.59-16.617-6.696-10.301-40.198 20.263-10.868z"/><path d="m255.998 429.085h13.934v62.121h-13.934z"/></g><path d="m199.739 512h56.259v-24.108h-32.152c-13.314 0-24.107 10.794-24.107 24.108z" fill="#70c6da"/><path d="m239.216 487.888c-13.313 0-24.112 10.798-24.112 24.112h-15.366c0-13.313 10.788-24.112 24.101-24.112z" fill="#63afcb"/><path d="m312.258 512h-56.259v-24.108h32.152c13.313 0 24.107 10.794 24.107 24.108z" fill="#70c6da"/><path d="m364.114 417.213c-3.966 3.966-11.559 4.399-18.42 3.77-7.531-.701-14.175-2.678-14.175-2.678l-20.449-11.373-5.491-43.154-4.79-37.694 21.922 3.791 14.515 2.503 22.386 3.873 4.502 51.272s8.324 21.366 0 29.69z" fill="#f1d0a5"/><path d="m345.694 420.983c-7.531-.701-14.175-2.678-14.175-2.678l-20.449-11.373-5.491-43.154 4.801-33.584 12.331-.319 13.701-.361s.309 1.01.814 2.864c3.173 11.486 14.217 55.197 8.468 88.605z" fill="#f1b986"/><path d="m152.393 336.251-4.5 51.275s-8.326 21.359 0 29.684c8.326 8.326 32.594 1.094 32.594 1.094l29.861-88.11-43.85-8.222z" fill="#f1b986"/><path d="m329.282 447.696h-146.564c-5.192-32.399-3.472-58.854-.505-77.037l25.374-7.16 50.036-14.124 72.164 21.284c2.956 18.183 4.687 44.638-.505 77.037z" fill="#da4a54"/><path d="m202.405 447.696h-19.687c-5.192-32.399-3.472-58.854-.505-77.037l25.374-7.16c-4.142 26.373-6.851 56.011-5.182 84.197z" fill="#c32430"/><path d="m322.886 343.133-.062.01s4.028 9.869 6.902 27.516h-147.573c2.781-17.091 6.655-26.888 6.892-27.485.01-.021.01-.031.01-.031l-15.319-2.874-21.407-4.018c10.168-52.993 34.398-72.597 39.507-76.202h128.206c5.11 3.606 29.34 23.21 39.508 76.202l-20.325 3.812z" fill="#b9e4ef"/><path d="m339.225 340.063-16.339 3.07-7.026-21.16s20.254 4.09 23.365 18.09z" fill="#7ad0df"/><path d="m209.659 319.912-3.142 50.747h-24.364c2.781-17.091 6.655-26.888 6.892-27.485l.072-.031s4.1-16.37 20.542-23.231z" fill="#7ad0df"/><path d="m216.602 260.049c-36.582 33.821-42.783 80.22-42.783 80.22h-.083l-21.407-4.018c10.168-52.993 34.398-72.597 39.507-76.202z" fill="#7ad0df"/><ellipse cx="256.004" cy="263.766" fill="#f1b986" rx="39.725" ry="28.846"/><path d="m362.011 206.222c-1.566 30.586-26.043 54.94-56.639 56.382-25.919 1.226-51.839 1.483-77.768.773h-.01c-6.985-.185-13.98-.443-20.964-.773-30.586-1.442-55.063-25.796-56.639-56.382-1.113-21.799-.36-105.892-.36-105.892s17.987 9.818 46.131 11.765c28.721 1.978 68.033-4.234 109.57-37.457 0 0 26.826 39.198 57.196 49.562.142 26.588.214 67.712-.517 82.022z" fill="#f1d0a5"/><path d="m227.593 263.376c-6.985-.185-13.98-.443-20.964-.773-30.586-1.442-55.063-25.796-56.639-56.382-1.113-21.799-.36-105.892-.36-105.892s17.987 9.818 46.131 11.765c.844 99.474 11.712 150.52 31.832 151.282z" fill="#f1b986"/><path d="m206.536 141.477c-5.352 0-9.707 6.475-9.707 14.433s4.355 14.433 9.707 14.433c5.353 0 9.708-6.475 9.708-14.433.001-7.958-4.355-14.433-9.708-14.433z" fill="#454045"/><path d="m305.472 141.477c-5.352 0-9.707 6.475-9.707 14.433s4.355 14.433 9.707 14.433c5.353 0 9.708-6.475 9.708-14.433s-4.355-14.433-9.708-14.433z" fill="#454045"/><path d="m256.002 218.768c-12.209 0-23.482-7.129-28.718-18.161-1.83-3.855-.188-8.463 3.667-10.293 3.853-1.829 8.463-.189 10.293 3.667 2.691 5.67 8.485 9.334 14.759 9.334s12.066-3.664 14.758-9.334c1.83-3.855 6.441-5.497 10.293-3.667 3.855 1.83 5.497 6.438 3.667 10.293-5.238 11.033-16.51 18.161-28.719 18.161z" fill="#da4a54"/><ellipse cx="322.117" cy="190.766" fill="#eaac9d" rx="15.759" ry="9.935"/><ellipse cx="189.882" cy="190.766" fill="#eaac9d" rx="15.759" ry="9.935"/></svg>