<?xml version="1.0" encoding="iso-8859-1"?>
<!-- Generator: Adobe Illustrator 19.0.0, SVG Export Plug-In . SVG Version: 6.00 Build 0)  -->
<svg version="1.1" id="Capa_1" xmlns="http://www.w3.org/2000/svg" xmlns:xlink="http://www.w3.org/1999/xlink" x="0px" y="0px"
	 viewBox="0 0 512.193 512.193" style="enable-background:new 0 0 512.193 512.193;" xml:space="preserve">
<path style="fill:#425A6B;" d="M245.963,497.608l1.067-2.133c0,0,2.133-5.333-1.067-9.6c-3.2-4.267-4.267-6.4-4.267-6.4
	l-13.867-2.133c0,0-4.267,3.2-4.267,4.267c0,1.067-2.133,6.4-5.333,10.667c-3.2,3.2-10.667,8.533-7.467,13.867
	c3.2,5.333,3.2,5.333,3.2,5.333s21.333-1.067,22.4-2.133c1.067-2.133,3.2-3.2,3.2-3.2l1.067-4.267L245.963,497.608z"/>
<path style="fill:#344A5E;" d="M209.696,506.142c0,0,2.133,1.067,4.267,1.067s9.6,1.067,12.8,2.133c2.133,0,9.6-1.067,11.733-3.2
	s0-5.333,2.133-7.467c2.133-2.133,6.4-1.067,7.467-3.2c0,0,1.067,2.133,0,4.267c-1.067,2.133-7.467,4.267-7.467,4.267l-2.133-2.133
	c0,0-1.067,2.133-1.067,3.2s0,3.2-2.133,4.267c-2.133,1.067-9.6,4.267-19.2,2.133c-1.067,0-1.067,0-2.133,0
	C212.896,511.475,208.63,510.408,209.696,506.142z"/>
<path style="fill:#425A6B;" d="M296.096,494.408l-1.067-2.133c0,0-2.133-5.333,1.067-9.6c3.2-4.267,4.267-6.4,4.267-6.4l12.8-4.267
	c0,0,4.267,2.133,4.267,4.267s2.133,6.4,5.333,9.6c3.2,3.2,10.667,7.467,7.467,12.8c-2.133,5.333-2.133,5.333-2.133,5.333
	s-19.2,1.067-20.267,0c-1.067-1.067-3.2-3.2-3.2-3.2l-1.067-4.267L296.096,494.408z"/>
<path style="fill:#344A5E;" d="M331.296,498.675c0,0-1.067,1.067-4.267,1.067c-2.133,0-9.6,2.133-11.733,3.2
	c-2.133,1.067-8.533,0-10.667-2.133c-2.133-2.133,0-5.333-2.133-7.467s-6.4-1.067-7.467-2.133c0,0-1.067,3.2,0,4.267
	c1.067,2.133,7.467,3.2,7.467,3.2l1.067-1.067c0,0,1.067,2.133,1.067,3.2s0,3.2,2.133,4.267c2.133,1.067,8.533,3.2,17.067,0
	c1.067,0,1.067,0,2.133,0C327.03,505.075,331.296,504.008,331.296,498.675z"/>
<path style="fill:#FFD15C;" d="M258.763,49.608c0,0,0,9.6,6.4,21.333c0,0-1.067,3.2-5.333,10.667c-4.267,6.4,2.133,16,2.133,16
	l19.2,8.533l22.4-7.467l-1.067-11.733c0,0-6.4-5.333-6.4-16c0,0,5.333-14.933,5.333-28.8s0-24.533-5.333-27.733
	c-5.333-3.2-37.333,0-39.467,4.267C254.496,24.008,258.763,49.608,258.763,49.608z"/>
<path style="fill:#CED6E0;" d="M276.896,98.675h7.467l20.267,3.2l6.4,42.667l6.4,77.867c0,0-20.267,12.8-37.333,12.8
	c-17.067,0-55.467-8.533-55.467-8.533l10.667-112l24.533-24.533L276.896,98.675z"/>
<g>
	<path style="fill:#F05640;" d="M293.963,225.608c-4.267,5.333-9.6,9.6-13.867,14.933c-6.4-5.333-11.733-9.6-18.133-14.933
		c0-38.4,16-77.867,14.933-116.267c0-3.2,0-6.4,0-9.6c1.067,1.067,2.133,1.067,3.2,2.133c1.067-1.067,2.133-1.067,2.133-2.133
		c1.067,3.2,1.067,6.4,2.133,9.6C293.963,147.742,286.496,187.208,293.963,225.608z"/>
	<path style="fill:#F05640;" d="M281.163,208.542L281.163,208.542L281.163,208.542z"/>
</g>
<path style="fill:#F26F5A;" d="M290.763,100.808c0,0-1.067,7.467-5.333,8.533c-3.2-2.133-6.4-2.133-8.533,0
	c-4.267-1.067-5.333-8.533-5.333-8.533C271.563,97.608,290.763,97.608,290.763,100.808z"/>
<path style="fill:#2B4151;" d="M320.63,230.942l5.333,26.667c0,0,3.2,8.533,1.067,18.133c-2.133,9.6-5.333,61.867-5.333,73.6
	s2.133,32,4.267,44.8s0,45.867,0,48s-5.333,37.333-5.333,37.333s-6.4-6.4-12.8-3.2c-6.4,3.2-9.6,5.333-10.667,5.333
	c0,0-4.267-12.8-3.2-21.333s1.067-14.933,0-23.467s-1.067-24.533,0-34.133s-2.133-18.133-3.2-25.6c-1.067-7.467-9.6-44.8-9.6-50.133
	c-1.067-4.267-9.6-29.867-9.6-30.933c0,0-2.133,1.067-2.133,4.267c1.067,3.2-5.333,30.933-8.533,38.4
	c-3.2,7.467-13.867,42.667-13.867,52.267c0,9.6,4.267,39.467,4.267,51.2c1.067,12.8-6.4,42.667-6.4,42.667s-2.133-2.133-7.467-5.333
	c-5.333-3.2-13.867-2.133-16,1.067c0,0-3.2-10.667-3.2-16c0-5.333-4.267-24.533-4.267-39.467s3.2-40.533,3.2-48
	c1.067-6.4-2.133-45.867-2.133-58.667c0-12.8-2.133-51.2,0-61.867c2.133-10.667,9.6-30.933,9.6-30.933s75.733,16,92.8-6.4
	L320.63,230.942z"/>
<path style="fill:#F05640;" d="M263.03,206.408c-1.067,6.4-1.067,12.8-1.067,19.2c5.333,5.333,11.733,9.6,18.133,14.933
	c4.267-5.333,8.533-9.6,13.867-14.933c-1.067-6.4-2.133-12.8-2.133-19.2H263.03z"/>
<g>
	
		<ellipse transform="matrix(0.2598 0.9657 -0.9657 0.2598 232.2123 -213.9361)" style="fill:#FFD15C;" cx="255.655" cy="44.502" rx="8.534" ry="3.2"/>
	
		<ellipse transform="matrix(0.2597 -0.9657 0.9657 0.2597 180.8911 326.5925)" style="fill:#FFD15C;" cx="303.458" cy="45.314" rx="8.533" ry="3.2"/>
</g>
<path style="fill:#425A6B;" d="M303.563,36.808c-2.133,3.2-3.2,10.667-3.2,10.667h-1.067c0,0,1.067-5.333,0-7.467
	c0-2.133-1.067-6.4,0-9.6c1.067-3.2-1.067-7.467-1.067-7.467c-3.2-8.533-12.8-6.4-14.933-4.267c-3.2,2.133-7.467,3.2-11.733,0
	s-7.467-1.067-11.733,3.2c-4.267,4.267-3.2,10.667-2.133,13.867c1.067,3.2,1.067,10.667,1.067,10.667h-1.067
	c0-6.4-4.267-8.533-4.267-8.533c-6.4-18.133,6.4-30.933,9.6-33.067c2.133-2.133,17.067-7.467,27.733-3.2s13.867,16,14.933,20.267
	C306.763,27.208,305.696,33.608,303.563,36.808z"/>
<path style="fill:#F5B54C;" d="M297.163,70.942c0,0-5.333,6.4-14.933,7.467c-10.667,1.067-16-7.467-16-7.467
	s-1.067,3.2-5.333,10.667c-2.133,3.2-2.133,6.4-1.067,9.6c6.4-1.067,13.867-3.2,20.267-5.333
	C291.83,81.608,297.163,70.942,297.163,70.942z"/>
<path style="fill:#425A6B;" d="M224.63,105.075l-5.333,39.467c0,0-3.2,2.133-6.4,4.267c-3.2,2.133-13.867,9.6-14.933,12.8
	c-1.067,3.2-8.533,6.4-8.533,6.4c-1.067,2.133-2.133,3.2-3.2,6.4c0,0,0,0,0,1.067c-2.133,1.067-4.267,1.067-4.267,1.067
	s-1.067,0-3.2,0c0,0,0,0,0-1.067c-1.067-1.067-3.2-2.133-6.4-1.067s-5.333,3.2-7.467,7.467c0,1.067,0,1.067-1.067,2.133
	c-3.2,9.6,3.2,17.067,4.267,18.133c0,0-4.267-3.2-5.333-8.533c-1.067-5.333-1.067-19.2,0-22.4c1.067-4.267,2.133-10.667,4.267-12.8
	s1.067-3.2,5.333-7.467c4.267-4.267,4.267-2.133,5.333-4.267c2.133-2.133,4.267-6.4,8.533-9.6s9.6-7.467,13.867-14.933
	c3.2-7.467,7.467-8.533,10.667-17.067c3.2-8.533,8.533-11.733,8.533-11.733L224.63,105.075z"/>
<g>
	<path style="fill:#344A5E;" d="M256.63,83.742c0,0-24.533,6.4-30.933,7.467c-6.4,1.067-7.467,2.133-7.467,2.133
		s-5.333,34.133-2.133,54.4c0,0,4.267,68.267-8.533,106.667c0,0,21.333-26.667,29.867-48s11.733-29.867,11.733-29.867
		S251.296,98.675,256.63,83.742z"/>
	<ellipse style="fill:#344A5E;" cx="325.963" cy="172.275" rx="8.533" ry="48"/>
</g>
<path style="fill:#425A6B;" d="M331.296,104.008l10.667,2.133c0,0,4.267,1.067,4.267,12.8c0,11.733,3.2,65.067,4.267,71.467
	c1.067,6.4,1.067,25.6,0,30.933c-1.067,5.333-12.8,41.6-12.8,41.6s-13.867-14.933-20.267-14.933c0,0,3.2-9.6,5.333-14.933
	c2.133-5.333,2.133-9.6,3.2-13.867c0-3.2,1.067-18.133,1.067-22.4s-2.133-8.533-2.133-8.533l3.2-42.667
	C323.83,130.675,323.83,115.742,331.296,104.008z"/>
<path style="fill:#344A5E;" d="M307.83,86.942c0,0,27.733,8.533,34.133,19.2c0,0-13.867,26.667-12.8,39.467
	c0,0-5.333,52.267-4.267,62.933c1.067,10.667,14.933,55.467,14.933,55.467l-12.8,5.333c0,0-5.333-25.6-9.6-38.4
	c-4.267-13.867-5.333-14.933-5.333-14.933s-6.4-30.933-7.467-38.4C303.563,171.208,307.83,86.942,307.83,86.942z"/>
<polygon style="fill:#FFD15C;" points="322.763,244.808 319.563,251.208 327.03,269.342 337.696,255.475 "/>
<path style="fill:#425A6B;" d="M350.496,221.342c-1.067,5.333-12.8,41.6-12.8,41.6s-13.867-14.933-20.267-14.933
	c0,0,3.2-9.6,5.333-14.933s2.133-9.6,3.2-13.867c0-3.2,1.067-18.133,1.067-22.4s-2.133-8.533-2.133-8.533l3.2-42.667h19.2
	c1.067,19.2,2.133,40.533,3.2,44.8C351.563,196.808,351.563,216.008,350.496,221.342z"/>
<g>
	<path style="fill:#F3F3F3;" d="M284.363,98.675c0,0,13.867,5.333,17.067,14.933l4.267-28.8c0,0-3.2-6.4-7.467-8.533
		C296.096,85.875,291.83,93.342,284.363,98.675z"/>
	<path style="fill:#F3F3F3;" d="M276.896,98.675c0,0-13.867,5.333-17.067,14.933l-3.2-28.8c0,0,3.2-6.4,7.467-8.533
		C265.163,85.875,269.43,93.342,276.896,98.675z"/>
</g>
<g>
	<path style="fill:#425A6B;" d="M301.43,79.475c0,0,0,9.6-1.067,22.4c-1.067,12.8-3.2,57.6-1.067,67.2
		c1.067,10.667,7.467,29.867,9.6,37.333c2.133,7.467,2.133,8.533,2.133,8.533s-1.067-8.533-2.133-18.133
		c-1.067-8.533-2.133-16-1.067-28.8c1.067-12.8,9.6-58.667,9.6-66.133l-7.467-4.267l7.467-3.2c0,0-3.2-8.533-7.467-11.733
		C304.63,82.675,301.43,79.475,301.43,79.475z"/>
	<path style="fill:#425A6B;" d="M264.096,76.275c0,0-10.667,6.4-17.067,12.8l4.267,3.2l-6.4,2.133c0,0-7.467,29.867-5.333,43.733
		s4.267,20.267,4.267,25.6c0,5.333-2.133,36.267-6.4,44.8c0,0,13.867-16,14.933-28.8c1.067-12.8-1.067-37.333,0-44.8
		C253.43,127.475,259.83,83.742,264.096,76.275z"/>
</g>
<g>
	<path style="fill:#F26F5A;" d="M189.43,194.675l16,1.067l39.467-8.533c0,0,2.133,0,3.2,2.133c0,0,0-2.133-3.2-3.2h-34.133
		l-25.6,6.4L189.43,194.675z"/>
	<path style="fill:#F26F5A;" d="M249.163,196.808c0,0,0,1.067-1.067,2.133c-1.067,0-42.667,9.6-42.667,9.6l-20.267-2.133l2.133-12.8
		l2.133,1.067l16,1.067l39.467-8.533c0,0,2.133,0,3.2,2.133C250.23,193.608,249.163,196.808,249.163,196.808z"/>
</g>
<path style="fill:#F3F3F3;" d="M187.296,205.342l2.133-9.6l0,0l16,1.067l40.533-8.533c0,0,1.067,0,2.133,1.067
	c1.067,4.267,1.067,7.467,1.067,7.467l0,0v1.067c-2.133,1.067-26.667,6.4-42.667,9.6L187.296,205.342z"/>
<path style="fill:#67C5B8;" d="M188.363,181.875l16,1.067l39.467-8.533c0,0,2.133,0,3.2,2.133c0,0-1.067-1.067-3.2-2.133
	l-33.067-2.133l-26.667,7.467L188.363,181.875z"/>
<path style="fill:#48B9A5;" d="M248.096,185.075c0,0,0,1.067-1.067,2.133c-1.067,0-42.667,9.6-42.667,9.6l-20.267-2.133l2.133-12.8
	l2.133,1.067l16,1.067l39.467-8.533c0,0,2.133,0,3.2,2.133C249.163,181.875,248.096,185.075,248.096,185.075z"/>
<path style="fill:#F3F3F3;" d="M186.23,193.608l2.133-9.6l0,0l16,1.067l40.533-8.533c0,0,1.067,0,2.133,1.067
	c1.067,4.267,1.067,7.467,1.067,7.467l0,0v1.067c-2.133,1.067-26.667,6.4-42.667,9.6L186.23,193.608z"/>
<path style="fill:#344A5E;" d="M164.896,197.875c0,0,2.133,3.2,3.2,3.2c1.067,1.067,16-13.867,13.867-22.4
	c-2.133-8.533-7.467-10.667-10.667-9.6c-3.2,0-9.6,13.867-9.6,18.133C162.763,192.542,164.896,197.875,164.896,197.875z"/>
<path style="fill:#ACB2BA;" d="M167.03,190.408c1.067,4.267,14.933,3.2,8.533-14.933l-6.4,6.4L167.03,190.408z"/>
<path style="fill:#FFD15C;" d="M171.296,171.208c0,0,3.2,6.4,7.467,6.4c4.267,0,5.333,0,5.333,0s4.267-2.133,8.533-2.133
	s9.6,0,10.667,1.067h5.333c0,0-1.067,5.333-7.467,4.267c-7.467-1.067-7.467,2.133-7.467,2.133c0,1.067,1.067,8.533,3.2,11.733
	c2.133,3.2,6.4,7.467,8.533,9.6c2.133,1.067,4.267,2.133,4.267,2.133s2.133,1.067,2.133,2.133l-4.267,1.067c0,0-1.067,0-3.2,0
	c0,0-2.133,2.133-4.267,2.133c0,0-2.133,1.067-4.267,1.067c-3.2-1.067-3.2-1.067-3.2-1.067s-1.067,1.067-2.133,0
	c-1.067,0-6.4-3.2-8.533-4.267c-2.133-1.067-2.133-2.133-3.2-3.2c-1.067-1.067-7.467-9.6-9.6-12.8
	c-2.133-3.2-4.267-10.667-4.267-10.667L171.296,171.208z"/>
<g>
	<path style="fill:#F5B54C;" d="M202.23,210.675c0,0-1.067,0-2.133-1.067s-3.2-1.067-4.267-2.133c-1.067,0-1.067-1.067-2.133-1.067
		l-1.067-1.067c0,0,0-1.067-1.067-1.067c0,0,0,0-1.067-1.067c0,0,0,0,0-1.067l0,0l0,0l0,0l0,0c0,0,0,0,1.067,1.067
		c0,0,0,0,1.067,1.067c0,0,1.067,0,1.067,1.067c1.067,1.067,1.067,1.067,2.133,2.133c1.067,1.067,3.2,2.133,4.267,3.2
		C201.163,209.608,202.23,210.675,202.23,210.675L202.23,210.675z"/>
	<path style="fill:#F5B54C;" d="M197.963,211.742L197.963,211.742c-1.067,0-1.067,0-2.133,0c0,0-1.067,0-2.133-1.067
		c0,0-1.067,0-1.067-1.067c0,0-1.067,0-1.067-1.067c-1.067,0-1.067-1.067-2.133-1.067c0,0,0,0-1.067-1.067c0,0,0,0-1.067-1.067
		c0,0,0,0,0-1.067s0,0,0,0l0,0l0,0l0,0l0,0c0,0,0,0,1.067,0c0,0,0,0,1.067,1.067c0,0,0,0,1.067,1.067l1.067,1.067
		c0,0,1.067,0,1.067,1.067c0,0,1.067,0,1.067,1.067h1.067h1.067C196.896,211.742,196.896,211.742,197.963,211.742L197.963,211.742
		L197.963,211.742z"/>
	<path style="fill:#F5B54C;" d="M192.63,211.742L192.63,211.742L192.63,211.742C192.63,211.742,191.563,211.742,192.63,211.742
		c-2.133-1.067-2.133-1.067-3.2-2.133c0,0-1.067,0-1.067-1.067c0,0-1.067,0-1.067-1.067c0,0-1.067,0-1.067-1.067l0,0l0,0l0,0
		c0,0,0,0,1.067,0c0,0,1.067,0,1.067,1.067c0,0,1.067,0,1.067,1.067C190.496,210.675,191.563,210.675,192.63,211.742L192.63,211.742
		L192.63,211.742L192.63,211.742L192.63,211.742z"/>
</g>
<path style="fill:#E8EAE8;" d="M175.563,174.408c0,0-7.467,8.533-7.467,17.067c-3.2-2.133-4.267-5.333-5.333-8.533l7.467-12.8
	l1.067-1.067L175.563,174.408z"/>
<path style="fill:#425A6B;" d="M163.83,163.742c-1.067,2.133-1.067,5.333-2.133,7.467c-1.067,4.267-1.067,17.067,0,22.4
	c1.067,5.333,5.333,8.533,5.333,8.533s-7.467-8.533-4.267-18.133c0-1.067,0-1.067,1.067-2.133c2.133-4.267,5.333-6.4,7.467-7.467
	c2.133-1.067,5.333,0,6.4,1.067c0,0,0,0,0,1.067c3.2,0,3.2,0,3.2,0s2.133-1.067,4.267-1.067c0,0,0,0,0-1.067
	c1.067-3.2,2.133-5.333,3.2-6.4c0,0,6.4-2.133,8.533-4.267L163.83,163.742L163.83,163.742z"/>
<g>
</g>
<g>
</g>
<g>
</g>
<g>
</g>
<g>
</g>
<g>
</g>
<g>
</g>
<g>
</g>
<g>
</g>
<g>
</g>
<g>
</g>
<g>
</g>
<g>
</g>
<g>
</g>
<g>
</g>
</svg>
