<svg id="Capa_1" enable-background="new 0 0 512 512" height="512" viewBox="0 0 512 512" width="512" xmlns="http://www.w3.org/2000/svg"><path d="m72.815 449.791h-23.829c-6.512 0-11.791-5.279-11.791-11.791v-35.62h47.411v35.62c0 6.512-5.279 11.791-11.791 11.791z" fill="#394949"/><path d="m463.014 449.791h-23.829c-6.512 0-11.791-5.279-11.791-11.791v-35.62h47.411v35.62c0 6.512-5.279 11.791-11.791 11.791z" fill="#394949"/><path d="m486.517 420.155h-461.034c-14.074 0-25.483-11.409-25.483-25.483v-306.98c0-14.074 11.409-25.483 25.483-25.483h461.034c14.074 0 25.483 11.409 25.483 25.483v306.98c0 14.074-11.409 25.483-25.483 25.483z" fill="#557981"/><path d="m39.177 369.439v-256.515c0-6.372 5.166-11.538 11.538-11.538h301.742c6.372 0 11.538 5.166 11.538 11.538v256.516c0 6.372-5.166 11.538-11.538 11.538h-301.742c-6.372-.001-11.538-5.166-11.538-11.539z" fill="#e8f3ff"/><path d="m352.458 101.386h-40.891c6.372 0 11.538 5.166 11.538 11.538v256.516c0 6.372-5.166 11.538-11.538 11.538h40.891c6.372 0 11.538-5.166 11.538-11.538v-256.516c-.001-6.372-5.166-11.538-11.538-11.538z" fill="#d8eafb"/><path d="m39.177 339.662v29.778c0 6.372 5.166 11.538 11.538 11.538h301.742c6.372 0 11.538-5.166 11.538-11.538v-29.778z" fill="#c1e2ff"/><path d="m323.105 369.44c0 6.372-5.166 11.538-11.538 11.538h40.891c6.372 0 11.538-5.166 11.538-11.538v-29.778h-40.891z" fill="#b3d8fb"/><path d="m486.517 62.209h-84.633v357.946h84.633c14.074 0 25.483-11.409 25.483-25.483v-306.98c0-14.074-11.409-25.483-25.483-25.483z" fill="#688b96"/><path d="m486.517 62.209h-40.891c14.074 0 25.483 11.409 25.483 25.483v306.98c0 14.074-11.409 25.483-25.483 25.483h40.891c14.074 0 25.483-11.409 25.483-25.483v-306.98c0-14.074-11.409-25.483-25.483-25.483z" fill="#557981"/><path d="m480.684 254.09h-47.484c-4.27 0-7.732-3.462-7.732-7.732s3.462-7.732 7.732-7.732h47.484c4.27 0 7.732 3.462 7.732 7.732s-3.462 7.732-7.732 7.732z" fill="#e8f3ff"/><path d="m480.684 282.881h-47.484c-4.27 0-7.732-3.462-7.732-7.732s3.462-7.732 7.732-7.732h47.484c4.27 0 7.732 3.462 7.732 7.732s-3.462 7.732-7.732 7.732z" fill="#e8f3ff"/><path d="m433.2 202.967v-93.244c0-4.605 3.733-8.337 8.337-8.337h30.809c4.605 0 8.337 3.733 8.337 8.337v93.244c0 4.605-3.733 8.337-8.337 8.337h-30.809c-4.604 0-8.337-3.733-8.337-8.337z" fill="#62d8f9"/><circle cx="456.942" cy="357.236" fill="#fbd307" r="23.742"/><path d="m270.126 339.662h-137.08l-28.09-46.689c-5.444-9.048 1.073-20.574 11.632-20.574h169.995c10.559 0 17.076 11.526 11.632 20.574z" fill="#fd7e42"/><path d="m286.584 272.399h-40.108c10.559 0 17.076 11.526 11.632 20.574l-28.09 46.689h40.108l28.09-46.689c5.444-9.048-1.073-20.574-11.632-20.574z" fill="#fc5327"/><g fill="#688b96"><path d="m212.561 238.022c-3.229-2.794-3.582-7.678-.788-10.907 3.413-3.942 5.346-5.251 5.346-9.484 0-3.416-1.129-4.8-3.912-7.875-3.339-3.689-7.911-8.741-7.911-18.252 0-9.978 4.729-14.567 9.03-19.502 2.805-3.219 7.689-3.556 10.909-.751s3.556 7.689.751 10.909c-3.373 3.872-5.225 5.167-5.225 9.343 0 3.416 1.129 4.8 3.912 7.874 3.339 3.689 7.911 8.741 7.911 18.252 0 10.107-4.922 14.752-9.116 19.603-2.799 3.237-7.683 3.579-10.907.79z"/><path d="m166.3 238.022c-3.229-2.794-3.582-7.678-.788-10.907 3.396-3.925 5.347-5.215 5.347-9.484 0-3.416-1.129-4.8-3.912-7.875-3.339-3.688-7.911-8.741-7.911-18.252 0-9.96 4.698-14.525 9.03-19.503 2.805-3.22 7.69-3.556 10.91-.75 3.219 2.805 3.555 7.69.75 10.91-3.419 3.92-5.225 5.186-5.225 9.343 0 3.416 1.129 4.8 3.912 7.874 3.339 3.689 7.911 8.741 7.911 18.252 0 10.107-4.906 14.733-9.116 19.603-2.8 3.236-7.684 3.578-10.908.789z"/></g></svg>