<svg height="512" viewBox="0 0 64 64" width="512" xmlns="http://www.w3.org/2000/svg"><g id="Layer_7"><g><path d="m58 33.831v14.169c0 7.732-6.268 14-14 14h-24c-7.732 0-14-6.268-14-14v-14.169h19l2-1.831h11l2 1.831z" fill="#44a1df"/><path d="m38 32h-11l-2 1.831h-17v12.169c0 7.732 6.268 14 14 14h24c3.357 0 6.435-1.184 8.847-3.153 1.969-2.412 3.153-5.49 3.153-8.847v-14.169h-18z" fill="#53bded"/><path d="m32 2c6.482 0 12.15 4.369 13.799 10.638l1.666 6.333c.327 1.242 1.333 2.189 2.592 2.441 1.712.342 2.943 1.844 2.943 3.588 0 1.241.651 2.39 1.715 3.028 2.038 1.224 3.285 3.426 3.285 5.803 0 1.41-.441 2.786-1.26 3.933-2.347 3.286-6.136 5.236-10.174 5.236-2.758 0-5.238-1.679-6.262-4.24l-.161-.403c-1.294-3.235-4.428-5.357-7.913-5.357h-.23-.23c-3.485 0-6.619 2.122-7.913 5.358l-.161.403c-1.024 2.56-3.504 4.239-6.262 4.239-4.038 0-7.827-1.95-10.173-5.235-.82-1.148-1.261-2.523-1.261-3.934 0-2.377 1.247-4.58 3.285-5.803 1.064-.637 1.715-1.787 1.715-3.028 0-1.745 1.231-3.247 2.942-3.589 1.259-.252 2.265-1.199 2.592-2.441l1.666-6.333c1.65-6.268 7.318-10.637 13.8-10.637z" fill="#acdcf7"/><path d="m36 9h-8c-1.657 0-3 1.343-3 3 0 1.657 1.343 3 3 3h8c1.657 0 3-1.343 3-3 0-1.657-1.343-3-3-3z" fill="#fff"/><path d="m39 49c0-1.105-.895-2-2-2h-.172l.121-.121c.781-.781.781-2.047 0-2.828s-2.047-.781-2.828 0l-.121.121v-.172c0-1.105-.895-2-2-2s-2 .895-2 2v.172l-.121-.121c-.781-.781-2.047-.781-2.828 0s-.781 2.047 0 2.828l.121.121h-.172c-1.105 0-2 .895-2 2s.895 2 2 2h.172l-.121.121c-.781.781-.781 2.047 0 2.828s2.047.781 2.828 0l.121-.121v.172c0 1.105.895 2 2 2s2-.895 2-2v-.172l.121.121c.781.781 2.047.781 2.828 0s.781-2.047 0-2.828l-.121-.121h.172c1.105 0 2-.895 2-2z" fill="#dd5697"/><circle cx="32" cy="49" fill="#fef36f" r="2"/><path d="m47 32c0-2.761-6.716-5-15-5s-15 2.239-15 5c0 1.912 3.22 3.573 7.951 4.415h.019c1.584-2.109 4.078-3.415 6.8-3.415h.23.23c2.722 0 5.216 1.306 6.801 3.415h.019c4.73-.842 7.95-2.503 7.95-4.415z" fill="#29678c"/></g></g></svg>