<svg height="512pt" viewBox="0 -26 512.00106 512" width="512pt" xmlns="http://www.w3.org/2000/svg"><path d="m228.320312 382.769531c-19.839843 33.347657-59.414062 53.277344-106.039062 53.367188-.035156 0-.066406 0-.101562 0-.03125 0-.0625 0-.097657 0-46.625-.089844-86.199219-20.019531-106.039062-53.367188-11.074219-18.050781-15.316407-37.554687-15.949219-57.414062-.015625.007812-.03125.011719-.046875.019531.457031 20.386719 4.636719 62.136719 15.996094 80.652344 19.839843 33.34375 59.410156 53.273437 106.039062 53.363281h.097657.097656c46.628906-.089844 86.199218-20.019531 106.039062-53.363281 11.359375-18.511719 15.539063-60.265625 16-80.652344-.015625-.003906-.035156-.011719-.050781-.019531-.628906 19.859375-4.871094 39.363281-15.945313 57.414062zm0 0" fill="#ffb98a"/><path d="m240.210938 179.484375c5.800781-36.019531 8.355468-73.875-11.890626-106.875-3.660156-6.148437-7.992187-11.835937-12.914062-17.03125 7.609375 14.03125 11.917969 29.976563 11.917969 46.875v7.121094c0 23.921875-8.785157 47.136719-24.738281 65.363281l-.246094.28125v65.996094c0 1.472656-.730469 2.84375-1.957032 3.671875-.734374.496093-1.59375.761719-2.484374.761719-.574219 0-1.132813-.105469-1.65625-.316407l-54.175782-21.71875-.46875.503907c-4.992187 5.402343-12.070312 8.5-19.417968 8.5-7.347657 0-14.425782-3.097657-19.417969-8.5l-.464844-.503907-54.175781 21.71875c-.523438.210938-1.082032.316407-1.652344.316407-.898438 0-1.757812-.261719-2.492188-.757813-1.222656-.828125-1.953124-2.203125-1.953124-3.675781v-66l-.25-.28125c-15.953126-18.230469-24.738282-41.441406-24.738282-65.359375v-7.121094c0-16.898437 4.308594-32.839844 11.914063-46.867187-4.917969 5.191406-9.25 10.878906-12.90625 17.023437-20.25 33-17.691407 70.855469-11.890625 106.875.03125.179687.0625.363281.09375.542969 5.527344 32.144531 5.527344 64.734375 0 96.875-.03125.183594-.0625.363281-.09375.546875-2.597656 16.136719-4.539063 32.644531-4.074219 48.921875 34.671875-15.402344 76.738281-24.433594 122.101563-24.433594 45.363281 0 87.433593 9.03125 122.105468 24.433594.460938-16.273438-1.476562-32.785156-4.078125-48.921875-.027343-.183594-.058593-.363281-.089843-.546875-5.527344-32.140625-5.527344-64.730469 0-96.875.03125-.179688.0625-.359375.09375-.542969zm0 0" fill="#fb8276"/><path d="m102.761719 224.117188-.46875-.503907-54.171875 21.71875c-.527344.210938-1.082032.316407-1.65625.316407-.894532 0-1.753906-.261719-2.488282-.757813-1.226562-.828125-1.957031-2.203125-1.957031-3.675781v-65.976563c-16.039062-18.195312-24.984375-41.328125-24.984375-65.664062v-7.121094c0-16.886719 4.304688-32.820313 11.898438-46.839844-4.90625 5.1875-9.238282 10.859375-12.890625 16.996094-20.25 33-17.691407 70.855469-11.890625 106.875.03125.179687.0625.363281.09375.542969 5.527344 32.144531 5.527344 64.734375 0 96.875-.03125.183594-.0625.363281-.09375.546875-1.648438 10.246093-3.035156 20.640625-3.707032 31.03125 47.808594-6.289063 87.316407-39.074219 103.460938-83.207031-.390625-.375-.777344-.757813-1.144531-1.15625zm0 0" fill="#f24976"/><path d="m35.574219 179.484375c-.832031-5.175781-1.59375-10.386719-2.238281-15.617187-10.546876-16.039063-16.300782-34.777344-16.300782-54.292969v-7.121094c0-16.886719 4.304688-32.820313 11.898438-46.839844-4.910156 5.1875-9.238282 10.859375-12.890625 16.996094-20.25 33-17.691407 70.855469-11.890625 106.875.03125.179687.0625.363281.09375.542969 5.523437 32.144531 5.523437 64.734375 0 96.875-.03125.183594-.0625.363281-.09375.546875-1.648438 10.246093-3.035156 20.640625-3.710938 31.03125 11.238282-1.476563 22.015625-4.425781 32.140625-8.636719.75-7.503906 1.796875-14.988281 2.992188-22.394531.03125-.183594.0625-.363281.089843-.546875 5.527344-32.140625 5.527344-64.730469 0-96.875-.027343-.179688-.058593-.363282-.089843-.542969zm0 0" fill="#d9426a"/><path d="m240.210938 179.484375c5.800781-36.019531 8.355468-73.875-11.890626-106.875-3.652343-6.136719-7.984374-11.8125-12.894531-17 7.59375 14.019531 11.898438 29.957031 11.898438 46.84375v7.121094c0 24.34375-8.945313 47.476562-24.984375 65.664062v65.976563c0 1.472656-.730469 2.847656-1.957032 3.671875-.734374.5-1.59375.761719-2.484374.761719-.574219 0-1.132813-.105469-1.65625-.316407l-54.175782-21.71875-.46875.503907c-.367187.398437-.75.785156-1.144531 1.15625 16.144531 44.136718 55.652344 76.917968 103.464844 83.210937-.671875-10.394531-2.058594-20.785156-3.710938-31.035156-.027343-.179688-.058593-.363281-.089843-.546875-5.527344-32.140625-5.527344-64.730469 0-96.871094.03125-.183594.0625-.363281.09375-.546875zm0 0" fill="#f24976"/><path d="m122.179688 300.925781c-45.375 0-87.457032 9.039063-122.132813 24.449219.457031 20.386719 4.636719 40.429688 15.996094 58.945312 19.839843 33.34375 59.410156 53.273438 106.039062 53.363282h.097657.097656c46.628906-.089844 86.199218-20.019532 106.039062-53.363282 11.359375-18.511718 15.539063-38.558593 16-58.945312-34.679687-15.410156-76.757812-24.449219-122.136718-24.449219zm0 0" fill="#e6e9ed"/><path d="m153.652344 422.085938c-.03125 0-.0625 0-.097656 0-.03125 0-.066407 0-.097657 0-46.625-.089844-86.199219-20.023438-106.039062-53.367188-10.613281-17.296875-14.957031-35.925781-15.855469-54.925781-11.042969 3.304687-21.589844 7.171875-31.515625 11.582031.457031 20.386719 4.636719 40.433594 15.996094 58.945312 19.839843 33.34375 59.410156 53.273438 106.039062 53.367188h.097657.097656c29.777344-.058594 56.667968-8.222656 77.386718-22.789062-14.097656 4.660156-29.613281 7.152343-46.011718 7.1875zm0 0" fill="#cfd1d5"/><path d="m122.179688 0c-58.527344 0-106.144532 45.960938-106.144532 102.453125v7.121094c0 24.964843 9.308594 48.675781 25.984375 67.179687v-6.4375c0-1.476562.730469-2.851562 1.957031-3.679687.734376-.492188 1.597657-.753907 2.488282-.753907.570312 0 1.128906.105469 1.660156.316407l54.765625 21.957031.46875-.476562c5.007813-5.074219 11.691406-7.871094 18.820313-7.871094 7.132812 0 13.816406 2.796875 18.824218 7.871094l.46875.476562 54.769532-21.960938c.527343-.207031 1.082031-.316406 1.65625-.316406.890624 0 1.75.261719 2.488281.761719 1.222656.824219 1.953125 2.199219 1.953125 3.675781v6.441406c16.679687-18.496093 25.984375-42.210937 25.984375-67.183593v-7.121094c0-56.492187-47.613281-102.453125-106.144531-102.453125zm0 0" fill="#fb8276"/><path d="m164.488281 169.433594c-1.917969 0-3.839843-.4375-5.621093-1.328125-9.960938-4.980469-20.589844-7.507813-31.59375-7.507813h-10.1875c-11.003907 0-21.632813 2.523438-31.59375 7.507813-1.78125.890625-3.703126 1.328125-5.621094 1.328125-2.785156 0-5.554688-.929688-7.828125-2.734375-17.863281-14.191407-28.105469-35.011719-28.105469-57.125v-7.121094c0-41.03125 35.097656-74.414063 78.242188-74.414063 43.144531 0 78.242187 33.382813 78.242187 74.414063v7.121094c0 22.113281-10.242187 42.933593-28.105469 57.125-2.273437 1.804687-5.042968 2.734375-7.828125 2.734375zm0 0" fill="#c5ccd3"/><path d="m75.820312 109.574219v-7.121094c0-15.5 5.015626-29.902344 13.578126-41.832031v-25.707032c-26.8125 11.816407-45.460938 37.640626-45.460938 67.539063v7.121094c0 22.113281 10.246094 42.933593 28.109375 57.125 2.273437 1.804687 5.039063 2.734375 7.828125 2.734375 1.914062 0 3.839844-.4375 5.621094-1.328125 4.523437-2.261719 9.183594-4.011719 13.953125-5.253907-15.082031-13.976562-23.628907-33.085937-23.628907-53.277343zm0 0" fill="#b1b7bd"/><path d="m122.179688 28.039062c-11.703126 0-22.804688 2.476563-32.78125 6.871094v26.5625c0 3.875 3.121093 7.011719 6.972656 7.011719h51.617187c3.855469 0 6.976563-3.136719 6.976563-7.011719v-26.5625c-9.980469-4.394531-21.082032-6.871094-32.785156-6.871094zm0 0" fill="#fff"/><path d="m200.945312 165.808594c-.914062-.613282-1.976562-.929688-3.046874-.929688-.6875 0-1.375.128906-2.03125.390625l-55.175782 22.121094c4.882813 4.792969 7.917969 11.457031 7.917969 18.820313 0 7.039062-2.777344 13.441406-7.289063 18.179687l54.546876 21.867187c.65625.261719 1.34375.390626 2.03125.390626 1.070312 0 2.132812-.3125 3.046874-.933594 1.496094-1.011719 2.394532-2.695313 2.394532-4.5v-70.898438c0-1.804687-.898438-3.492187-2.394532-4.507812zm0 0" fill="#c0272d"/><path d="m95.75 206.210938c0-7.363282 3.035156-14.027344 7.917969-18.820313l-55.175781-22.121094c-.65625-.257812-1.34375-.386719-2.027344-.386719-1.070313 0-2.136719.316407-3.046875.929688-1.5 1.011719-2.394531 2.699219-2.394531 4.507812v70.894532c0 1.808594.894531 3.492187 2.394531 4.503906.910156.617188 1.976562.929688 3.046875.929688.683594 0 1.371094-.125 2.027344-.390626l54.546874-21.867187c-4.511718-4.738281-7.289062-11.136719-7.289062-18.179687zm0 0" fill="#c0272d"/><path d="m149.609375 206.210938c0-15.136719-12.28125-27.40625-27.429687-27.40625-15.152344 0-27.433594 12.269531-27.433594 27.40625 0 15.136718 12.28125 27.40625 27.433594 27.40625 15.148437 0 27.429687-12.269532 27.429687-27.40625zm0 0" fill="#f24976"/><path d="m110.484375 206.210938c0-12.402344 8.25-22.871094 19.5625-26.25-2.492187-.746094-5.132813-1.152344-7.867187-1.152344-15.148438 0-27.433594 12.269531-27.433594 27.402344 0 15.136718 12.285156 27.40625 27.433594 27.40625 2.734374 0 5.375-.40625 7.867187-1.152344-11.3125-3.378906-19.5625-13.851563-19.5625-26.253906zm0 0" fill="#d9426a"/><path d="m495.957031 382.769531c-19.839843 33.347657-59.410156 53.277344-106.039062 53.367188-.03125 0-.0625 0-.097657 0-.03125 0-.0625 0-.097656 0-46.625-.089844-86.199218-20.019531-106.039062-53.367188-11.074219-18.050781-15.316406-37.554687-15.949219-57.414062-.015625.007812-.03125.011719-.046875.019531.457031 20.386719 4.636719 62.136719 15.996094 80.652344 19.839844 33.34375 59.410156 53.273437 106.039062 53.363281h.097656.097657c46.628906-.089844 86.199219-20.019531 106.039062-53.363281 11.359375-18.511719 15.539063-60.265625 16-80.652344-.015625-.003906-.03125-.011719-.050781-.019531-.628906 19.859375-4.875 39.367187-15.949219 57.414062zm0 0" fill="#ffb98a"/><path d="m507.757812 276.902344c-5.527343-32.140625-5.527343-64.730469 0-96.875.03125-.179688.0625-.359375.09375-.542969 5.796876-36.019531 8.351563-73.875-11.894531-106.875-3.65625-6.148437-7.988281-11.835937-12.910156-17.03125 7.605469 14.03125 11.917969 29.976563 11.917969 46.875v7.121094c0 23.921875-8.785156 47.136719-24.738282 65.363281l-.246093.28125v65.996094c0 1.472656-.734375 2.84375-1.957031 3.671875-.734376.496093-1.59375.761719-2.488282.761719-.574218 0-1.128906-.105469-1.65625-.316407l-54.175781-21.71875-.464844.503907c-4.992187 5.402343-12.070312 8.5-19.417969 8.5-7.347656 0-14.425781-3.097657-19.417968-8.5l-.46875-.503907-54.171875 21.71875c-.527344.207031-1.082031.316407-1.65625.316407-.894531 0-1.753907-.261719-2.488281-.757813-1.226563-.828125-1.957032-2.203125-1.957032-3.675781v-66l-.246094-.28125c-15.953124-18.230469-24.738281-41.441406-24.738281-65.359375v-7.121094c0-16.898437 4.308594-32.839844 11.914063-46.867187-4.917969 5.191406-9.25 10.878906-12.90625 17.023437-20.25 33-17.691406 70.855469-11.890625 106.875.03125.179687.0625.363281.09375.542969 5.523437 32.144531 5.523437 64.734375 0 96.875-.03125.183594-.0625.363281-.09375.546875-2.601563 16.136719-4.539063 32.644531-4.074219 48.921875 34.671875-15.402344 76.738281-24.433594 122.101562-24.433594 45.363282 0 87.429688 9.03125 122.105469 24.433594.460938-16.273438-1.476562-32.785156-4.074219-48.921875-.03125-.183594-.0625-.363281-.09375-.546875zm0 0" fill="#fb8276"/><path d="m370.402344 224.117188-.46875-.503907-54.171875 21.71875c-.527344.207031-1.082031.316407-1.65625.316407-.894531 0-1.753907-.261719-2.488281-.757813-1.226563-.828125-1.957032-2.203125-1.957032-3.675781v-65.976563c-16.039062-18.195312-24.984375-41.328125-24.984375-65.664062v-7.121094c0-16.886719 4.304688-32.820313 11.898438-46.839844-4.910157 5.1875-9.238281 10.859375-12.890625 16.996094-20.25 33-17.691406 70.855469-11.890625 106.875.03125.179687.0625.363281.09375.542969 5.523437 32.144531 5.523437 64.734375 0 96.875-.03125.183594-.0625.363281-.09375.546875-1.648438 10.246093-3.035157 20.640625-3.710938 31.03125 47.8125-6.289063 87.320313-39.074219 103.460938-83.207031-.390625-.375-.773438-.757813-1.140625-1.15625zm0 0" fill="#f24976"/><path d="m303.421875 179.484375c-.8125-5.046875-1.558594-10.128906-2.1875-15.226563-10.710937-16.128906-16.558594-35.011718-16.558594-54.683593v-7.121094c0-16.886719 4.304688-32.820313 11.898438-46.839844-4.910157 5.1875-9.242188 10.859375-12.890625 16.996094-20.25 33-17.691406 70.855469-11.890625 106.875.027343.179687.058593.363281.09375.542969 5.523437 32.144531 5.523437 64.734375 0 96.875-.03125.183594-.066407.363281-.09375.546875-1.652344 10.246093-3.039063 20.640625-3.710938 31.03125 11.316407-1.488281 22.167969-4.472657 32.355469-8.730469.75-7.472656 1.792969-14.925781 2.980469-22.304688.03125-.183593.0625-.363281.09375-.546874 5.527343-32.136719 5.527343-64.730469 0-96.871094-.027344-.179688-.058594-.363282-.089844-.542969zm0 0" fill="#d9426a"/><path d="m507.757812 276.902344c-5.527343-32.140625-5.527343-64.730469 0-96.875.03125-.179688.0625-.359375.09375-.542969 5.796876-36.019531 8.351563-73.875-11.894531-106.875-3.648437-6.136719-7.980469-11.8125-12.894531-17 7.597656 14.019531 11.902344 29.957031 11.902344 46.84375v7.121094c0 24.34375-8.945313 47.476562-24.984375 65.664062v65.976563c0 1.472656-.730469 2.847656-1.957031 3.671875-.734376.5-1.59375.761719-2.484376.761719-.578124 0-1.132812-.105469-1.65625-.316407l-54.175781-21.71875-.46875.503907c-.367187.398437-.75.78125-1.140625 1.15625 16.140625 44.136718 55.648438 76.917968 103.460938 83.210937-.671875-10.394531-2.058594-20.785156-3.707032-31.035156-.03125-.183594-.0625-.363281-.09375-.546875zm0 0" fill="#f24976"/><path d="m389.820312 300.925781c-45.375 0-87.457031 9.039063-122.136718 24.449219.457031 20.386719 4.636718 40.429688 16 58.945312 19.839844 33.34375 59.410156 53.273438 106.039062 53.363282h.097656.097657c46.625-.089844 86.199219-20.019532 106.039062-53.363282 11.359375-18.511718 15.539063-38.558593 15.996094-58.945312-34.675781-15.410156-76.757813-24.449219-122.132813-24.449219zm0 0" fill="#e6e9ed"/><path d="m421.5 422.085938c-.03125 0-.0625 0-.097656 0-.03125 0-.066406 0-.097656 0-46.625-.089844-86.199219-20.023438-106.039063-53.367188-10.625-17.3125-14.964844-35.96875-15.859375-54.988281-11.117188 3.316406-21.734375 7.207031-31.71875 11.648437.457031 20.386719 4.636719 40.429688 15.996094 58.941406 19.839844 33.34375 59.410156 53.277344 106.039062 53.367188h.097656.097657c29.6875-.058594 56.503906-8.171875 77.199219-22.652344-13.996094 4.574219-29.375 7.015625-45.617188 7.050782zm0 0" fill="#cfd1d5"/><path d="m389.820312 0c-58.53125 0-106.144531 45.960938-106.144531 102.453125v7.121094c0 24.964843 9.304688 48.675781 25.984375 67.179687v-6.4375c0-1.476562.730469-2.851562 1.957032-3.679687.734374-.492188 1.59375-.753907 2.488281-.753907.566406 0 1.125.105469 1.660156.316407l54.765625 21.957031.464844-.476562c5.007812-5.074219 11.695312-7.871094 18.824218-7.871094 7.128907 0 13.8125 2.796875 18.824219 7.871094l.464844.476562 54.773437-21.960938c.523438-.207031 1.082032-.316406 1.65625-.316406.890626 0 1.75.261719 2.488282.761719 1.222656.824219 1.953125 2.199219 1.953125 3.675781v6.441406c16.675781-18.5 25.984375-42.210937 25.984375-67.183593v-7.121094c0-56.492187-47.613282-102.453125-106.144532-102.453125zm0 0" fill="#fb8276"/><path d="m432.125 169.433594c-1.914062 0-3.839844-.4375-5.621094-1.328125-9.960937-4.980469-20.585937-7.507813-31.59375-7.507813h-10.183594c-11.003906 0-21.632812 2.523438-31.59375 7.507813-1.78125.890625-3.707031 1.328125-5.621093 1.328125-2.785157 0-5.554688-.929688-7.828125-2.734375-17.863282-14.191407-28.109375-35.011719-28.109375-57.125v-7.121094c0-41.03125 35.101562-74.414063 78.246093-74.414063 43.144532 0 78.242188 33.382813 78.242188 74.414063v7.121094c0 22.113281-10.246094 42.933593-28.109375 57.125-2.269531 1.804687-5.039063 2.734375-7.828125 2.734375zm0 0" fill="#c5ccd3"/><path d="m342.636719 109.574219v-7.121094c0-15.988281 5.339843-30.808594 14.398437-42.949219v-24.589844c-26.808594 11.816407-45.457031 37.640626-45.457031 67.539063v7.121094c0 22.113281 10.242187 42.933593 28.105469 57.125 2.273437 1.804687 5.042968 2.734375 7.832031 2.734375 1.914063 0 3.835937-.4375 5.617187-1.328125 4.320313-2.160157 8.765626-3.859375 13.3125-5.089844-15.195312-13.988281-23.808593-33.171875-23.808593-53.441406zm0 0" fill="#b1b7bd"/><path d="m389.820312 28.039062c-11.703124 0-22.804687 2.476563-32.785156 6.871094v26.5625c0 3.875 3.121094 7.011719 6.976563 7.011719h51.617187c3.851563 0 6.976563-3.136719 6.976563-7.011719v-26.5625c-9.980469-4.394531-21.082031-6.871094-32.785157-6.871094zm0 0" fill="#fff"/><path d="m363.386719 206.210938c0-7.363282 3.039062-14.027344 7.921875-18.820313l-55.179688-22.121094c-.652344-.257812-1.339844-.386719-2.023437-.386719-1.074219 0-2.140625.316407-3.050781.929688-1.496094 1.011719-2.394532 2.699219-2.394532 4.507812v70.894532c0 1.808594.894532 3.492187 2.394532 4.503906.910156.617188 1.976562.929688 3.050781.929688.683593 0 1.371093-.125 2.023437-.390626l54.550782-21.867187c-4.511719-4.738281-7.292969-11.136719-7.292969-18.179687zm0 0" fill="#c0272d"/><path d="m468.582031 165.808594c-.910156-.613282-1.972656-.929688-3.042969-.929688-.6875 0-1.375.128906-2.03125.390625l-55.175781 22.121094c4.882813 4.792969 7.917969 11.457031 7.917969 18.820313 0 7.039062-2.777344 13.441406-7.289062 18.179687l54.546874 21.867187c.652344.261719 1.34375.390626 2.03125.390626 1.070313 0 2.132813-.3125 3.042969-.933594 1.5-1.011719 2.398438-2.695313 2.398438-4.5v-70.898438c0-1.804687-.898438-3.492187-2.398438-4.507812zm0 0" fill="#c0272d"/><path d="m417.25 206.210938c0-15.136719-12.28125-27.40625-27.429688-27.40625-15.152343 0-27.433593 12.269531-27.433593 27.40625 0 15.136718 12.28125 27.40625 27.433593 27.40625 15.148438 0 27.429688-12.269532 27.429688-27.40625zm0 0" fill="#f24976"/><path d="m378.328125 206.210938c0-12.363282 8.203125-22.8125 19.460937-26.222657-2.519531-.765625-5.195312-1.179687-7.96875-1.179687-15.148437 0-27.433593 12.269531-27.433593 27.402344 0 15.136718 12.285156 27.40625 27.433593 27.40625 2.773438 0 5.449219-.417969 7.96875-1.183594-11.257812-3.410156-19.460937-13.859375-19.460937-26.222656zm0 0" fill="#d9426a"/></svg>