<?xml version="1.0" encoding="utf-8"?>
<svg viewBox="41.345 74.305 83.5782 19" xmlns="http://www.w3.org/2000/svg">
  <path d="M 42.685 92.108 L 42.685 82.067 L 43.516 82.067 L 43.516 83.545 Q 43.855 82.806 44.594 82.36 Q 45.334 81.913 46.335 81.913 Q 47.351 81.913 48.136 82.375 Q 48.922 82.837 49.361 83.684 Q 49.8 84.531 49.8 85.686 Q 49.8 86.841 49.361 87.688 Q 48.922 88.535 48.136 88.997 Q 47.351 89.459 46.335 89.459 Q 45.364 89.459 44.625 89.028 Q 43.886 88.597 43.547 87.873 L 43.547 92.108 Z M 46.211 88.704 Q 47.012 88.704 47.613 88.343 Q 48.213 87.981 48.56 87.303 Q 48.906 86.625 48.906 85.686 Q 48.906 84.747 48.56 84.077 Q 48.213 83.407 47.613 83.045 Q 47.012 82.683 46.211 82.683 Q 45.426 82.683 44.818 83.045 Q 44.209 83.407 43.863 84.077 Q 43.516 84.747 43.516 85.686 Q 43.516 86.625 43.863 87.303 Q 44.209 87.981 44.818 88.343 Q 45.426 88.704 46.211 88.704 Z" style="fill: rgb(59, 59, 59);"/>
  <path d="M 52.029 89.305 L 52.029 82.067 L 52.86 82.067 L 52.86 83.607 Q 53.153 82.822 53.715 82.398 Q 54.277 81.975 55.016 81.975 Q 55.232 81.975 55.417 81.998 Q 55.601 82.021 55.709 82.067 L 55.709 82.852 Q 55.524 82.806 55.34 82.791 Q 55.155 82.775 54.955 82.775 Q 54.061 82.775 53.476 83.576 Q 52.891 84.377 52.891 85.809 L 52.891 89.305 Z" style="fill: rgb(59, 59, 59);"/>
  <path d="M 60.247 89.459 Q 59.185 89.459 58.361 89.005 Q 57.537 88.55 57.067 87.703 Q 56.597 86.856 56.597 85.686 Q 56.597 84.531 57.059 83.684 Q 57.521 82.837 58.307 82.375 Q 59.092 81.913 60.078 81.913 Q 61.125 81.913 61.872 82.337 Q 62.619 82.76 63.011 83.468 Q 63.404 84.177 63.404 85.039 Q 63.404 85.255 63.335 85.509 Q 63.266 85.763 63.189 85.917 L 57.475 85.917 Q 57.521 86.795 57.883 87.419 Q 58.245 88.042 58.861 88.373 Q 59.477 88.704 60.309 88.704 Q 61.063 88.704 61.625 88.466 Q 62.188 88.227 62.711 87.78 L 63.096 88.427 Q 62.526 88.951 61.833 89.205 Q 61.14 89.459 60.247 89.459 Z M 57.475 85.178 L 62.48 85.178 Q 62.511 85.132 62.511 85.07 Q 62.511 85.008 62.511 84.947 Q 62.511 84.285 62.234 83.776 Q 61.957 83.268 61.425 82.976 Q 60.894 82.683 60.093 82.683 Q 59.446 82.683 58.884 82.983 Q 58.322 83.284 57.953 83.838 Q 57.583 84.392 57.475 85.178 Z" style="fill: rgb(59, 59, 59);"/>
  <path d="M 67.964 89.459 Q 67.147 89.459 66.377 89.228 Q 65.607 88.997 64.884 88.535 L 65.607 86.995 Q 66.347 87.442 66.947 87.65 Q 67.548 87.857 68.01 87.857 Q 68.564 87.857 68.841 87.703 Q 69.119 87.549 69.119 87.226 Q 69.119 86.964 68.934 86.826 Q 68.749 86.687 68.272 86.61 L 67.317 86.441 Q 66.208 86.24 65.661 85.732 Q 65.115 85.224 65.115 84.392 Q 65.115 83.715 65.446 83.153 Q 65.777 82.591 66.454 82.252 Q 67.132 81.913 68.21 81.913 Q 68.995 81.913 69.719 82.129 Q 70.443 82.344 71.059 82.714 L 70.351 84.177 Q 69.858 83.915 69.311 83.715 Q 68.764 83.515 68.287 83.515 Q 67.779 83.515 67.532 83.669 Q 67.286 83.823 67.286 84.115 Q 67.286 84.315 67.448 84.439 Q 67.609 84.562 68.056 84.639 L 69.011 84.808 Q 70.12 85.008 70.705 85.54 Q 71.29 86.071 71.29 86.98 Q 71.29 88.058 70.458 88.758 Q 69.627 89.459 67.964 89.459 Z" style="fill: rgb(59, 59, 59);"/>
  <path d="M 75.402 89.459 Q 74.186 89.459 73.477 88.758 Q 72.769 88.058 72.769 86.595 L 72.769 82.067 L 74.894 82.067 L 74.894 86.271 Q 74.894 86.949 75.187 87.28 Q 75.479 87.611 76.065 87.611 Q 76.758 87.611 77.166 87.157 Q 77.574 86.702 77.574 85.84 L 77.574 82.067 L 79.699 82.067 L 79.699 89.305 L 77.682 89.305 L 77.682 88.427 Q 77.343 88.905 76.781 89.182 Q 76.219 89.459 75.402 89.459 Z" style="fill: rgb(59, 59, 59);"/>
  <path d="M 81.535 92.108 L 81.535 82.067 L 83.552 82.067 L 83.552 82.991 Q 83.891 82.498 84.476 82.206 Q 85.061 81.913 85.862 81.913 Q 86.848 81.913 87.625 82.367 Q 88.403 82.822 88.865 83.669 Q 89.327 84.516 89.327 85.686 Q 89.327 86.856 88.865 87.703 Q 88.403 88.55 87.625 89.005 Q 86.848 89.459 85.862 89.459 Q 85.107 89.459 84.553 89.205 Q 83.999 88.951 83.66 88.52 L 83.66 92.108 Z M 85.369 87.611 Q 85.893 87.611 86.301 87.38 Q 86.709 87.149 86.932 86.71 Q 87.156 86.271 87.156 85.686 Q 87.156 85.085 86.932 84.654 Q 86.709 84.223 86.301 83.992 Q 85.893 83.761 85.369 83.761 Q 84.846 83.761 84.43 83.992 Q 84.014 84.223 83.798 84.654 Q 83.583 85.085 83.583 85.686 Q 83.583 86.271 83.798 86.71 Q 84.014 87.149 84.422 87.38 Q 84.83 87.611 85.369 87.611 Z" style="fill: rgb(59, 59, 59);"/>
  <path d="M 90.785 92.108 L 90.785 82.067 L 92.802 82.067 L 92.802 82.991 Q 93.141 82.498 93.726 82.206 Q 94.311 81.913 95.112 81.913 Q 96.098 81.913 96.875 82.367 Q 97.653 82.822 98.115 83.669 Q 98.577 84.516 98.577 85.686 Q 98.577 86.856 98.115 87.703 Q 97.653 88.55 96.875 89.005 Q 96.098 89.459 95.112 89.459 Q 94.357 89.459 93.803 89.205 Q 93.249 88.951 92.91 88.52 L 92.91 92.108 Z M 94.619 87.611 Q 95.143 87.611 95.551 87.38 Q 95.959 87.149 96.182 86.71 Q 96.406 86.271 96.406 85.686 Q 96.406 85.085 96.182 84.654 Q 95.959 84.223 95.551 83.992 Q 95.143 83.761 94.619 83.761 Q 94.096 83.761 93.68 83.992 Q 93.264 84.223 93.048 84.654 Q 92.833 85.085 92.833 85.686 Q 92.833 86.271 93.048 86.71 Q 93.264 87.149 93.672 87.38 Q 94.08 87.611 94.619 87.611 Z" style="fill: rgb(59, 59, 59);"/>
  <path d="M 100.035 89.305 L 100.035 79.018 L 102.16 79.018 L 102.16 89.305 Z" style="fill: rgb(59, 59, 59);"/>
  <path d="M 104.003 89.305 L 104.003 82.067 L 106.129 82.067 L 106.129 89.305 Z M 105.066 80.958 Q 104.496 80.958 104.173 80.627 Q 103.849 80.296 103.849 79.788 Q 103.849 79.28 104.173 78.956 Q 104.496 78.633 105.066 78.633 Q 105.62 78.633 105.952 78.964 Q 106.283 79.295 106.283 79.803 Q 106.283 80.311 105.952 80.635 Q 105.62 80.958 105.066 80.958 Z" style="fill: rgb(59, 59, 59);"/>
  <path d="M 111.699 89.459 Q 110.575 89.459 109.651 89.036 Q 108.727 88.612 108.172 87.773 Q 107.618 86.933 107.618 85.686 Q 107.618 84.531 108.126 83.684 Q 108.634 82.837 109.497 82.375 Q 110.359 81.913 111.437 81.913 Q 112.531 81.913 113.354 82.313 Q 114.178 82.714 114.64 83.43 Q 115.102 84.146 115.102 85.07 Q 115.102 85.347 115.025 85.678 Q 114.948 86.009 114.825 86.24 L 109.789 86.24 Q 109.866 86.733 110.128 87.064 Q 110.39 87.395 110.852 87.565 Q 111.314 87.734 111.915 87.734 Q 112.546 87.734 113.1 87.542 Q 113.655 87.349 114.148 87.026 L 114.794 88.52 Q 114.132 88.982 113.354 89.22 Q 112.577 89.459 111.699 89.459 Z M 109.789 84.854 L 112.916 84.854 Q 112.931 84.824 112.931 84.793 Q 112.931 84.762 112.931 84.7 Q 112.931 84.346 112.777 84.092 Q 112.623 83.838 112.307 83.692 Q 111.992 83.545 111.499 83.545 Q 111.052 83.545 110.69 83.707 Q 110.328 83.869 110.097 84.161 Q 109.866 84.454 109.789 84.854 Z" style="fill: rgb(59, 59, 59);"/>
  <path d="M 119.692 89.459 Q 118.722 89.459 117.937 89.005 Q 117.151 88.55 116.689 87.696 Q 116.227 86.841 116.227 85.686 Q 116.227 84.516 116.689 83.669 Q 117.151 82.822 117.937 82.367 Q 118.722 81.913 119.692 81.913 Q 120.432 81.913 120.986 82.167 Q 121.54 82.421 121.879 82.852 L 121.879 79.018 L 124.02 79.018 L 124.02 89.305 L 122.002 89.305 L 122.002 88.381 Q 121.664 88.874 121.071 89.166 Q 120.478 89.459 119.692 89.459 Z M 120.185 87.611 Q 120.724 87.611 121.125 87.38 Q 121.525 87.149 121.756 86.71 Q 121.987 86.271 121.987 85.686 Q 121.987 85.085 121.756 84.654 Q 121.525 84.223 121.125 83.992 Q 120.724 83.761 120.185 83.761 Q 119.662 83.761 119.253 83.992 Q 118.845 84.223 118.622 84.654 Q 118.399 85.085 118.399 85.686 Q 118.399 86.271 118.622 86.71 Q 118.845 87.149 119.253 87.38 Q 119.662 87.611 120.185 87.611 Z" style="fill: rgb(59, 59, 59);"/>
</svg>
