<?xml version="1.0" encoding="utf-8"?>
<svg viewBox="41.345 74.305 83.875 19" xmlns="http://www.w3.org/2000/svg">
  <path d="M 42.5 92.108 L 42.5 82.067 L 43.901 82.067 L 43.901 83.207 Q 44.24 82.621 44.902 82.267 Q 45.565 81.913 46.458 81.913 Q 47.459 81.913 48.244 82.367 Q 49.03 82.822 49.476 83.669 Q 49.923 84.516 49.923 85.686 Q 49.923 86.841 49.476 87.688 Q 49.03 88.535 48.244 88.997 Q 47.459 89.459 46.458 89.459 Q 45.595 89.459 44.949 89.128 Q 44.302 88.797 43.948 88.242 L 43.948 92.108 Z M 46.165 88.181 Q 46.827 88.181 47.336 87.881 Q 47.844 87.58 48.136 87.018 Q 48.429 86.456 48.429 85.686 Q 48.429 84.916 48.144 84.354 Q 47.859 83.792 47.343 83.484 Q 46.827 83.176 46.165 83.176 Q 45.503 83.176 44.987 83.484 Q 44.471 83.792 44.186 84.354 Q 43.901 84.916 43.901 85.686 Q 43.901 86.456 44.186 87.018 Q 44.471 87.58 44.987 87.881 Q 45.503 88.181 46.165 88.181 Z" style="fill: rgb(255, 255, 255);"/>
  <path d="M 51.813 89.305 L 51.813 82.067 L 53.214 82.067 L 53.214 83.33 Q 53.491 82.652 54.022 82.313 Q 54.554 81.975 55.216 81.975 Q 55.432 81.975 55.609 81.998 Q 55.786 82.021 55.894 82.067 L 55.894 83.438 Q 55.678 83.391 55.47 83.368 Q 55.262 83.345 55.062 83.345 Q 54.292 83.345 53.776 83.984 Q 53.26 84.623 53.26 85.809 L 53.26 89.305 Z" style="fill: rgb(255, 255, 255);"/>
  <path d="M 60.512 89.459 Q 59.419 89.459 58.549 89.02 Q 57.679 88.581 57.17 87.742 Q 56.662 86.903 56.662 85.686 Q 56.662 84.531 57.147 83.684 Q 57.632 82.837 58.456 82.375 Q 59.28 81.913 60.297 81.913 Q 61.375 81.913 62.152 82.321 Q 62.93 82.729 63.361 83.438 Q 63.792 84.146 63.792 85.039 Q 63.792 85.301 63.723 85.609 Q 63.654 85.917 63.531 86.102 L 58.141 86.102 Q 58.218 86.779 58.541 87.257 Q 58.864 87.734 59.403 87.973 Q 59.942 88.212 60.651 88.212 Q 61.359 88.212 61.906 87.996 Q 62.453 87.78 62.961 87.38 L 63.484 88.458 Q 62.884 88.951 62.137 89.205 Q 61.39 89.459 60.512 89.459 Z M 58.141 84.978 L 62.283 84.978 Q 62.299 84.947 62.299 84.908 Q 62.299 84.87 62.299 84.824 Q 62.299 84.315 62.083 83.938 Q 61.867 83.561 61.436 83.345 Q 61.005 83.13 60.343 83.13 Q 59.819 83.13 59.365 83.353 Q 58.911 83.576 58.595 83.984 Q 58.279 84.392 58.141 84.978 Z" style="fill: rgb(255, 255, 255);"/>
  <path d="M 68.198 89.459 Q 67.382 89.459 66.612 89.228 Q 65.842 88.997 65.118 88.535 L 65.842 86.995 Q 66.581 87.442 67.182 87.65 Q 67.782 87.857 68.244 87.857 Q 68.799 87.857 69.076 87.703 Q 69.353 87.549 69.353 87.226 Q 69.353 86.964 69.168 86.826 Q 68.983 86.687 68.506 86.61 L 67.551 86.441 Q 66.442 86.24 65.896 85.732 Q 65.349 85.224 65.349 84.392 Q 65.349 83.715 65.68 83.153 Q 66.011 82.591 66.689 82.252 Q 67.366 81.913 68.444 81.913 Q 69.23 81.913 69.954 82.129 Q 70.677 82.344 71.293 82.714 L 70.585 84.177 Q 70.092 83.915 69.545 83.715 Q 68.999 83.515 68.521 83.515 Q 68.013 83.515 67.767 83.669 Q 67.52 83.823 67.52 84.115 Q 67.52 84.315 67.682 84.439 Q 67.844 84.562 68.29 84.639 L 69.245 84.808 Q 70.354 85.008 70.939 85.54 Q 71.524 86.071 71.524 86.98 Q 71.524 88.058 70.693 88.758 Q 69.861 89.459 68.198 89.459 Z" style="fill: rgb(255, 255, 255);"/>
  <path d="M 75.637 89.459 Q 74.42 89.459 73.712 88.758 Q 73.003 88.058 73.003 86.595 L 73.003 82.067 L 75.129 82.067 L 75.129 86.271 Q 75.129 86.949 75.421 87.28 Q 75.714 87.611 76.299 87.611 Q 76.992 87.611 77.4 87.157 Q 77.808 86.702 77.808 85.84 L 77.808 82.067 L 79.933 82.067 L 79.933 89.305 L 77.916 89.305 L 77.916 88.427 Q 77.577 88.905 77.015 89.182 Q 76.453 89.459 75.637 89.459 Z" style="fill: rgb(255, 255, 255);"/>
  <path d="M 81.785 92.108 L 81.785 82.067 L 83.802 82.067 L 83.802 82.991 Q 84.141 82.498 84.726 82.206 Q 85.311 81.913 86.112 81.913 Q 87.098 81.913 87.875 82.367 Q 88.653 82.822 89.115 83.669 Q 89.577 84.516 89.577 85.686 Q 89.577 86.856 89.115 87.703 Q 88.653 88.55 87.875 89.005 Q 87.098 89.459 86.112 89.459 Q 85.357 89.459 84.803 89.205 Q 84.249 88.951 83.91 88.52 L 83.91 92.108 Z M 85.619 87.611 Q 86.143 87.611 86.551 87.38 Q 86.959 87.149 87.182 86.71 Q 87.406 86.271 87.406 85.686 Q 87.406 85.085 87.182 84.654 Q 86.959 84.223 86.551 83.992 Q 86.143 83.761 85.619 83.761 Q 85.096 83.761 84.68 83.992 Q 84.264 84.223 84.048 84.654 Q 83.833 85.085 83.833 85.686 Q 83.833 86.271 84.048 86.71 Q 84.264 87.149 84.672 87.38 Q 85.08 87.611 85.619 87.611 Z" style="fill: rgb(255, 255, 255);"/>
  <path d="M 91.05 92.108 L 91.05 82.067 L 93.068 82.067 L 93.068 82.991 Q 93.406 82.498 93.992 82.206 Q 94.577 81.913 95.378 81.913 Q 96.363 81.913 97.141 82.367 Q 97.919 82.822 98.381 83.669 Q 98.843 84.516 98.843 85.686 Q 98.843 86.856 98.381 87.703 Q 97.919 88.55 97.141 89.005 Q 96.363 89.459 95.378 89.459 Q 94.623 89.459 94.069 89.205 Q 93.514 88.951 93.175 88.52 L 93.175 92.108 Z M 94.885 87.611 Q 95.408 87.611 95.817 87.38 Q 96.225 87.149 96.448 86.71 Q 96.671 86.271 96.671 85.686 Q 96.671 85.085 96.448 84.654 Q 96.225 84.223 95.817 83.992 Q 95.408 83.761 94.885 83.761 Q 94.361 83.761 93.945 83.992 Q 93.53 84.223 93.314 84.654 Q 93.098 85.085 93.098 85.686 Q 93.098 86.271 93.314 86.71 Q 93.53 87.149 93.938 87.38 Q 94.346 87.611 94.885 87.611 Z" style="fill: rgb(255, 255, 255);"/>
  <path d="M 100.316 89.305 L 100.316 79.018 L 102.441 79.018 L 102.441 89.305 Z" style="fill: rgb(255, 255, 255);"/>
  <path d="M 104.285 89.305 L 104.285 82.067 L 106.41 82.067 L 106.41 89.305 Z M 105.347 80.958 Q 104.777 80.958 104.454 80.627 Q 104.131 80.296 104.131 79.788 Q 104.131 79.28 104.454 78.956 Q 104.777 78.633 105.347 78.633 Q 105.902 78.633 106.233 78.964 Q 106.564 79.295 106.564 79.803 Q 106.564 80.311 106.233 80.635 Q 105.902 80.958 105.347 80.958 Z" style="fill: rgb(255, 255, 255);"/>
  <path d="M 111.98 89.459 Q 110.856 89.459 109.932 89.036 Q 109.008 88.612 108.454 87.773 Q 107.899 86.933 107.899 85.686 Q 107.899 84.531 108.407 83.684 Q 108.916 82.837 109.778 82.375 Q 110.64 81.913 111.718 81.913 Q 112.812 81.913 113.636 82.313 Q 114.46 82.714 114.922 83.43 Q 115.384 84.146 115.384 85.07 Q 115.384 85.347 115.307 85.678 Q 115.23 86.009 115.106 86.24 L 110.071 86.24 Q 110.148 86.733 110.409 87.064 Q 110.671 87.395 111.133 87.565 Q 111.595 87.734 112.196 87.734 Q 112.827 87.734 113.382 87.542 Q 113.936 87.349 114.429 87.026 L 115.076 88.52 Q 114.413 88.982 113.636 89.22 Q 112.858 89.459 111.98 89.459 Z M 110.071 84.854 L 113.197 84.854 Q 113.212 84.824 113.212 84.793 Q 113.212 84.762 113.212 84.7 Q 113.212 84.346 113.058 84.092 Q 112.904 83.838 112.588 83.692 Q 112.273 83.545 111.78 83.545 Q 111.333 83.545 110.971 83.707 Q 110.61 83.869 110.379 84.161 Q 110.148 84.454 110.071 84.854 Z" style="fill: rgb(255, 255, 255);"/>
  <path d="M 119.974 89.459 Q 119.003 89.459 118.218 89.005 Q 117.433 88.55 116.971 87.696 Q 116.509 86.841 116.509 85.686 Q 116.509 84.516 116.971 83.669 Q 117.433 82.822 118.218 82.367 Q 119.003 81.913 119.974 81.913 Q 120.713 81.913 121.267 82.167 Q 121.822 82.421 122.16 82.852 L 122.16 79.018 L 124.301 79.018 L 124.301 89.305 L 122.284 89.305 L 122.284 88.381 Q 121.945 88.874 121.352 89.166 Q 120.759 89.459 119.974 89.459 Z M 120.466 87.611 Q 121.005 87.611 121.406 87.38 Q 121.806 87.149 122.037 86.71 Q 122.268 86.271 122.268 85.686 Q 122.268 85.085 122.037 84.654 Q 121.806 84.223 121.406 83.992 Q 121.005 83.761 120.466 83.761 Q 119.943 83.761 119.535 83.992 Q 119.127 84.223 118.903 84.654 Q 118.68 85.085 118.68 85.686 Q 118.68 86.271 118.903 86.71 Q 119.127 87.149 119.535 87.38 Q 119.943 87.611 120.466 87.611 Z" style="fill: rgb(255, 255, 255);"/>
</svg>
