<svg enable-background="new 0 0 32 32" height="512" viewBox="0 0 32 32" width="512" xmlns="http://www.w3.org/2000/svg"><g id="Count_x2C__gesture_x2C__hand_x2C__four"><g><g><path d="m25.72 21.89-1.07-3.93c-.24-.87-1.03-1.48-1.93-1.47h-.96l3.46-11.55c.26-.84-.21-1.75-1.06-2.03-.83-.28-1.75.15-2.07.98l-3.44 10.73v-11.35c0-.84-.58-1.62-1.41-1.75-1.06-.17-1.97.64-1.97 1.67v11.46l-3.5-10.76c-.32-.82-1.24-1.26-2.08-.98-.85.28-1.32 1.19-1.05 2.03l3.08 10.89-4.79-7.78c-.49-.74-1.48-.96-2.24-.51-.77.46-1.04 1.45-.59 2.21l4.39 7.71-.01 6.82c0 3.44 2.79 6.22 6.22 6.22h4.06c2.22 0 4.25-1.22 5.29-3.17l1.33-2.49c.49-.91.61-1.96.34-2.95z" fill="#ffd869"/></g><g><g><path d="m25.72 21.89-.5-1.5c.27.98-.35 2.04-.83 2.94l-1.61 3.02c-.87 1.63-2.57 2.65-4.41 2.65h-4.67c-1.83 0-3.48-.8-4.62-2.06 1 2.11 3.14 3.56 5.62 3.56h4.06c2.22 0 4.25-1.22 5.29-3.17l1.33-2.49c.49-.91.61-1.96.34-2.95z" fill="#f2c34e"/></g></g><g><path d="m5.51 8.36 4.33 7.27c.43.74 1.38.97 2.09.51l-5-8.09c-.49-.74-1.48-.96-2.24-.51-.06.04-.12.08-.17.13.39.09.75.33.99.69z" fill="#f2c34e"/></g><g><g><path d="m10.32 3.89 3.22 10.12c.26.81 1.14 1.24 1.94.95l-3.71-11.07c-.32-.82-1.24-1.26-2.08-.98-.07.02-.13.06-.19.09.36.18.66.48.82.89z" fill="#f2c34e"/></g><g><path d="m17.18 3.19v10.46c0 .79.66 1.42 1.45 1.38v-11.78c0-.72-.42-1.39-1.1-1.64-.49-.18-.94-.12-1.32.06.58.27.97.84.97 1.52z" fill="#f2c34e"/></g></g><g><path d="m24.3 2.98c0 .17-.01.34-.06.51l-3 10.06c-.22.72.18 1.49.9 1.72l3.07-10.33c.24-.79-.16-1.62-.91-1.96z" fill="#f2c34e"/></g><g><path d="m14.78 26.14c-.06 0-.12-.01-.17-.03-.25-.09-.38-.37-.28-.62 1.1-2.9 3.39-4.57 6.27-4.57.27 0 .48.22.48.48s-.22.48-.48.48c-3.37 0-4.81 2.47-5.37 3.94-.07.2-.26.32-.45.32z" fill="#f2c34e"/></g><g><path d="m20.6 20.22-2.01-.32c-1.04-.14-2-.49-2.19-1.51-.27-.44-.48-.91-.61-1.42-.12.01-.24.06-.33.15-.09.1-.14.23-.13.37l.06.74c.13 1.58 1.36 2.88 2.93 3.08l1.84.24c.36-.11.06-.13.42-.15 0-.21.04-1.18.02-1.18z" fill="#f2c34e"/></g></g><g><g id="XMLID_61_"><path d="m15.75 26.15c-.06 0-.12-.01-.18-.03-.26-.1-.39-.39-.29-.65.99-2.6 2.9-4.27 5.26-4.57.27-.03.52.16.56.43s-.16.52-.43.56c-1.97.25-3.6 1.69-4.45 3.94-.08.2-.27.32-.47.32z" fill="#455a64"/></g><g id="XMLID_50_"><path d="m18.73 31h-4.03c-1.79 0-3.48-.7-4.75-1.97s-1.97-2.96-1.97-4.75v-6.11c0-.42-.11-.84-.31-1.21l-4.01-6.96c-.58-1-.23-2.29.78-2.89.99-.59 2.27-.3 2.91.66l2.91 4.73-2.1-7.42c-.35-1.08.26-2.28 1.38-2.64 1.09-.36 2.28.19 2.7 1.27l2.51 7.78v-8.22c0-1.11.79-2.08 1.83-2.24.65-.1 1.29.08 1.78.5s.77 1.02.77 1.67v8.23l2.46-7.69c.43-1.11 1.62-1.67 2.71-1.3 1.1.36 1.72 1.55 1.38 2.65l-2.96 9.91c-.08.26-.35.42-.62.34-.26-.08-.42-.36-.34-.62l2.97-9.91c.18-.59-.15-1.22-.74-1.41-.58-.19-1.22.11-1.45.68l-3.43 10.7c-.08.23-.3.38-.55.34-.24-.04-.42-.25-.42-.49v-11.44c0-.35-.15-.68-.42-.91s-.62-.33-.98-.27c-.56.09-.99.63-.99 1.26v11.38c0 .25-.18.46-.42.49-.25.04-.48-.11-.55-.34l-3.49-10.76c-.21-.54-.87-.85-1.44-.66-.59.2-.92.82-.74 1.4l3.08 10.91c.07.24-.05.49-.28.59s-.5.02-.63-.2l-4.78-7.77c-.33-.5-1.02-.66-1.56-.34s-.72 1-.42 1.53l4.01 6.96c.29.53.44 1.11.44 1.71v6.11c0 1.53.59 2.97 1.67 4.05 1.1 1.07 2.53 1.67 4.06 1.67h4.03c2.04 0 3.91-1.12 4.86-2.93l1.33-2.52c.42-.8.52-1.72.27-2.59l-1.1-3.89c-.16-.58-.84-1.09-1.44-1.09h-6.29l.02.2c.09 1.12.96 2.04 2.08 2.19l2.22.36c.24.04.42.25.42.49v1.2c0 .28-.22.5-.5.5s-.5-.22-.5-.5v-.77l-1.78-.29c-1.56-.21-2.8-1.51-2.93-3.1l-.06-.74c-.01-.14.04-.28.13-.38s.23-.16.37-.16h6.83c1.06 0 2.12.8 2.41 1.82l1.1 3.89c.32 1.12.19 2.3-.35 3.33l-1.33 2.52c-1.14 2.13-3.34 3.46-5.76 3.46z" fill="#455a64"/></g></g></g></svg>