<svg id="Capa_1" enable-background="new 0 0 512 512" height="512" viewBox="0 0 512 512" width="512" xmlns="http://www.w3.org/2000/svg"><g><path d="m415.12 0h-56.343l10.311 78.281 3.352 4.51 60.085-14.5v-5.869z" fill="#a14603"/><g><path d="m432.525 62.422s91.19 105.463 47.577 256.918c-55.338 192.173-311.053 246.406-447.28 136.292-13.364-10.802-16.605-29.877-7.845-44.66 6.583-11.109 18.767-17.642 31.666-17.029 49.869 2.369 178.963-1.421 260.111-93.634 69.78-79.296 52.335-222.028 52.335-222.028z" fill="#ffe470"/></g><g><path d="m432.525 62.422-17.405-62.422h-28.516l16.059 75.497 29.862-7.206z" fill="#6f2e01"/></g><g><path d="m432.525 62.422-30.994 7.749 22.549 106.005c36.286 172.03-123.24 321.01-292.391 273.062l-109.917-31.158c-4.312 13.368-.251 28.417 11.049 37.552 136.227 110.114 391.943 55.881 447.28-136.292 43.614-151.455-47.576-256.918-47.576-256.918z" fill="#ffd400"/></g></g></svg>