<svg id="Layer_1" enable-background="new 0 0 50 50" height="512" viewBox="0 0 50 50" width="512" xmlns="http://www.w3.org/2000/svg"><g><g><g><g enable-background="new"><g><path d="m19.9371 3.116-.043 16.556-.7077.4113.043-16.556z" fill="#bc874d"/></g><g><path d="m19.2294 3.5273-.043 16.556-.7124-.4113.043-16.556z" fill="#9e6e46"/></g><g><path d="m19.9371 3.116-.7077.4113-.7124-.4113.7077-.4113z" fill="#b27e4b"/></g></g></g><path d="m2.1737 29.0595-.4096-.238-.0326-13.8098.4096.238z" fill="#a87648"/><path d="m2.1411 15.2497-.4096-.238 16.8672-9.7321.4095.238z" fill="#a87648"/><path d="m19.0082 5.5176.0326 13.8098-16.8671 9.7321-.0326-13.8098z" fill="#bc874d"/><g><g enable-background="new"><g><path d="m2.4631 13.3861-.043 16.556-.7077.4113.0429-16.5561z" fill="#bc874d"/></g><g><path d="m1.7553 13.7973-.0429 16.5561-.7124-.4113.043-16.556z" fill="#9e6e46"/></g><g><path d="m2.4631 13.3861-.7078.4112-.7123-.4112.7077-.4113z" fill="#b27e4b"/></g></g></g></g><g><g enable-background="new"><g><path d="m1.7124 24.7564.0107 2.0463 29.0522 17.0383-.0108-2.0463z" fill="#9e6e46"/></g><g><path d="m30.7645 41.7947.0108 2.0463 18.2247-10.522-.0107-2.0463z" fill="#553b26"/></g><g><path d="m1.7124 24.7564 29.0521 17.0383 18.2248-10.522-29.0522-17.0383z" fill="#ecf0f1"/></g></g></g><g><g enable-background="new"><g><path d="m12.3862 29.6385 16.4263-9.546-.0034 1.2035-16.4263 9.5459z" fill="#b6b9ba"/></g><g><path d="m12.3862 29.6385-.0034 1.2034-9.4204-5.4388.0034-1.2035z" fill="#c4c6c6"/></g><g><path d="m2.9658 24.1996 16.4263-9.546 9.4204 5.4389-16.4263 9.546z" fill="#ecf0f1"/></g><g><path d="m12.3869 29.4083 16.4263-9.546 18.2402 10.6591-16.4263 9.5459z" fill="#e5bd13"/></g><g><path d="m30.6271 40.0673 16.4263-9.5459-.0047 1.6638-16.4263 9.546z" fill="#b1920f"/></g><g><path d="m30.6271 40.0673-.0047 1.6639-18.2402-10.6591.0006-.2302.0034-1.2034.0007-.2302z" fill="#c6a51a"/></g></g></g><g><g><g enable-background="new"><g><path d="m48.9893 22.3823-.043 14.2316-.7078.4113.043-14.2316z" fill="#bc874d"/></g><g><path d="m48.2815 22.7936-.043 14.2316-.7123-.4113.0429-14.2316z" fill="#9e6e46"/></g><g><path d="m48.9893 22.3823-.7078.4113-.7124-.4113.7078-.4112z" fill="#b27e4b"/></g></g></g><path d="m31.2258 46.0014-.4096-.238-.0325-11.4854.4095.238z" fill="#a87648"/><path d="m31.1932 34.516-.4095-.238 16.8671-9.7321.4096.238z" fill="#a87648"/><path d="m48.0604 24.7839.0326 11.4854-16.8672 9.7321-.0326-11.4854z" fill="#bc874d"/><g><g enable-background="new"><g><path d="m31.5152 32.6524-.043 14.2316-.7077.4113.043-14.2316z" fill="#bc874d"/></g><g><path d="m30.8075 33.0637-.043 14.2316-.7124-.4113.043-14.2316z" fill="#9e6e46"/></g><g><path d="m31.5152 32.6524-.7077.4113-.7124-.4113.7078-.4113z" fill="#b27e4b"/></g></g></g></g><g><path d="m22.5737 17.2862c.0062 1.1013-.3955 1.5725-1.0346 1.8053-.6389.2329-9.8099 5.4821-9.8099 5.4821s-.6974.5613-1.5842.3563c-.8879-.2303-3.5228-1.8234-5.7494-4.7391-2.2265-2.9159-1.7294-3.9676-.7797-4.4917l.584-.3302.025-.0013 10.9293-6.1151s.8224-.5676 1.42.3532c.6226.9196 1.3957 2.3323 2.0505 2.8998.6799.566 3.9442 3.7044 3.949 4.7807z" fill="#ecf0f1"/><path d="m22.5785 17.2874c0 1.1-.4 1.57-1.04 1.8-.64.24-9.8101 5.49-9.8101 5.49s-.4399.35-1.05.39c-.16.01-.34 0-.53-.04-.89-.23-3.53-1.82-5.75-4.74-2.23-2.91-1.73-3.96-.78-4.4901l.58-.33h.03s.84.78 1.3101 2.14c.4399 1.35 2.87 3.35 2.87 3.35s2.8199 1.81 2.99 2.68z" fill="#d4d6d6"/></g><path d="m22.5785 17.2874c0 1.1-.4 1.57-1.04 1.8-.64.24-9.8101 5.49-9.8101 5.49s-.4399.35-1.05.39c.98-.78.72-1.43.72-1.43z" fill="#c4c6c6"/></g></svg>