<svg id="Capa_1" enable-background="new 0 0 512 512" height="512" viewBox="0 0 512 512" width="512" xmlns="http://www.w3.org/2000/svg"><g><g><g><path d="m365.898 369.085 47.836 86.504c8.808 15.928 3.036 35.981-12.892 44.789-15.928 8.808-35.981 3.036-44.789-12.892l-47.836-86.504c-8.808-15.928-3.036-35.981 12.892-44.789 15.928-8.809 35.981-3.037 44.789 12.892z" fill="#ffddcf"/><path d="m304.336 381.156c-.79 6.622.407 13.544 3.881 19.826l47.836 86.504c8.808 15.928 28.861 21.7 44.789 12.892 15.683-8.672 21.509-28.242 13.279-44.047-44.927-11.416-83.584-38.535-109.785-75.175z" fill="#ffcbbe"/></g><path d="m369.085 365.898 86.504 47.836c15.928 8.808 35.981 3.036 44.789-12.892 8.808-15.928 3.036-35.981-12.892-44.789l-86.504-47.836c-15.928-8.808-35.981-3.036-44.789 12.892-8.809 15.928-3.037 35.981 12.892 44.789z" fill="#ffddcf"/><path d="m286.237 355.852-63.74 63.74c-11.737 11.737-30.766 11.737-42.503 0-11.737-11.737-11.737-30.766 0-42.503l63.74-63.74c11.737-11.737 30.766-11.737 42.503 0 11.737 11.738 11.737 30.767 0 42.503z" fill="#ffcbbe"/><path d="m419.593 222.497-63.74 63.74c-11.737 11.737-30.766 11.737-42.503 0-11.737-11.737-11.737-30.766 0-42.503l63.74-63.74c11.737-11.737 30.766-11.737 42.503 0 11.737 11.737 11.737 30.766 0 42.503z" fill="#ffddcf"/><g><path d="m457.734 301.978c-32.152 58.509-97.246 123.603-155.755 155.755-5.957 3.289-11.558-.663-13.051-8.094-9.359-46.891-34.8-81.215-58.723-111.239 47.69-28.226 79.97-60.507 108.196-108.196 30.024 23.923 64.347 49.363 111.239 58.723 7.431 1.493 11.382 7.094 8.094 13.051z" fill="#ffbfc7"/><path d="m272.518 308.938c-12.719 10.521-26.684 20.213-42.314 29.463 23.923 30.024 49.363 64.347 58.723 111.239 1.493 7.431 7.094 11.383 13.051 8.094 15.485-8.509 31.428-19.343 47.103-31.734-38.485-27.656-66.406-69.078-76.563-117.062z" fill="#ff8e9e"/></g><path d="m68.539 171.175c38.897 0 70.43 31.533 70.43 70.43s-31.532 70.43-70.43 70.43-61.039-31.533-61.039-70.43 22.142-70.43 61.039-70.43z" fill="#ac6757"/><ellipse cx="262.327" cy="317.472" fill="#ffce71" rx="42.314" ry="29.221" transform="matrix(.875 -.484 .484 .875 -120.871 166.597)"/><ellipse cx="317.472" cy="262.327" fill="#fce3a0" rx="42.314" ry="29.221" transform="matrix(.484 -.875 .875 .484 -65.726 413.203)"/><path d="m312.035 68.539c0 38.897-31.533 70.43-70.43 70.43s-70.43-31.532-70.43-70.43 31.532-61.039 70.43-61.039 70.43 22.142 70.43 61.039z" fill="#bd7669"/><g><path d="m301.237 121.814c-7.46-7.46-15.621-13.788-24.266-19.001v10.649h-124.433v26.76h-36.126v139.152h-12.115c4.917 7.756 10.752 15.098 17.517 21.863 49.546 49.546 116.596 36.266 166.142-13.28s62.827-116.596 13.281-166.143z" fill="#ffddcf"/><path d="m144.219 222.51h-33.829v56.865h-6.095c4.917 7.756 10.754 15.097 17.519 21.863 44.675 44.675 103.578 38.264 151.052.251-54.954-3.125-102.451-34.077-128.647-78.979z" fill="#ffcbbe"/></g><g><path d="m121.814 121.814c-1.634 1.634-3.207 3.305-4.734 5.004v136.5h18.481c26.23-30.534 32.74-72.172 19.535-108.222 38.521 14.11 83.423 5.714 114.34-25.202 6.493-6.493 11.988-13.606 16.495-21.145-49.605-36.004-119.398-31.653-164.117 13.065z" fill="#ce857a"/><path d="m122.577 142.275c0-7.737.562-15.342 1.627-22.785-.804.763-1.602 1.536-2.39 2.324-44.719 44.719-49.069 114.512-13.065 164.117 7.539-4.507 14.651-10.002 21.145-16.496 10.004-10.004 17.634-21.477 22.923-33.719-19.019-26.259-30.24-58.537-30.24-93.441z" fill="#bd7669"/></g><g fill="#ffa1ac"><ellipse cx="184.891" cy="290.545" rx="27.566" ry="21.952" transform="matrix(.707 -.707 .707 .707 -151.293 215.838)"/><ellipse cx="290.545" cy="184.891" rx="27.566" ry="21.952" transform="matrix(.707 -.707 .707 .707 -45.639 259.598)"/></g></g><g><path d="m491.119 349.486-40.034-22.131c4.878-7.358 9.31-14.65 13.211-21.75 2.539-4.599 2.8-9.584.735-14.036-2.34-5.046-7.413-8.688-13.922-9.993-5.343-1.067-10.704-2.394-15.935-3.943-3.971-1.177-8.145 1.09-9.321 5.061-1.177 3.972 1.089 8.145 5.061 9.321 5.665 1.678 11.471 3.115 17.252 4.27 2.115.424 3.024 1.254 3.223 1.538-.023.097-.086.282-.232.547-4.865 8.855-10.602 18.034-17.05 27.283-11.913 17.095-26.017 34.203-41.923 50.852-5.08 5.325-10.355 10.6-15.684 15.684-16.645 15.903-33.752 30.007-50.849 41.92-9.248 6.448-18.426 12.184-27.295 17.057-.254.141-.438.202-.534.225-.284-.199-1.114-1.108-1.537-3.217-4.843-24.252-14.282-47.501-28.858-71.08-3.898-6.295-8.201-12.692-13.123-19.515 8.518-.656 17.433-3.351 25.798-7.975 8.045-4.453 15.015-10.395 20.157-17.184.068-.09.134-.181.197-.273 5.443-7.3 8.492-15.192 8.944-22.735 7.545-.454 15.442-3.508 22.743-8.953.093-.064.185-.13.275-.199 6.789-5.142 12.731-12.112 17.186-20.161 4.623-8.364 7.319-17.279 7.975-25.796 6.824 4.924 13.222 9.229 19.518 13.127 6.214 3.842 12.46 7.36 18.564 10.458 1.087.552 2.246.813 3.388.813 2.735 0 5.372-1.501 6.694-4.108 1.874-3.694.399-8.208-3.295-10.082-3.057-1.551-6.156-3.224-9.27-4.99l31.716-31.716c7.098-7.098 11.007-16.531 11.007-26.563 0-10.026-3.909-19.456-11.007-26.553-14.635-14.636-38.458-14.636-53.106 0l-32.801 32.801c.076-.585.156-1.17.223-1.754 3.783-33.216-7.513-64.068-32.668-89.223-.673-.673-1.356-1.335-2.041-1.992 9.731-13.29 15.03-29.354 15.03-45.979 0-20.83-8.087-38.438-23.386-50.919-13.93-11.365-33.301-17.623-54.545-17.623-21.241 0-40.61 6.258-54.54 17.621-15.302 12.482-23.391 30.09-23.391 50.919 0 5.649.616 11.232 1.808 16.683-36.536 13.039-67.219 43.723-80.257 80.26-5.45-1.195-11.032-1.813-16.681-1.813-19.444 0-36.23 7.135-48.542 20.634-2.791 3.061-2.573 7.804.487 10.596 1.438 1.312 3.248 1.958 5.052 1.958 2.035 0 4.064-.824 5.543-2.446 9.393-10.299 22.346-15.743 37.459-15.743 4.178 0 8.309.409 12.35 1.213-9.507 38.819-.648 81.754 23.822 113.19-10.54 7.421-23.14 11.458-36.17 11.458-36.985 0-53.54-31.607-53.54-62.93 0-7.737.942-15.149 2.801-22.03 1.08-3.999-1.286-8.116-5.285-9.196-4.001-1.081-8.116 1.287-9.196 5.285-2.203 8.155-3.32 16.883-3.32 25.941 0 21.244 6.258 40.615 17.621 54.543 12.482 15.3 30.089 23.387 50.919 23.387 16.625 0 32.694-5.294 45.985-15.024.655.683 1.315 1.363 1.986 2.035 21.984 21.984 48.316 33.382 76.778 33.382 4.104 0 8.258-.238 12.445-.714.584-.067 1.169-.147 1.754-.223l-32.801 32.801c-7.092 7.091-10.997 16.521-10.997 26.553s3.906 19.462 10.997 26.553c7.094 7.095 16.526 11.002 26.558 11.002s19.463-3.907 26.558-11.002l31.718-31.718c10.885 19.221 18.124 38.257 22.055 57.94 1.304 6.503 4.946 11.576 9.992 13.916 1.987.921 4.08 1.38 6.196 1.38 2.625 0 5.288-.706 7.827-2.107 7.111-3.907 14.405-8.34 21.763-13.218l22.132 40.035c7.122 12.879 20.699 20.88 35.434 20.88 6.824 0 13.586-1.75 19.55-5.057 19.521-10.796 26.62-35.461 15.824-54.981l-29.269-52.95c2.691-2.629 5.359-5.298 7.987-7.987l52.948 29.268c6.19 3.423 12.895 5.047 19.513 5.047 14.253 0 28.096-7.537 35.466-20.863 3.311-5.971 5.061-12.733 5.061-19.557 0-14.735-8.001-28.313-20.881-35.435zm-202.826-26.124c-.054.071-.106.143-.157.216-3.873 5.045-9.157 9.501-15.293 12.897-11.062 6.114-23.468 7.908-32.381 4.681-3.578-1.294-6.264-3.278-8.022-5.91l3.708-3.708c17.36-6.742 34.358-17.409 49.906-31.436 2.131 2.357 4.585 4.31 7.334 5.829.35.193.707.372 1.065.55.323 5.161-1.822 11.133-6.16 16.881zm48.185-50.524c-3.398 6.14-7.854 11.423-12.898 15.297-.073.051-.146.104-.217.158-7.006 5.288-14.348 7.326-20.138 5.593-.896-.269-1.774-.639-2.599-1.092-1.441-.795-2.719-1.886-3.812-3.193 15.653-16.494 27.467-34.764 34.726-53.455l3.708-3.708c2.624 1.751 4.613 4.439 5.91 8.024 3.226 8.912 1.432 21.319-4.68 32.376zm45.913-87.542c8.797-8.791 23.105-8.793 31.896-.002 4.265 4.264 6.613 9.927 6.613 15.946 0 6.025-2.349 11.692-6.613 15.957l-34.298 34.298c-7.948-5.154-16.246-11.088-25.609-18.302-2.012-4.607-4.86-8.493-8.423-11.462zm-203.721-116.756c0-36.985 31.606-53.54 62.93-53.54 31.323 0 62.93 16.555 62.93 53.54 0 13.031-4.035 25.631-11.457 36.171-31.431-24.467-74.365-33.327-113.179-23.824-.807-4.04-1.224-8.169-1.224-12.347zm84.129 35.122c4.445 2.114 8.703 4.496 12.868 7.159-3.421 4.906-7.284 9.519-11.535 13.771-27.77 27.77-69.558 36.979-106.457 23.463-2.742-1.005-5.818-.325-7.883 1.739-2.065 2.065-2.744 5.141-1.739 7.883 13.517 36.9 4.307 78.687-23.463 106.457-4.251 4.251-8.864 8.114-13.771 11.535-63.039-102.215 42.892-221.882 151.98-172.007zm-58.762 220.643c-28.508 3.242-55.111-6.562-76.919-28.371-2.623-2.623-5.103-5.351-7.448-8.167 5.527-3.878 10.733-8.232 15.528-13.028 28.488-28.488 39.964-69.826 31.017-108.525 38.701 8.949 80.038-2.528 108.525-31.017 4.796-4.795 9.151-10.001 13.028-15.528 2.816 2.345 5.543 4.825 8.167 7.448 21.808 21.808 31.618 48.406 28.371 76.919-3.064 26.902-17.856 54.822-41.651 78.617s-51.717 38.588-78.618 41.652zm13.16 89.982c-4.262 4.261-9.927 6.608-15.952 6.608s-11.69-2.347-15.952-6.609c-4.258-4.258-6.604-9.921-6.604-15.946s2.345-11.688 6.604-15.947l36.438-36.438c2.972 3.568 6.857 6.414 11.461 8.424 7.216 9.364 13.149 17.663 18.303 25.609zm180.006 79.534c-3.75 2.08-7.998 3.179-12.283 3.179-9.278 0-17.825-5.035-22.306-13.138l-22.874-41.377c13.457-9.732 26.874-20.727 40.034-32.82l27.393 49.555c6.793 12.283 2.327 27.803-9.964 34.601zm96.614-96.611c-6.793 12.283-22.313 16.75-34.599 9.956l-49.554-27.392c12.094-13.163 23.089-26.579 32.82-40.034l41.376 22.873c8.105 4.482 13.14 13.029 13.14 22.307 0 4.285-1.099 8.532-3.183 12.29z"/><path d="m178.643 250.971c-2.929-2.929-7.678-2.929-10.606 0-2.929 2.929-2.929 7.678 0 10.606l7.968 7.968c1.464 1.464 3.384 2.197 5.303 2.197s3.839-.732 5.303-2.197c2.929-2.929 2.929-7.678 0-10.606z"/><path d="m261.578 168.037c-2.929-2.929-7.678-2.928-10.606 0-2.929 2.929-2.929 7.678 0 10.606l7.968 7.968c1.464 1.464 3.384 2.196 5.303 2.196s3.839-.732 5.304-2.197c2.929-2.929 2.928-7.678 0-10.606z"/><path d="m232.957 204.123c-4.132.284-7.252 3.864-6.968 7.997.258 3.76-1.117 7.439-3.773 10.096-2.656 2.656-6.337 4.034-10.096 3.773-4.135-.289-7.712 2.836-7.997 6.968-.284 4.133 2.836 7.713 6.968 7.997.645.044 1.286.066 1.927.066 7.407 0 14.536-2.93 19.803-8.197 5.723-5.723 8.687-13.643 8.131-21.73-.283-4.134-3.87-7.246-7.995-6.97z"/></g></g></svg>