<svg height="512" viewBox="0 0 58 58" width="512" xmlns="http://www.w3.org/2000/svg"><g id="Page-1" fill="none" fill-rule="evenodd"><g id="022---Mittens" fill-rule="nonzero" transform="translate(-1 -1)"><path id="Shape" d="m31.554 18.3c1.3634318.0846222 2.5894011.859192 3.2513024 2.0541789.6619013 1.194987.6681974 2.6451316.0166976 3.8458211-.4253227.7782456-1.0961825 1.3939036-1.908 1.751l-6.493 2.832h-.013z" fill="#df4d60"/><path id="Shape" d="m32.263 42.114-.008-.012-3.137-6.35c-.4690585-.9512893-.5404701-2.0500848-.1984875-3.0540843.3419827-1.0039995 1.0692715-1.8307414 2.0214875-2.2979157 1.3438369-.6656283 2.9479034-.5182924 4.148.381z" fill="#df4d60"/><path id="Shape" d="m26.229 58.365c-5.8174792.0160673-10.9842724-3.7141152-12.8-9.241-1.4821001-4.740689-.0859726-9.9107664 3.581-13.261l1.313 1.509c-3.0755625 2.8179429-4.2416937 7.1615965-2.991 11.141 1.2670687 3.7418864 4.3514088 6.5816649 8.185 7.536 3.8615059.8692312 7.9067155-.1361398 10.912-2.712l1.3 1.516c-2.6506515 2.2590746-6.0172853 3.5036659-9.5 3.512z" fill="#802d40"/><path id="Shape" d="m32.3 13.64c-.0195841.6734172-.083052 1.3448411-.19 2.01-.5625329 3.3540042-1.709976 6.5830917-3.39 9.54-.6756365 1.2354395-1.4375249 2.4217132-2.28 3.55-.5468644.7356003-1.1344489 1.4400341-1.76 2.11-1.3008598 1.4099257-2.7918676 2.631677-4.43 3.63l-10.25-3.48-7.32-6.08c-.05719308-1.917404.15829305-3.8332104.64-5.69.22559421-.8864482.49594052-1.7609017.81-2.62.48951117-1.3239444 1.07437803-2.6106515 1.75-3.85 1.56742483-3.01369969 3.65249702-5.72835535 6.16-8.02.5028683-.4490047 1.0303517-.869656 1.58-1.26 3.86-2.72 8.23-3.42 12.66-1.01s6.21 6.46 6.02 11.17z" fill="#ff5364"/><path id="Shape" d="m.26601233 29.4002678h19.99999997v3c0 1.1045695-.8954305 2-2 2h-15.99999997c-1.1045695 0-2-.8954305-2-2z" fill="#fb7b76" transform="matrix(.878 .478 -.478 .878 16.492 -1.028)"/><g fill="#f3d55b"><path id="Shape" d="m19.584 15.769c-.3525213-.0004792-.6787484-.1865343-.8586391-.4897023-.1798906-.303168-.1868666-.6786571-.0183609-.9882977l.478-.879c.2712889-.4697865.8676725-.6375909 1.3441306-.378198s.6592023.8513695.4118694 1.334198l-.478.879c-.1751973.3219379-.5124785.5222346-.879.522z"/><path id="Shape" d="m17.2 20.161c-.3526996-.0001269-.67925-.186042-.8593832-.489273-.1801332-.3032311-.1872073-.6789298-.0186168-.988727l.478-.883c.2639921-.4851822.8713178-.6644921 1.3565-.4005s.6644921.8713178.4005 1.3565l-.478.879c-.174136.3234843-.511624.5254396-.879.526z"/><path id="Shape" d="m16.872 16.57c-.166753.0002808-.3308588-.0416918-.477-.122l-.879-.478c-.4851821-.2639921-.6644921-.8713178-.4005-1.3565.2639921-.4851821.8713178-.6644921 1.3565-.4005l.879.478c.4025446.2183615.6053179.6822611.4921923 1.1260251s-.5132372.7539744-.9711923.7529749z"/><path id="Shape" d="m21.264 18.959c-.1667205.0000213-.3307628-.041935-.477-.122l-.878-.477c-.4760004-.2681867-.6486469-.8687635-.3877337-1.3487892.2609133-.4800258.8587937-.6617902 1.3427337-.4082108l.878.478c.4012776.2187649.6031746.6817477.4904414 1.1246619s-.5114057.7530364-.9684414.7533381z"/><path id="Shape" d="m11.678 11.468c-.3526996-.0001269-.67925-.186042-.8593832-.489273-.1801332-.3032311-.1872073-.6789298-.0186168-.988727l.478-.879c.2639921-.48518213.8713178-.66449207 1.3565-.40049997.4851821.2639921.6644921.87131782.4005 1.35649997l-.478.879c-.1751973.3219379-.5124785.5222346-.879.522z"/><path id="Shape" d="m9.289 15.86c-.35252128-.0004792-.67874843-.1865343-.85863906-.4897023s-.18686659-.6786571-.01836094-.9882977l.477-.878c.26818671-.4760004.86876345-.6486469 1.3487892-.3877337.4800258.2609133.6617902.8587937.4082108 1.3427337l-.478.878c-.17493249.3223244-.51226521.5230355-.879.523z"/><path id="Shape" d="m13.358 14.658c-.1665968.0000297-.3305614-.041563-.477-.121l-.881-.478c-.319666-.1675016-.5242798-.4942494-.5353937-.8549703-.011114-.360721.1729964-.6994456.4817443-.8863087.3087479-.1868632.694228-.1928714 1.0086494-.015721l.878.478c.4012776.2187649.6031746.6817477.4904414 1.1246619s-.5114057.7530364-.9684414.7533381z"/><path id="Shape" d="m27.49 20.069c-.3522214-.00067-.6781167-.186589-.8579444-.489446-.1798278-.302857-.1870661-.6779852-.0190556-.987554l.477-.879c.2681867-.4760004.8687635-.6486469 1.3487892-.3877337.4800258.2609133.6617902.8587937.4082108 1.3427337l-.477.879c-.1753683.3222533-.5131201.5226015-.88.522z"/><path id="Shape" d="m25.1 24.461c-.3526996-.0001269-.67925-.186042-.8593832-.489273-.1801332-.3032311-.1872073-.6789298-.0186168-.988727l.478-.878c.2639921-.4851821.8713178-.6644921 1.3565-.4005.4851821.2639921.6644921.8713179.4005 1.3565l-.478.878c-.1751973.3219379-.5124785.5222346-.879.522z"/><path id="Shape" d="m24.777 20.871c-.1667205.0000213-.3307628-.041935-.477-.122l-.878-.478c-.4851822-.2639921-.6644921-.8713178-.4005-1.3565s.8713178-.6644921 1.3565-.4005l.878.478c.4025446.2183615.6053179.6822611.4921923 1.1260251s-.5132372.7539744-.9711923.7529749z"/></g><path id="Shape" d="m32.3 13.64c-.0195841.6734172-.083052 1.3448411-.19 2.01-1.1734182.1063489-2.3016005-.4792128-2.89-1.5l-.67-1.16c-.1851734-.3295406-.542752-.5238768-.92-.5l-1.35.06c-1.1342265.0593881-2.2053611-.5245156-2.77-1.51l-.67-1.15c-.1822623-.33358332-.5405197-.53218254-.92-.51l-1.35.07c-1.1332157.05495877-2.2021859-.52776505-2.77-1.51l-.67-1.16c-.1852595-.33058835-.5414715-.52805371-.92-.51l-1.35.07c-1.1348154.06198723-2.2072265-.52261232-2.77-1.51l-.05-.09c.5028683-.4490047 1.0303517-.869656 1.58-1.26l.21.35c.1838681.33198273.5410263.52997261.92.51l1.36-.06c1.1325454-.06359495 2.2028115.52194921 2.76 1.51l.67 1.15c.1838681.33198273.5410263.52997261.92.51l1.36-.07c1.1304962-.05460934 2.1963495.52852052 2.76 1.51l.67 1.16c.1851734.3295406.542752.5238768.92.5l1.36-.06c1.1330902-.0660117 2.2045529.5201871 2.76 1.51l.67 1.15c.1852595.3305883.5414715.5280537.92.51z" fill="#fb7b76"/><path id="Shape" d="m26.44 28.74c-.5468644.7356003-1.1344489 1.4400341-1.76 2.11-1.159.059-.925.05-1.15.05-1.0736593-.0046644-2.0638874-.5797585-2.6-1.51l-.67-1.16c-.1879286-.3267322-.5436098-.5200371-.92-.5l-1.35.06c-1.1348154.0619872-2.2072265-.5226123-2.77-1.51l-.67-1.15c-.1807975-.3350353-.5400644-.5341941-.92-.51l-1.35.07c-1.1332157.0549588-2.2021859-.527765-2.77-1.51l-.67-1.16c-.18711987-.3287131-.54207614-.5254823-.92-.51l-1.35.07c-1.13524547.0638938-2.20859596-.5212178-2.77-1.51l-.48-.84c.22559421-.8864482.49594052-1.7609017.81-2.62l1.41 2.47c.18792862.3267322.5436098.5200371.92.5l1.35-.06c1.13578509-.0662966 2.2103231.5194624 2.77 1.51l.67 1.15c.1838681.3319827.5410263.5299726.92.51l1.35-.07c1.1348154-.0619872 2.2072265.5226123 2.77 1.51l.67 1.16c.1920571.3236745.5437332.5186253.92.51l1.35-.07c1.1352993-.0641331 2.2087679.5210429 2.77 1.51l.67 1.15c.1838681.3319827.5410263.5299726.92.51z" fill="#fb7b76"/><path id="Shape" d="m58.29 43.1c-.2838104 1.3817885-.6647562 2.7418317-1.14 4.07-.3114201.8599987-.6720148 1.7013863-1.08 2.52-.8295601 1.7321159-1.9001853 3.3380538-3.18 4.77l-9.89-.46-9.7-3.56c-.6174956-1.8163964-.9678211-3.7128701-1.04-5.63-.0515998-.9127079-.0482604-1.827693.01-2.74.0781434-1.4084696.2619942-2.809078.55-4.19.6265172-3.3414303 1.827639-6.5489332 3.55-9.48.3496999-.5758927.7337269-1.1302273 1.15-1.66 2.9-3.72 6.87-5.66 11.81-4.65s7.83 4.36 9.02 8.93c.1707391.6518885.3042878 1.3129546.4 1.98.4351196 3.3678026.2794533 6.7856928-.46 10.1z" fill="#ff5364"/><path id="Shape" d="m46.514 36.8c-.3003227.0000613-.5847717-.1348558-.7747362-.3674654s-.2653283-.5382796-.2052638-.8325346l.2-.98c.0640376-.3573141.3166812-.6518645.6600768-.769566s.7236082-.0400675.9933741.2028329c.2697658.2429004.3867143.6129162.3055491.9667331l-.2.98c-.0949785.4652983-.5041071.799622-.979.8z" fill="#f3d55b"/><path id="Shape" d="m45.509 41.7c-.3003227.0000613-.5847717-.1348558-.7747362-.3674654s-.2653283-.5382796-.2052638-.8325346l.2-.98c.0640376-.3573141.3166812-.6518645.6600768-.769566s.7236082-.0400675.9933741.2028329c.2697658.2429004.3867143.6129162.3055491.9667331l-.2.98c-.0949785.4652983-.5041071.799622-.979.8z" fill="#f3d55b"/><path id="Shape" d="m49.051 39.362c-.3996062-.0401826-.7950459-.114453-1.182-.222-.5291594-.1213886-.8648051-.6428122-.7561928-1.174741s.6218031-.880032 1.1561928-.784259l.98.2c.5034786.1022344.8475737.5693469.7959422 1.0804992-.0516316.5111523-.4821891.9000171-.9959422.8995008z" fill="#f3d55b"/><path id="Shape" d="m44.153 38.357c-.3995917-.0402839-.7950228-.1145527-1.182-.222-.5291594-.1213886-.8648051-.6428122-.7561928-1.174741s.6218031-.880032 1.1561928-.784259l.979.2c.5034786.1022344.8475737.5693469.7959422 1.0804992-.0516316.5111523-.4821891.9000171-.9959422.8995008z" fill="#f3d55b"/><path id="Shape" d="m55.331 38.609c-.3004978.0003619-.5852286-.1344274-.7754202-.3670777-.1901916-.2326504-.2656796-.5384957-.2055798-.8329223l.2-.98c.0640376-.3573141.3166812-.6518645.6600768-.769566s.7236082-.0400675.9933741.2028329c.2697658.2429004.3867143.6129162.3055491.9667331l-.2.979c-.0944892.4653283-.5031761.8000504-.978.801z" fill="#f3d55b"/><path id="Shape" d="m54.325 43.507c-.3003227.0000613-.5847717-.1348558-.7747362-.3674654s-.2653283-.5382796-.2052638-.8325346l.2-.98c.1213886-.5291594.6428122-.8648051 1.174741-.7561928s.880032.6218031.784259 1.1561928l-.2.979c-.0945646.4656958-.5038002.800525-.979.801z" fill="#f3d55b"/><path id="Shape" d="m52.969 40.166c-.3992508-.0403688-.7943426-.1146367-1.181-.222-.3573141-.0640376-.6518645-.3166812-.769566-.6600768s-.0400675-.7236082.2028329-.9933741c.2429004-.2697658.6129162-.3867143.9667331-.3055491l.979.2c.50114.1043352.8425766.5702647.791107 1.0795563s-.4792249.8974857-.991107.8994437z" fill="#f3d55b"/><path id="Shape" d="m37.7 34.99c-.3004978.0003619-.5852286-.1344274-.7754202-.3670777-.1901916-.2326504-.2656796-.5384957-.2055798-.8329223l.2-.979c.0640376-.3573141.3166812-.6518645.6600768-.769566s.7236082-.0400675.9933741.2028329c.2697658.2429004.3867143.6129162.3055491.9667331l-.2.979c-.0949028.4649308-.5034829.7991477-.978.8z" fill="#f3d55b"/><path id="Shape" d="m36.693 39.888c-.3004978.0003619-.5852286-.1344274-.7754202-.3670777-.1901916-.2326504-.2656796-.5384957-.2055798-.8329223l.2-.979c.0640376-.3573141.3166812-.6518645.6600768-.769566s.7236082-.0400675.9933741.2028329c.2697658.2429004.3867143.6129162.3055491.9667331l-.2.979c-.0949028.4649308-.5034829.7991477-.978.8z" fill="#f3d55b"/><path id="Shape" d="m40.235 37.553c-.3995917-.0402839-.7950228-.1145527-1.182-.222-.3573141-.0640376-.6518645-.3166812-.769566-.6600768s-.0400675-.7236082.2028329-.9933741c.2429004-.2697658.6129162-.3867143.9667331-.3055491l.98.2c.5034786.1022344.8475737.5693469.7959422 1.0804992-.0516316.5111523-.4821891.9000171-.9959422.8995008z" fill="#f3d55b"/><path id="Shape" d="m58.75 33-.12.04c-.3235641.1185497-.6654024.1794713-1.01.18-.7684885-.0037029-1.5074487-.2964312-2.07-.82l-.98-.91c-.267744-.2664508-.6662296-.3523987-1.02-.22l-1.28.46c-1.0681879.3876663-2.2636709.1400582-3.09-.64l-.97-.91c-.2746734-.2611353-.6726094-.3461313-1.03-.22l-1.28.46c-1.0649888.3876351-2.2575993.13982-3.08-.64l-.98-.91c-.2758839-.2593626-.6745981-.3406538-1.03-.21l-1.27.45c-1.0662056.3919615-2.2623482.1480877-3.09-.63l-.08-.08c.3496999-.5758927.7337269-1.1302273 1.15-1.66l.3.27c.2730152.2637921.6707039.3525964 1.03.23l1.28-.46c1.0649888-.3876351 2.2575993-.13982 3.08.64l.98.91c.2758839.2593626.6745981.3406538 1.03.21l1.27-.46c1.0681879-.3876663 2.2636709-.1400582 3.09.64l.98.91c.267744.2664508.6662296.3523987 1.02.22l1.28-.46c1.0681879-.3876663 2.2636709-.1400582 3.09.64l.97.91c.2746734.2611353.6726094.3461313 1.03.22l.4-.14c.1707391.6518885.3042878 1.3129546.4 1.98z" fill="#fb7b76"/><path id="Shape" d="m57.15 47.17c-.3114201.8599987-.6720148 1.7013863-1.08 2.52l-.92.34c-1.0682399.3869428-2.2633358.1394149-3.09-.64l-.97-.91c-.2758839-.2593626-.6745981-.3406538-1.03-.21l-1.28.45c-1.0649888.3876351-2.2575993.13982-3.08-.64l-.98-.9c-.2722475-.2656992-.6729591-.351288-1.03-.22l-1.28.46c-1.0649888.3876351-2.2575993.13982-3.08-.64l-.98-.91c-.26824-.2655364-.6661546-.3513611-1.02-.22l-1.28.46c-1.0681879.3876663-2.2636709.1400582-3.09-.64l-.7-.66c-.0515998-.9127079-.0482604-1.827693.01-2.74l2.07 1.95c.2719464.2591424.6678038.3406425 1.02.21l1.28-.46c1.0649888-.3876351 2.2575993-.13982 3.08.64l.98.91c.2722475.2656992.6729591.351288 1.03.22l1.28-.46c1.0650587-.3866644 2.2571484-.1389574 3.08.64l.98.91c.2746734.2611353.6726094.3461313 1.03.22l1.27-.46c1.0678316-.3925383 2.265933-.1443879 3.09.64l.98.9c.267744.2664508.6662296.3523987 1.02.22z" fill="#fb7b76"/><path id="Shape" d="m34.5929531 52.402878h16c1.1045695 0 2 .8954305 2 2v3h-20v-3c0-1.1045695.8954305-2 2-2z" fill="#fb7b76" transform="matrix(-.98 -.201 .201 -.98 73.278 117.248)"/></g></g></svg>