<?xml version="1.0" encoding="iso-8859-1"?>
<!-- Generator: Adobe Illustrator 19.0.0, SVG Export Plug-In . SVG Version: 6.00 Build 0)  -->
<svg version="1.1" id="Capa_1" xmlns="http://www.w3.org/2000/svg" xmlns:xlink="http://www.w3.org/1999/xlink" x="0px" y="0px"
	 viewBox="0 0 512.846 512.846" style="enable-background:new 0 0 512.846 512.846;" xml:space="preserve">
<path style="fill:#FFD15C;" d="M217.914,451.572c0,0,2.133,0,5.333,5.333c3.2,5.333,3.2,9.6,3.2,9.6l3.2,21.333
	c0,0,0,7.467-3.2,11.733c-3.2,3.2-14.933,2.133-14.933,2.133s-8.533-13.867-4.267-34.133c0,0-3.2-9.6-2.133-14.933
	C204.047,448.372,217.914,451.572,217.914,451.572z"/>
<path style="fill:#F26F5A;" d="M228.581,508.105c-2.133,4.267-11.733,6.4-17.067,3.2c-5.333-3.2-6.4-9.6-6.4-13.867
	c1.067-4.267,0-11.733,0-18.133c0-6.4,1.067-11.733,1.067-11.733s-1.067,16,1.067,22.4c2.133,5.333,8.533,5.333,13.867,5.333
	c4.267,0,7.467-3.2,7.467-5.333c0-2.133-1.067-11.733-2.133-22.4c-1.067-7.467-3.2-11.733-4.267-12.8h-1.067h2.133
	c6.4,8.533,6.4,29.867,7.467,35.2C229.647,496.372,230.714,503.838,228.581,508.105z"/>
<path style="fill:#FFD15C;" d="M303.247,457.972l1.067-3.2c0,0,1.067-4.267-1.067-7.467c-1.067-3.2,5.333-6.4,5.333-6.4
	l10.667-1.067c0,0,4.267,17.067,4.267,18.133c1.067,1.067,6.4,27.733,7.467,29.867c1.067,2.133,2.133,7.467,2.133,7.467l-10.667,6.4
	l-8.533-9.6l-4.267-8.533C310.714,483.572,298.981,464.372,303.247,457.972z"/>
<path style="fill:#425A6B;" d="M292.581,251.038c0,0,3.2,25.6,3.2,37.333c0,10.667,4.267,56.533,8.533,74.667
	c5.333,19.2,18.133,84.267,18.133,84.267s-11.733,7.467-23.467,2.133c0,0-13.867-34.133-17.067-45.867
	c-3.2-10.667-10.667-39.467-10.667-39.467s-12.8-38.4-19.2-60.8c-6.4-22.4-17.067-33.067-17.067-33.067s-3.2,5.333-4.267,12.8
	c-1.067,7.467-9.6,61.867-11.733,69.333c-2.133,7.467,1.067,96,2.133,102.4c0,0-18.133,4.267-23.467-2.133
	c0,0-5.333-24.533-8.533-38.4s-5.333-60.8-4.267-80c1.067-20.267-8.533-78.933-8.533-78.933l38.4-61.867l49.067,2.133
	L292.581,251.038z"/>
<path style="fill:#344A5E;" d="M300.047,183.838l-13.867-10.667l2.133-32l7.467-6.4c0,0-1.067,23.467,1.067,29.867
	c1.067,4.267,2.133,12.8,3.2,17.067C300.047,182.772,300.047,183.838,300.047,183.838z"/>
<g>
	<path style="fill:#F26F5A;" d="M217.914,35.572c0,0-4.267,25.6-1.067,43.733c3.2,17.067,3.2,17.067,3.2,17.067
		s14.933-28.8,14.933-32c0-3.2-7.467-29.867-8.533-29.867C227.514,35.572,217.914,35.572,217.914,35.572z"/>
	<ellipse style="fill:#F26F5A;" cx="249.914" cy="76.105" rx="19.2" ry="26.667"/>
	<path style="fill:#F26F5A;" d="M231.781,84.638c2.133,10.667,9.6,18.133,18.133,18.133c8.533,0,16-7.467,18.133-18.133
		C268.047,84.638,231.781,84.638,231.781,84.638z"/>
	<path style="fill:#F26F5A;" d="M276.581,36.638c-2.133-1.067-4.267-1.067-6.4-1.067c-8.533,0-16,7.467-16,16s7.467,16,16,16
		c2.133,0,4.267,0,6.4-1.067V36.638z"/>
</g>
<path style="fill:#FFD15C;" d="M227.514,25.972c0,0-2.133,25.6-3.2,28.8c0,3.2-8.533,18.133-8.533,18.133l-1.067,30.933l12.8,16
	l14.933,2.133l10.667-23.467c0,0-9.6-13.867-9.6-17.067s0-4.267,0-4.267s6.4,1.067,8.533,0c1.067-2.133,4.267-4.267,5.333-5.333
	c1.067-1.067,7.467-7.467,9.6-17.067c0,0,0-5.333,2.133-7.467c1.067-1.067,2.133-2.133,2.133-3.2
	c2.133-5.333,2.133-11.733,2.133-19.2l-10.667-11.733l-17.067-2.133L227.514,25.972z"/>
<path style="fill:#E8EAE8;" d="M216.847,70.772c0,0,5.333,18.133,7.467,24.533c3.2,7.467,14.933,22.4,14.933,22.4
	s10.667-22.4,10.667-32l13.867,23.467l3.2,50.133l3.2,41.6c0,0-21.333,10.667-40.533,4.267s-20.267-8.533-20.267-9.6
	c0-1.067,0-88.533,0-88.533S210.447,78.238,216.847,70.772z"/>
<g>
	<path style="fill:#344A5E;" d="M248.847,176.372c0,0,2.133,40.533,10.667,72.533c2.133,8.533,10.667,13.867,20.267,12.8
		c7.467-2.133,17.067-3.2,19.2-3.2c0,0-1.067-20.267-6.4-33.067c-5.333-11.733-10.667-55.467-9.6-60.8
		C281.914,157.172,248.847,176.372,248.847,176.372z"/>
	<path style="fill:#344A5E;" d="M196.581,180.638l-25.6,75.733c0,0,27.733,5.333,46.933,7.467c9.6,1.067,18.133-5.333,19.2-14.933
		c2.133-19.2,6.4-50.133,6.4-62.933c0-20.267-7.467-24.533-7.467-24.533L196.581,180.638z"/>
	<polygon style="fill:#344A5E;" points="175.247,91.038 175.247,100.638 198.714,156.105 225.381,159.305 233.914,149.705 
		233.914,140.105 218.981,135.838 	"/>
	<path style="fill:#344A5E;" d="M204.047,151.838c1.067,3.2,6.4,3.2,8.533,1.067l22.4-5.333l-7.467-19.2l-20.267-49.067
		c0,0-17.067,6.4-23.467,6.4c-4.267,0-6.4,2.133-8.533,4.267c6.4,6.4,17.067,18.133,20.267,26.667
		C198.714,129.438,202.981,148.638,204.047,151.838z"/>
</g>
<path style="fill:#F26F5A;" d="M257.381,19.572c0,0-7.467,1.067-11.733,4.267c-4.267,3.2-11.733,12.8-16,10.667
	c-5.333-2.133-5.333-3.2-5.333-3.2s-3.2,10.667-3.2,21.333s0,10.667,0,10.667s-5.333-16-3.2-26.667
	c2.133-10.667,6.4-25.6,14.933-30.933c9.6-5.333,19.2-6.4,25.6-5.333c6.4,2.133,7.467,7.467,11.733,9.6
	c5.333,2.133,8.533,5.333,9.6,8.533c1.067,3.2,2.133,10.667,3.2,14.933c1.067,4.267,4.267,14.933,3.2,19.2
	c0,4.267-6.4,9.6-6.4,13.867c0,4.267,10.667,21.333,14.933,24.533c4.267,3.2,2.133,25.6,1.067,33.067c0,0-2.133-3.2-4.267-5.333
	c0,0,2.133,3.2,2.133,9.6c0,0-2.133-6.4-9.6-9.6c-7.467-3.2-12.8-2.133-13.867-5.333c0,0,0,4.267,3.2,6.4
	c2.133,2.133,5.333,2.133,6.4,6.4c1.067,4.267,1.067,7.467,1.067,7.467s0-4.267-2.133-6.4c-2.133-2.133-8.533-4.267-9.6-6.4
	c-1.067-2.133-3.2-7.467-6.4-9.6c-2.133-2.133-13.867-20.267-14.933-22.4c0-2.133,10.667-18.133,13.867-22.4
	c3.2-3.2,12.8-16,13.867-18.133c1.067-3.2-4.267-6.4-5.333-9.6c0-2.133,0-5.333,0-8.533S266.981,20.638,257.381,19.572z"/>
<ellipse transform="matrix(-0.0485 -0.9988 0.9988 -0.0485 198.639 264.6045)" style="fill:#FFD15C;" cx="225.353" cy="37.688" rx="9.6" ry="4.267"/>
<path style="fill:#E8EAE8;" d="M266.981,169.972c0,0,2.133-18.133,16-17.067v13.867
	C281.914,167.838,278.714,178.505,266.981,169.972z"/>
<g>
	<path style="fill:#425A6B;" d="M216.847,70.772l-16,14.933l6.4,3.2l-4.267,5.333c0,0,34.133,53.333,38.4,67.2
		c0,0-2.133-28.8-7.467-41.6C227.514,108.105,213.647,82.505,216.847,70.772z"/>
	<path style="fill:#425A6B;" d="M212.581,152.905c-3.2,1.067-7.467,1.067-8.533-1.067c-1.067-3.2-4.267-22.4-8.533-34.133
		c-3.2-8.533-13.867-20.267-20.267-26.667c0,1.067-1.067,1.067-1.067,2.133c-2.133,3.2-4.267,35.2,0,50.133
		c4.267,14.933,17.067,39.467,19.2,41.6c2.133,2.133,8.533,2.133,12.8,2.133c4.267,0,29.867-11.733,29.867-11.733l5.333-12.8
		l20.267-23.467L212.581,152.905z"/>
</g>
<path style="fill:#67C5B8;" d="M320.314,113.438l-45.867,65.067l-1.067,1.067l-49.067-1.067c-1.067,0-2.133-1.067-1.067-3.2
	l42.667-68.267c0,0,1.067,0,1.067,0l52.267,3.2C320.314,111.305,321.381,112.372,320.314,113.438z"/>
<g>
	<path style="fill:#FFD15C;" d="M281.914,130.505l-1.067-4.267c0,0-6.4,0-5.333,8.533c0,0,0,4.267-1.067,5.333
		c-1.067,1.067-4.267,1.067-5.333,0c-1.067-1.067-5.333-3.2-5.333-3.2s-5.333-5.333-6.4-5.333c0,0-5.333-5.333-6.4-5.333
		c-2.133,0-3.2,1.067-3.2,2.133c0,1.067,3.2,4.267,4.267,5.333c1.067,2.133,7.467,8.533,8.533,9.6c0,0,2.133,3.2-2.133,1.067
		c-3.2-2.133-10.667-8.533-12.8-10.667c-2.133-2.133-4.267-5.333-6.4-5.333s-2.133,2.133-1.067,4.267
		c1.067,1.067,5.333,6.4,6.4,7.467c1.067,1.067,3.2,4.267,5.333,5.333c2.133,1.067,6.4,3.2,6.4,3.2s-4.267-1.067-6.4-2.133l-6.4-6.4
		l-4.267,1.067l5.333,9.6l2.133,2.133l5.333,1.067c0,0-5.333-1.067-7.467-2.133c-1.067-1.067-6.4-4.267-6.4-4.267
		c-2.133-1.067-4.267,0-3.2,2.133l3.2,3.2c0,0,4.267,3.2,5.333,3.2c2.133,0,7.467,2.133,9.6,2.133c0,0,6.4,3.2,8.533,5.333
		c2.133,1.067,5.333,2.133,7.467,4.267c2.133,2.133,8.533,12.8,8.533,12.8l9.6-5.333l-2.133-13.867c0,0-3.2-7.467-3.2-9.6
		c0-3.2,1.067-9.6,1.067-9.6s-1.067-5.333-1.067-6.4C282.981,132.638,282.981,131.572,281.914,130.505z"/>
	<path style="fill:#FFD15C;" d="M241.381,142.238l-2.133-1.067c0,0,0-1.067-1.067-1.067v-4.267c0,0,3.2-3.2,5.333,5.333
		L241.381,142.238z"/>
</g>
<g>
	<path style="fill:#FFFFFF;" d="M281.914,130.505c-4.267,0-1.067-4.267-1.067-4.267L281.914,130.505z"/>
	<path style="fill:#FFFFFF;" d="M237.114,130.505c0,0,1.067-1.067,2.133-2.133c0,0,2.133,2.133,3.2,3.2
		c0,1.067-1.067,2.133-2.133,2.133S237.114,130.505,237.114,130.505z"/>
	<path style="fill:#FFFFFF;" d="M248.847,127.305c0,0,1.067-1.067,2.133-1.067c1.067,0,2.133,2.133,2.133,2.133
		s-1.067,2.133-2.133,2.133C249.914,130.505,248.847,127.305,248.847,127.305z"/>
	<path style="fill:#FFFFFF;" d="M238.181,134.772c0,0,2.133,1.067,2.133,2.133c0,2.133-2.133,2.133-2.133,2.133
		S238.181,135.838,238.181,134.772z"/>
	<path style="fill:#FFFFFF;" d="M238.181,150.772c0,1.067-3.2-2.133-3.2-2.133l0,0c0-1.067,1.067-2.133,2.133-2.133
		C238.181,147.572,238.181,150.772,238.181,150.772z"/>
</g>
<path style="fill:#425A6B;" d="M282.981,153.972c0,0-1.067,22.4-16,17.067c0,0,8.533,17.067,10.667,20.267
	c2.133,3.2,6.4,6.4,8.533,6.4c2.133,0,14.933-5.333,13.867-14.933c-2.133-9.6-11.733-21.333-11.733-21.333L282.981,153.972z"/>
<path style="fill:#F26F5A;" d="M339.514,509.172c0,0-11.733,2.133-19.2-2.133c-6.4-4.267-6.4-11.733-7.467-17.067
	c-1.067-2.133-2.133-4.267-4.267-7.467l1.067,12.8h-3.2c0,0,0-14.933-4.267-23.467l0,0c-1.067-1.067-1.067-2.133-2.133-3.2
	c-2.133-5.333,0-9.6,4.267-13.867c0,0-2.133,6.4,0,11.733c2.133,5.333,7.467,14.933,9.6,19.2c1.067,5.333,7.467,8.533,12.8,8.533
	s6.4-4.267,6.4-7.467c0,0,7.467,11.733,8.533,16S339.514,509.172,339.514,509.172z"/>
<g>
</g>
<g>
</g>
<g>
</g>
<g>
</g>
<g>
</g>
<g>
</g>
<g>
</g>
<g>
</g>
<g>
</g>
<g>
</g>
<g>
</g>
<g>
</g>
<g>
</g>
<g>
</g>
<g>
</g>
</svg>
