<svg height="511pt" viewBox="1 -47 511.99962 511" width="511pt" xmlns="http://www.w3.org/2000/svg"><path d="m275.59375 120.742188c3.40625-59.746094-28.917969-110.175782-72.195312-112.644532-43.273438-2.464844-81.117188 43.96875-84.523438 103.714844-3.402344 59.746094 28.917969 110.175781 72.195312 112.644531 43.277344 2.464844 81.117188-43.96875 84.523438-103.714843zm0 0" fill="#8ed7e8"/><path d="m233.3125 18.265625c-14.269531 9.277344-32.152344 24.1875-43.929688 45.769531-8.242187 15.109375-23.78125 24.773438-40.964843 25.792969-8.175781.484375-17.527344 1.707031-27.484375 4.3125-1.019532 5.726563-1.714844 11.625-2.058594 17.664063-3.402344 59.746093 28.921875 110.179687 72.195312 112.644531 43.277344 2.464843 81.117188-43.96875 84.519532-103.714844 2.558594-44.863281-15.03125-84.476563-42.277344-102.46875zm0 0" fill="#7ac1dd"/><path d="m347.675781 169.355469c40.484375-44.066407 47.425781-103.5625 15.507813-132.886719-31.921875-29.320312-90.617188-17.371094-131.097656 26.699219-40.484376 44.066406-47.425782 103.558593-15.503907 132.882812 31.917969 29.324219 90.613281 17.371094 131.09375-26.695312zm0 0" fill="#abebf4"/><path d="m402.320312 206.8125v99.777344l91.199219-36.140625c14.636719-5.800781 14.636719-21.691407 0-27.492188zm0 0" fill="#73727c"/><path d="m453.410156 256.703125c0 84.347656-68.378906 152.730469-152.730468 152.730469-84.351563 0-152.730469-68.382813-152.730469-152.730469 0-84.351563 68.378906-152.730469 152.730469-152.730469 84.351562 0 152.730468 68.378906 152.730468 152.730469zm0 0" fill="#ffcd00"/><path d="m346.117188 402.558594c-28.234376-22.972656-52.890626-60.203125-45.4375-118.9375 11.949218-94.152344-32.417969-148.398438-55.035157-169.433594-57.15625 22.085938-97.695312 77.566406-97.695312 142.511719 0 84.351562 68.378906 152.730469 152.730469 152.730469 15.824218.003906 31.085937-2.40625 45.4375-6.871094zm0 0" fill="#ffb000"/><path d="m354.859375 113.859375c-16.84375-6.390625-35.097656-9.886719-54.179687-9.886719-5.355469 0-10.648438.277344-15.863282.8125 32.632813 43.65625 50.285156 96.429688 50.285156 151.917969 0 55.484375-17.648437 108.257813-50.285156 151.910156 5.214844.539063 10.507813.820313 15.863282.820313 19.082031 0 37.335937-3.496094 54.175781-9.890625 22.765625-43.566407 34.855469-92.28125 34.855469-142.839844-.003907-50.5625-12.089844-99.273437-34.851563-142.84375zm0 0" fill="#898890"/><path d="m272.339844 256.703125c0 68.699219-55.691406 124.390625-124.390625 124.390625s-124.390625-55.691406-124.390625-124.390625 55.691406-124.390625 124.390625-124.390625 124.390625 55.691406 124.390625 124.390625zm0 0" fill="#ffde55"/><path d="m85.410156 211.257812c-6.5625 6.566407-17.203125 6.566407-23.765625 0l-42.386719-42.386718 23.765626-23.765625 42.386718 42.386719c6.5625 6.5625 6.5625 17.203124 0 23.765624zm0 0" fill="#73727c"/><path d="m62.738281 160.960938c0 15.257812-12.367187 27.625-27.628906 27.625-15.257813 0-27.628906-12.367188-27.628906-27.625 0-15.261719 12.371093-27.628907 27.628906-27.628907 15.261719 0 27.628906 12.367188 27.628906 27.628907zm0 0" fill="#898890"/><path d="m210.488281 211.257812c6.5625 6.566407 17.203125 6.566407 23.769531 0l42.386719-42.386718-23.765625-23.765625-42.390625 42.386719c-6.5625 6.5625-6.5625 17.203124 0 23.765624zm0 0" fill="#73727c"/><path d="m288.417969 160.960938c0 15.257812-12.371094 27.625-27.628907 27.625-15.257812 0-27.628906-12.367188-27.628906-27.625 0-15.261719 12.371094-27.628907 27.628906-27.628907 15.257813 0 27.628907 12.367188 27.628907 27.628907zm0 0" fill="#898890"/><path d="m92.132812 283.621094c0-9.078125-9.242187-16.4375-20.644531-16.4375-11.398437 0-20.640625 7.359375-20.640625 16.4375s9.242188 16.4375 20.640625 16.4375c11.402344 0 20.644531-7.359375 20.644531-16.4375zm0 0" fill="#ffa6bb"/><path d="m245.050781 283.621094c0-9.078125-9.238281-16.4375-20.640625-16.4375-11.398437 0-20.640625 7.359375-20.640625 16.4375s9.242188 16.4375 20.640625 16.4375c11.402344 0 20.640625-7.359375 20.640625-16.4375zm0 0" fill="#ffa6bb"/><path d="m346.117188 402.558594c-12.820313-10.433594-24.910157-23.804688-33.578126-40.796875-7.484374 16.492187-16.753906 32.175781-27.722656 46.851562 5.214844.539063 10.507813.820313 15.863282.820313 15.820312-.003906 31.089843-2.40625 45.4375-6.875zm0 0" fill="#73727c"/><path d="m217.257812 267.488281v-12.453125c0-4.140625-3.355468-7.5-7.5-7.5-4.140624 0-7.5 3.359375-7.5 7.5v12.453125c0 4.140625 3.359376 7.5 7.5 7.5 4.144532 0 7.5-3.359375 7.5-7.5zm0 0"/><path d="m86.140625 274.988281c4.144531 0 7.5-3.359375 7.5-7.5v-12.453125c0-4.140625-3.355469-7.5-7.5-7.5-4.140625 0-7.5 3.359375-7.5 7.5v12.453125c0 4.140625 3.359375 7.5 7.5 7.5zm0 0"/><path d="m147.949219 277.757812c7.140625 0 13.742187-3.558593 17.660156-9.527343 2.277344-3.460938 1.3125-8.113281-2.148437-10.386719-1.269532-.832031-6.882813-2.992188-10.386719 2.152344-1.683594 2.464844-4.128907 2.761718-5.125 2.761718-.992188 0-3.484375-.269531-5.121094-2.761718-2.277344-3.464844-6.925781-4.425782-10.386719-2.152344-3.460937 2.273438-4.425781 6.925781-2.152344 10.386719 3.921876 5.96875 10.523438 9.527343 17.660157 9.527343zm0 0"/><path d="m496.28125 235.980469-39.542969-15.667969c-9.773437-41.9375-36.070312-77.589844-71.617187-99.726562 11.402344-35.472657 5.164062-69.402344-16.859375-89.632813-17.253907-15.851563-41.726563-21.539063-68.910157-16-14.070312 2.867187-28.011718 8.589844-41.097656 16.730469-14.507812-18.917969-33.632812-29.894532-54.429687-31.078125-22.132813-1.25-43.75 8.765625-60.875 28.230469-16.476563 18.730468-27.390625 44.65625-30.726563 72.996093-.484375 4.113281 2.457032 7.84375 6.570313 8.328125.296875.035156.59375.050782.886719.050782 3.75 0 6.992187-2.808594 7.441406-6.625 6.054687-51.425782 39.394531-90.117188 75.851562-88.003907 16.132813.917969 31.1875 9.644531 42.945313 24.695313-36.15625 27.425781-52.238281 65.808594-55.84375 91.410156-13.433594-4.519531-27.632813-6.878906-42.121094-6.878906-28.753906 0-56.363281 9.277344-79.097656 26.347656-1.625-5.625-4.648438-10.78125-8.902344-15.039062-13.695313-13.695313-35.984375-13.699219-49.679687 0-13.699219 13.695312-13.695313 35.984374 0 49.679687 5.789062 5.789063 13.113281 9.121094 20.671874 10.015625-9.742187 18.714844-14.882812 39.640625-14.882812 60.886719 0 30.964843 10.945312 61.0625 30.824219 84.746093 1.480469 1.765626 3.605469 2.675782 5.746093 2.675782 1.703126 0 3.414063-.574219 4.820313-1.753906 3.171875-2.664063 3.585937-7.394532.921875-10.566407-17.613281-20.984375-27.3125-47.65625-27.3125-75.101562 0-18.402344 4.347656-36.53125 12.601562-52.816407l12.679688 12.679688c4.738281 4.738281 19.925781 14.445312 34.371094 0 9.476562-9.476562 9.476562-24.898438 0-34.375l-16.324219-16.328125c20.769531-16.847656 46.601563-26.050781 73.5625-26.050781 26.957031 0 52.789063 9.203125 73.5625 26.050781l-16.328125 16.328125c-9.476562 9.476562-9.476562 24.898438 0 34.375 14.355469 14.355469 29.636719 4.738281 34.375 0l12.679688-12.683594c8.265624 16.292969 12.601562 34.335938 12.601562 52.820313 0 64.453125-52.4375 116.890625-116.890625 116.890625-24.5 0-47.953125-7.496094-67.824219-21.675782-3.371094-2.402343-8.054687-1.621093-10.460937 1.75-2.40625 3.371094-1.625 8.054688 1.746093 10.460938 22.429688 16.003906 48.894532 24.464844 76.539063 24.464844 17.40625 0 34.035156-3.398438 49.265625-9.550782 28.902344 24.46875 65.425781 37.890626 103.464844 37.890626 75.835937 0 139.53125-52.960938 156.054687-123.835938l39.542969-15.671875c9.695312-3.84375 15.71875-11.78125 15.71875-20.722656 0-8.933594-6.023438-16.875-15.71875-20.71875zm-475.402344-89.253907c8.058594-8.058593 21.074219-7.394531 28.464844-.003906 7.394531 7.394532 7.875 20.59375 0 28.46875s-20.617188 7.847656-28.464844 0-8.058594-20.40625 0-28.464844zm59.230469 59.230469c-3.628906 3.628907-9.53125 3.628907-13.160156 0l-14.46875-14.46875c2.675781-1.519531 5.191406-3.410156 7.46875-5.691406 2.257812-2.253906 4.15625-4.765625 5.699219-7.460937l14.457031 14.460937c3.628906 3.628906 3.628906 9.53125.003906 13.160156zm157.5-137.707031c37.621094-40.953125 91.683594-52.730469 120.503906-26.25 17.050781 15.664062 22 42.386719 13.613281 71.113281-21.421874-10.644531-45.542968-16.640625-71.046874-16.640625-34.304688 0-67.3125 10.886719-94.65625 30.941406 4.277343-20.582031 15.304687-41.441406 31.585937-59.164062zm-8.65625 137.707031c-3.628906 3.628907-9.53125 3.628907-13.160156 0-3.628907-3.628906-3.628907-9.53125 0-13.160156l14.460937-14.460937c1.539063 2.695312 3.441406 5.207031 5.695313 7.464843 2.277343 2.277344 4.796875 4.167969 7.46875 5.6875zm46.070313-59.230469c8.492187 8.492188 7.847656 20.617188 0 28.464844-7.847657 7.847656-20.632813 7.835938-28.464844 0-7.835938-7.835937-7.042969-21.425781 0-28.46875 7.039062-7.039062 19.972656-8.488281 28.464844.003906zm4.816406 109.976563c0-21.34375-5.128906-42.164063-14.890625-60.886719 7.5625-.894531 14.890625-4.226562 20.679687-10.015625 6.636719-6.636719 10.289063-15.457031 10.289063-24.839843 0-9.386719-3.652344-18.207032-10.289063-24.84375-13.699218-13.695313-35.984375-13.695313-49.679687 0v.003906c-4.253907 4.253906-7.277344 9.414062-8.902344 15.039062-4.738281-3.558594-9.6875-6.78125-14.816406-9.648437 20.179687-15.523438 43.96875-25.394531 69.128906-28.753907 30.265625 41.980469 46.242187 91.652344 46.242187 143.941407 0 52.292969-15.976562 101.960937-46.242187 143.941406-25.164063-3.359375-48.984375-13.253906-69.171875-28.785156 40.328125-22.589844 67.652344-65.738281 67.652344-115.152344zm90.828125 127.214844c8.265625-18.828125 14.675781-38.453125 19.109375-58.578125.890625-4.046875-1.667969-8.046875-5.710938-8.9375-4.042968-.898438-8.050781 1.664062-8.941406 5.710937-5.460938 24.785157-14.066406 48.773438-25.582031 71.351563-27.164063 10.128906-50.160157 8.453125-50.808594 8.445312 28.738281-42.914062 43.867187-92.824218 43.867187-145.207031s-15.128906-102.296875-43.867187-145.207031c.648437-.011719 28.894531.179687 50.8125 8.445312 21.371094 41.925782 32.664063 89.144532 32.664063 136.757813 0 12.433593-.761719 24.949219-2.261719 37.203125-.503907 4.113281 2.421875 7.855468 6.53125 8.355468.3125.039063.617187.058594.921875.058594 3.734375 0 6.96875-2.789062 7.4375-6.589844 1.570312-12.859374 2.371094-25.988281 2.371094-39.027343 0-43.878907-9.144532-87.449219-26.566407-127.226563 44.832031 24.75 75.265625 72.5 75.265625 127.226563 0 54.722656-30.425781 102.464843-75.242187 127.21875zm120.085937-120.441407-30.980468 12.277344c.742187-6.25 1.136718-12.605468 1.136718-19.054687 0-6.445313-.394531-12.800781-1.136718-19.050781l30.984374 12.28125c3.90625 1.546874 6.238282 4.078124 6.238282 6.769531.003906 2.695312-2.332032 5.226562-6.242188 6.777343zm0 0"/></svg>