<?xml version="1.0"?>
<svg xmlns="http://www.w3.org/2000/svg" viewBox="0 0 64 64" width="512" height="512"><g id="Layer_31" data-name="Layer 31"><path d="M9.847,27.518l1.4-2.441A20,20,0,0,1,28.606,15h2.788A20,20,0,0,1,48.758,25.077l1.3,2.274a4,4,0,0,0,2.815,1.961l3.442.574A8,8,0,0,1,63,37.777V41a4,4,0,0,1-4,4H5a4,4,0,0,1-4-4V34.123a4,4,0,0,1,3.03-3.88l3.314-.829A4,4,0,0,0,9.847,27.518Z" style="fill:#f8c460"/><path d="M62,42H14.877A10.877,10.877,0,0,1,4,31.123H4a3.966,3.966,0,0,1,.116-.9l-.086.021A4,4,0,0,0,1,34.122V41a4,4,0,0,0,4,4H59a4,4,0,0,0,3.892-3.108A3.974,3.974,0,0,1,62,42Z" style="fill:#faaf42"/><path d="M1,34.12V37H4l1-4H1.16A4.152,4.152,0,0,0,1,34.12Z" style="fill:#a7d0e1"/><path d="M4.591,34.636A10.715,10.715,0,0,1,4.173,33h-3c-.028.094-.053.189-.074.285-.016.072-.035.144-.047.217a4.105,4.105,0,0,0-.052.62V37H4Z" style="fill:#80bbce"/><path d="M57,33a3.995,3.995,0,0,0,4,4h1.96a7.8,7.8,0,0,0-1.56-4Z" style="fill:#a7d0e1"/><path d="M53,44a6,6,0,1,0-11.91,1H52.91A6,6,0,0,0,53,44Z" style="fill:#faaf42"/><circle cx="49" cy="43" r="6" style="fill:#7a838b"/><circle cx="49" cy="43" r="2" style="fill:#a7d0e1"/><circle cx="15" cy="43" r="6" style="fill:#7a838b"/><path d="M18,46a5.993,5.993,0,0,1-5.466-8.466,6,6,0,1,0,7.932,7.932A5.974,5.974,0,0,1,18,46Z" style="fill:#5d6972"/><path d="M52,46a5.993,5.993,0,0,1-5.466-8.466,6,6,0,1,0,7.932,7.932A5.974,5.974,0,0,1,52,46Z" style="fill:#5d6972"/><circle cx="15" cy="43" r="2" style="fill:#a7d0e1"/><path d="M27.48,18H28V28H14l.48-1.2A14.008,14.008,0,0,1,27.48,18Z" style="fill:#a7d0e1"/><path d="M18,25l.48-1.2a14,14,0,0,1,2.733-4.311A14.006,14.006,0,0,0,14.48,26.8L14,28H28V25Z" style="fill:#80bbce"/><path d="M46,28H32V18h.52a14.008,14.008,0,0,1,13,8.8Z" style="fill:#a7d0e1"/><path d="M39,22.888a.99.99,0,0,1-.538-.158c-.3-.189-.6-.366-.917-.526a1,1,0,0,1,.91-1.781q.558.285,1.084.622A1,1,0,0,1,39,22.888Z" style="fill:#fff"/><path d="M44.64,25H39a4,4,0,0,1-4-4V18.23A13.959,13.959,0,0,0,32.52,18H32V28H46l-.48-1.2A14.081,14.081,0,0,0,44.64,25Z" style="fill:#80bbce"/><path d="M56.48,28.9l-3.443-.573a2.99,2.99,0,0,1-2.111-1.471l-1.3-2.274A21.043,21.043,0,0,0,31.394,14H28.606A21.043,21.043,0,0,0,10.374,24.581l-1.4,2.441A3.016,3.016,0,0,1,7.1,28.444l-3.314.828A4.985,4.985,0,0,0,.245,32.6c-.011.026-.012.057-.021.084A4.98,4.98,0,0,0,0,34.123V41a5.006,5.006,0,0,0,5,5H8.685a6.985,6.985,0,0,0,12.63,0h21.37a6.985,6.985,0,0,0,12.63,0H59a5.006,5.006,0,0,0,5-5V37.777A8.973,8.973,0,0,0,56.48,28.9ZM60.894,34a6.976,6.976,0,0,1,.877,2H61a3.01,3.01,0,0,1-2.118-.872A3.057,3.057,0,0,1,58.172,34ZM2.01,34H3.719l-.5,2H2V34.123C2,34.081,2.009,34.041,2.01,34ZM15,48a5,5,0,1,1,5-5A5.006,5.006,0,0,1,15,48Zm34,0a5,5,0,1,1,5-5A5.006,5.006,0,0,1,49,48Zm10-4H55.92a7,7,0,1,0-13.84,0H21.92A7,7,0,1,0,8.08,44H5a3,3,0,0,1-3-3V38H4a1,1,0,0,0,.97-.757l1-4A1,1,0,0,0,5,32H2.889a2.983,2.983,0,0,1,1.383-.787l3.315-.829a5.026,5.026,0,0,0,3.128-2.37l1.395-2.441A19.04,19.04,0,0,1,28.606,16h2.788a19.04,19.04,0,0,1,16.5,9.573l1.3,2.274A4.98,4.98,0,0,0,52.708,30.3l3.443.574A7.013,7.013,0,0,1,58.959,32H57a1,1,0,0,0-1,1,4.995,4.995,0,0,0,5,5h1v3A3,3,0,0,1,59,44Z"/><path d="M34,30H32a1,1,0,0,0,0,2h2a1,1,0,0,0,0-2Z"/><path d="M15,30H13a1,1,0,0,0,0,2h2a1,1,0,0,0,0-2Z"/><path d="M49,40a3,3,0,1,0,3,3A3,3,0,0,0,49,40Zm0,4a1,1,0,1,1,1-1A1,1,0,0,1,49,44Z"/><path d="M15,40a3,3,0,1,0,3,3A3,3,0,0,0,15,40Zm0,4a1,1,0,1,1,1-1A1,1,0,0,1,15,44Z"/><path d="M28,17h-.52a14.943,14.943,0,0,0-13.929,9.429l-.48,1.2A1,1,0,0,0,14,29H28a1,1,0,0,0,1-1V18A1,1,0,0,0,28,17ZM27,27H15.479A12.943,12.943,0,0,1,27,19.009Z"/><path d="M46.448,26.428a14.918,14.918,0,0,0-3.771-5.465,1,1,0,1,0-1.354,1.472A12.9,12.9,0,0,1,44.521,27H33V19.009a13.028,13.028,0,0,1,5.537,1.468,1,1,0,0,0,.926-1.773A15.041,15.041,0,0,0,32.52,17H32a1,1,0,0,0-1,1V28a1,1,0,0,0,1,1H46a1,1,0,0,0,.929-1.371Z"/></g></svg>
