<svg id="flat" height="512" viewBox="0 0 512 512" width="512" xmlns="http://www.w3.org/2000/svg"><path d="m493.232 365.162c-.068 0-.136 0-.205 0a4.5 4.5 0 0 1 -4.294-4.7c2.308-51.575 1.067-89.487-36.13-107.539a36.584 36.584 0 0 0 -13.338-2.423 4.5 4.5 0 1 1 -.2-9 45.494 45.494 0 0 1 17.163 3.184c.06.025.119.052.176.08 19.842 9.591 32.248 25.191 37.927 47.693 5.06 20.051 4.49 43.8 3.389 68.4a4.5 4.5 0 0 1 -4.488 4.305z" fill="#5b384a"/><path d="m416 446.5c3.81 10.05 2.75 36.21 3.75 42.48-8.96 4.62-8.708 14.97-8.708 14.97h-23.442c-3.19 0-5.19-10.23 5.3-15.54-.69-5.76-3.29-24.94-6.68-34.27-1.33-3.68-16.61-14.64-22.21-37.86a23.937 23.937 0 0 1 3.761-13.7c5.168-8.141 18.608-9.506 24.1-1.583 11.353 16.361 22.339 40.772 24.129 45.503z" fill="#e5b490"/><path d="m468.49 268.62a58.972 58.972 0 0 0 -14.04-19.8 64.769 64.769 0 0 0 -37.46-16.78c-36.24 3.835-110.709 3.618-130.2.668-2.82-.43-5.632-1.688-8.612-1.988-35.11-3.6-80.29.64-109.83-.75-3.83-.18-50.279-2.659-88.35 26.707-11.02 8.5-19.5 20.49-21.27 42.983 9.36.12 19.35 1.91 28.77 9.64 18.51 15.19 34.86 50.89 40.5 60.7 21.88 38.08 54.84 64.437 56.5 73.667 1.78 9.94 8.57 37.963 9.75 44.833-8.41 4.56-6.189 15.47-3 15.47l24.579-.02a3.577 3.577 0 0 0 2.7-1.23c2.22-2.59 6.61-10.6 7.66-28.92 1.03-18.03 6.37-41.54 10.93-60.46 1.47-6.06 40.7-7.065 53.88-8.34 37.917-3.667 85 3.21 85 3.21 12.44 13.23 27.84 36.38 30.16 42.51 3.81 10.05 7.43 31.99 8.43 38.26-8.96 4.62-8.63 12.93-6.19 14.65a1.65 1.65 0 0 0 .96.32h20.41a3.6 3.6 0 0 0 2.69-1.18c2.23-2.49 6.62-9.93 7.66-27.51 1.87-31.26 16.92-72.55 18.95-80.94 6.05-25.07 12.04-47.35 14.81-67.67-1.877-19.4-5.127-35.525-5.387-58.03z" fill="#efe1c2"/><g fill="#664856"><path d="m468.49 268.62c-15.67-1.45-21.7 35.29 5.39 58.03 2.89-21.18 2.29-40.22-5.39-58.03z"/><path d="m244.24 306.75c-7.67.61-13.84 9.18-11.13 16.39 3.26 8.61 16.72 14.62 24.39 14.02s10.74-11.02 8.74-18.41c-2.01-7.43-14.32-12.6-22-12z"/><path d="m397.5 317.5c-13.48-3.57-53.5-17.85-72.83 2.5s25.01 29.49 48.33 44.67c42 27.33 57.74-38.36 24.5-47.17z"/><path d="m417.563 232.358a3 3 0 0 0 -1.216-.383c-43.8-4.365-110.062 2.771-129.457-.165-2.82-.43-5.73-.79-8.71-1.09v.04c-4.51 15.57 25.38 54.14 47.82 49.24 19.48-4.25 17.76-15.35 29.98-17.75 14-2.75 20.92 3.11 35.27-1.75 11.25-3.81 40.202-20 26.313-28.142z"/></g><path d="m193.47 446.69c1.78 9.95 5.95 34.76 7.14 41.63-6.22 2.95-11.83 12.83-5.19 15.63v.02h-17.38c-3.19 0-3.34-11.75 5.07-16.31-1.18-6.87-5.24-30.33-7.02-40.27-1.61-8.92-24.61-37.34-45.9-73.63a30.765 30.765 0 0 0 10.687 3.967 27.52 27.52 0 0 1 19.223 14.663c13.517 26.702 31.57 44.268 33.37 54.3z" fill="#e5b490"/><path d="m142.583 212.543a14.1 14.1 0 0 0 9.208 15.1 29.586 29.586 0 0 0 5.9 1.465c3.46.43 7.27.71 11.38.89 11.63 7.03 11.33 26.47 6.12 39.33s11.36 17.52 16.5 31.5c7.99 21.7-31.67 43.75-56.69 11.42-10.32-13.33-24.31-22.67-38.67-25.67-6.22-1.3-25.77-4.31-36.56 13.1-8.29-.22-16.13.98-22.71.67-29.071-1.348-36.271-23.578-25.061-37.848 9.17-11.67 40.72-32.35 52.52-49.16 5.65-8.05 12.5-12.39 20.4-14.47 6.508-1.713 14.624-2.432 21.073-.09 2.241.814 24.559 4.762 36.59 13.763z" fill="#664856"/><circle cx="69.52" cy="229.69" fill="#6d3c50" r="5"/><path d="m131.2 190c-8.921-2.066-21.466 5.561-29.368 14.163a6.012 6.012 0 0 0 1.578 9.385l27.353 14.562a6.008 6.008 0 0 0 8.291-2.822c5.283-11.588 7.013-31.848-7.854-35.288z" fill="#664856"/><path d="m376 408.21a55.629 55.629 0 0 1 -11.99 8.07 61.354 61.354 0 0 1 -15.266 5.677 2.013 2.013 0 0 0 -1.616 2.217c1.639 14.654-13.959 14.3-15.816 2.8a1.991 1.991 0 0 0 -2.129-1.638 77.59 77.59 0 0 1 -12.392-.083 2 2 0 0 0 -2.195 1.82c-.465 7.042-3.464 10.15-9.106 9.6-5.568-.534-7.3-6.223-7.822-9.13a1.975 1.975 0 0 0 -1.958-1.625c-14.022.133-45.379-7.814-58.59-12.575l.044-.182c2.764-11.394 29.671-29.161 75.856-29.161 46.313 0 62.98 24.21 62.98 24.21z" fill="#ff9280"/><path d="m29.87 299.53c-12.4-2.36-19.59-9.15-21.99-16.95a20.888 20.888 0 0 1 -.63-9.46 23.144 23.144 0 0 1 4.75-10.62c2.38-3.34 6-6.5 9.99-9.87 14.16 3.27 18.48 34.6 7.88 46.9z" fill="#ff9280"/><path d="m496.89 361.01a32.717 32.717 0 0 1 6.85 24.4c-1.54 12.14-8.33 18.14-13.93 17.73s-3.65-11.7-8.15-16.75c-4.03-4.54 1.24-18.2 7.83-25.61a4.82 4.82 0 0 1 7.4.23z" fill="#664856"/><circle cx="69.523" cy="229.689" fill="#562442" r="5"/><path d="m23.28 276.81a4.5 4.5 0 0 1 -5.13 3.77 16.409 16.409 0 0 0 -8.96 1.54 4.27 4.27 0 0 1 -1.31.46 20.888 20.888 0 0 1 -.63-9.46 25.585 25.585 0 0 1 12.26-1.44 4.5 4.5 0 0 1 3.77 5.13z" fill="#ef6060"/><path d="m125.283 202.445a53.148 53.148 0 0 0 -11.939 7.573 4.648 4.648 0 0 0 -.864 6.432 4.5 4.5 0 0 0 6.366.694 44.78 44.78 0 0 1 10.043-6.459 4.467 4.467 0 0 0 2.64-4.446 4.488 4.488 0 0 0 -6.246-3.794z" fill="#5b394a"/></svg>