<svg id="Layer_1" enable-background="new 0 0 512 512" height="512" viewBox="0 0 512 512" width="512" xmlns="http://www.w3.org/2000/svg"><g><g><g><g><path d="m374 91.2c-1.4-7.6-15.1-27.4-20.9-32.1-5.9-4.7-18.2-6.6-23.2-7.7-6.4-1.4-17.1 5.4-19.2 4.4-2.1-.9-10.5 0-10.5 0h-.5.1s-8.4-.9-10.5 0-12.8-5.8-19.2-4.4c-5 1.1-24.7 3-30.6 7.7s-13.7 28.4-15.1 36c-1.1 5.8-11.7 26.2-7.3 28.1 1.8.8 13.2 1.1 17.8.2-.1.3-.2.6-.2.9l-.1-.4s-7.1 15.5-6.8 21.5c.2 2.8 1.7 9 4.5 15.9l-8.8 25.3s-.8 2-2.1 5.2c-3.7 8.8-7.9 17.8-12.3 24.1-12.1 17.4-48.3 43.6-61.8 93.3 0 0-37.2 36.2-42 68.8s7.8 77 13.6 78.5c5.8 1.4 102 0 102 0s.2-3.2-.9-7.1h45.7c0 2.1-.1 3.9-.5 5.5h11.4 35.4 26.3 5.8c-1.1-11.6-7.3-16.8-11.4-18.9-3.8-13.4-8.3-30.2-9.1-38 0-.6-.1-1.2-.1-1.8 0 0 0 0 0-.1 0-2.2.4-6.2 1.1-11.2.2-16.6 3.5-35.9 10.5-58.6 2.7-3.8 5.5-7.8 8.3-12.1 35-53.6 20.1-136.6 19.1-142.1.1-.2.1-.5.2-.7 5.7-10.3 8.9-21.8 9.1-25.9 0 0-1-16.6 0-20.7 6 2 9.6-3.5 9.5-5.4-.2-4.9-6.3-22.4-7.3-28.2zm-73.9 348.3-6.2-1.8s-10.3-41.5-12.7-52.2c-2.5-10.6 21.8-22.7 21.8-22.7-6 18.6-2.9 76.7-2.9 76.7z" fill="#e08c5c"/></g></g></g><g><g><g><path d="m367.4 160.9s-37.3 25.8-32.6-22.6c2.6-26.7-9.2-18.5-24.1-33.6-15-15.1-.1-48.8-.1-48.8s-20 3.4-27-.3c0 0 19.5 43.9-2.6 53.8-22.2 9.9-22.9 18.7-22.6 28.2.4 10.1 4.2 45.7-24.3 28.3 0 0 13.5 16.8 14.6 25.8s-13.5 37.2 2.8 54.2 28.7 33.3 28.4 46.7 0 88.7 0 88.7 7.9-4.8 17.9-13.4c-3.1 30.8 2.4 71.7 2.4 71.7l6.2 4.7s4.2-6.2 4.4-23.9c.1-11.9 2.1-47.1 3.3-68.9 4.6-5.4 8.9-11.5 12.5-18.1 16.3-29.6 23.8-12.6 34.9-64.3 11.1-51.6-2.2-92.3-2.2-92.3z" fill="#fff"/></g></g></g><g><g><g><path d="m245.5 378.1s-9.6 19-27.6 24c0 0-15.6 27.9-39.3 33 0 0 34 .2 37.6 7.3s3.6 7.1 3.6 7.1h45.7c0-.1-9.1-56.7-20-71.4z" fill="#d1c5c1"/></g></g></g><g><g><g><path d="m295.3 142.5s-14.7 7.9-19.1 7.1c-4.4-.9-14.6-9.1-14.6-9.1s8.2 22.9 18.2 27.1c0 0-.1 32.1 18.3 30 18.4-2.2 15.5-29.7 15.5-29.7s16.4-7.3 15.9-26.2c0 0-6.6 9.2-14.4 8.1s-19.8-7.3-19.8-7.3z" fill="#b73558"/></g></g></g><g><g><g><path d="m296.8 133.6c1 .4 19.2-8.1 13.9-12.6-5.2-4.5-28.1-4.1-27.1 1.4s13.2 11.2 13.2 11.2z" fill="#5b4d60"/></g></g></g><g><g><g><path d="m227.4 274.9s-4.7 58.9-22.3 64.5c0 0 42.7 20 12.8 62.7 0 0 23.4 1 27.6-24 0 0-15-22.1-11.4-44.8 3.5-22.7-6.7-58.4-6.7-58.4z" fill="#bf6749"/></g></g></g><g><g><g><path d="m333 329.1-35.3 38.8s.5 70.3 4.6 73.3c4 3.1 9.7 16.1 9.7 16.1l32.1-2.3s-4.7-16.9-13.9-19.8c-13.8-4.5-1.6-107.6 2.8-106.1z" fill="#bf6749"/></g></g></g><g><g><g><path d="m108.3 365.5c1-2.8 32.1-37.6 59.7-31.3s51 37.2 39.6 64.3-41.4 36.5-41.4 36.5l25.7.6s12.3 7.1 13.2 22.5h-84.1c0 .1-28-48-12.7-92.6z" fill="#bf6749"/></g></g></g><g><g><g><path d="m266.4 73s-8.2 31.8-16.3 48-20.7 14.4-20.7 14.4l4.6-17.5s9.4-4.8 13.9-11.4 12-25.1 12-25.1z" fill="#bf6749"/></g></g></g><g><g><g><path d="m329.5 73s8.2 31.8 16.3 48 20.7 14.4 20.7 14.4l-4.6-17.5s-9.4-4.8-13.9-11.4-12-25.1-12-25.1z" fill="#bf6749"/></g></g></g><g><g><g><path d="m280.4 305.9s24-11.6 31.5-27.3c0 0 1.3 14.5-4 29.1 0 0 34.3-51.1 20.1-94.1 0 0 16.6 13 13.3 66.7 0 0 22.8-20 24.2-41.1 0 0-2.5 55.8-30.5 87.1 0 0-36.3 56.5-55.2 49.3z" fill="#d1c5c1"/></g></g></g><g><g><g><path d="m272.2 197.6s12.2 11.3 26 9.9 29.3-13.3 29.3-13.3-17.5 22.5-26.7 25c-9.2 2.4-28.6-21.6-28.6-21.6z" fill="#d1c5c1"/></g></g></g><g><g><g><path d="m264.6 142.5 14.4 8.4.9 15.5s-11.8-9.4-13.4-12c-1.6-2.5-1.9-11.9-1.9-11.9z" fill="#7f2d54"/></g></g></g><g><g><g><path d="m313.6 150.5 16.6-5.1s-7.2 21.5-12.5 21.1-4.7-10.9-4.1-16z" fill="#7f2d54"/></g></g></g><g><g><g><path d="" fill="#e08c5c"/></g></g></g><g><g><g><path d="m292.8 117.9s11.3 4 11.6 6.1-5.8 9.7-5.8 9.7 11.1-7.7 10.6-9.1c-.6-1.4-7.1-8.9-16.4-6.7z" fill="#fff"/></g></g></g><g><g><g><g><path d="m220.3 127.1c-2.9 0-5.3-.4-6.7-.9-1.2-.5-2.2-1.4-2.7-2.7-1.6-3.9 1-10.3 5.4-20.4 1.5-3.5 3.1-7 3.4-8.6 1.5-7.3 10.2-32.3 17.9-37.9 6.2-4.5 17.6-6.6 24.4-7.8.9-.2 1.7-.3 2.4-.4 5.1-1 11.3 1.2 16.4 3 1.6.6 3.8 1.3 4.7 1.5 2.9-.9 9.1-.4 12.7-.1 1.7.2 3 1.7 2.8 3.4s-1.7 3-3.4 2.8c-4.4-.4-9.1-.5-10.2-.2-2 .8-4.5-.1-8.6-1.5s-9.7-3.4-13.1-2.8c-.7.1-1.5.3-2.5.5-5.9 1.1-16.8 3.1-21.8 6.7-5.2 3.8-13.8 25.7-15.5 34.1-.5 2.2-1.9 5.6-3.8 9.9-1.8 4-5.3 12-5.4 14.9 5 1.1 21 0 27.2-12.7 1.2-2.4 2.4-4.9 3.6-7.4 8.3-17.3 13.8-27.9 20.4-29.5 1.7-.4 3.4.6 3.8 2.3s-.6 3.4-2.3 3.8c-4.2 1-11.1 15.5-16.2 26.1-1.2 2.5-2.4 5-3.6 7.5-6.5 12.9-20.4 16.4-29.3 16.4z" fill="#3f0f33"/></g></g></g><g><g><g><path d="m375.5 127.1c-8.9 0-22.8-3.5-29.2-16.5-1.2-2.4-2.4-5-3.6-7.5-5.1-10.6-12-25.1-16.2-26.2-1.7-.4-2.7-2.1-2.3-3.8s2.1-2.7 3.8-2.3c6.6 1.6 12.1 12.2 20.4 29.6 1.2 2.5 2.4 5 3.6 7.4 6.2 12.7 22.2 13.8 27.2 12.7-.1-2.9-3.6-10.9-5.4-14.9-1.9-4.3-3.3-7.6-3.8-9.9-1.7-8.4-10.3-30.3-15.5-34.1-5.1-3.7-16-5.7-21.8-6.7-.9-.2-1.8-.3-2.5-.5-3.4-.7-9 1.3-13.1 2.8s-6.6 2.3-8.7 1.5c-1-.3-5.8-.2-10.1.2-1.7.2-3.3-1.1-3.4-2.8-.2-1.7 1.1-3.3 2.8-3.4 3.6-.4 9.8-.8 12.7.1.9-.1 3-.9 4.7-1.5 5-1.8 11.3-4 16.4-3 .7.1 1.5.3 2.4.4 6.8 1.2 18.2 3.3 24.4 7.8 7.7 5.6 16.4 30.6 17.9 37.9.3 1.6 1.9 5.1 3.4 8.6 4.4 10.1 7 16.5 5.4 20.4-.5 1.3-1.5 2.2-2.7 2.7-1.5.6-3.9 1-6.8 1z" fill="#3f0f33"/></g></g></g><g><g><g><path d="m246.4 187.3c-.8 0-1.5-.3-2.1-.9-12.1-11.3-19.2-33.8-19.7-40.9-.4-6.4 5.8-23.8 6.5-25.7.6-1.6 2.4-2.5 4-1.9s2.5 2.4 1.9 4c-2.5 6.9-6.4 19.3-6.1 23.2.3 5.5 6.9 26.5 17.7 36.7 1.3 1.2 1.3 3.2.1 4.4-.7.8-1.5 1.1-2.3 1.1z" fill="#3f0f33"/></g></g></g><g><g><g><path d="m353 187.3c-.8 0-1.7-.3-2.3-1-1.2-1.3-1.1-3.2.1-4.4 10.7-10.1 17.3-30.9 17.7-36.5 0-1-.3-7.6-1.5-13.5-.5-2.5-1.2-4.5-1.9-6-.8-1.6-.1-3.4 1.4-4.2 1.6-.8 3.4-.1 4.2 1.4.9 1.9 1.7 4.4 2.4 7.4 1.5 6.9 1.7 14.4 1.7 14.7v.3c-.4 7.1-7.6 29.5-19.7 40.9-.5.7-1.3.9-2.1.9z" fill="#3f0f33"/></g></g></g><g><g><g><path d="m149.2 460.4c-16.1 0-29.1-.2-31.3-.7-9.3-2.3-20.4-51.7-16-82 4.6-31.3 37.2-64.9 42.3-70 10.3-36.9 32.5-60.6 48.7-78 5.5-5.9 10.3-11.1 13.4-15.4 11.6-16.8 22.7-53.4 22.8-53.7.5-1.7 2.2-2.6 3.9-2.1s2.6 2.2 2.1 3.9c-.5 1.5-11.5 37.9-23.7 55.5-3.3 4.8-8.2 10-13.9 16.1-15.9 17-37.7 40.3-47.4 76.2-.1.5-.4 1-.8 1.4s-36.5 35.9-41.1 67c-4.5 30.5 6.8 70.8 11.5 75 6 .9 61.5.4 97.8-.1-.4-3.6-2-9.7-8.4-13-5.8-3-17.6-2.3-28.1-1.7-14.2.8-26.5 1.5-30-5.5-.8-1.5-.1-3.4 1.4-4.2 1.6-.8 3.4-.1 4.2 1.4 1.6 3.3 14.6 2.5 24 2 11.8-.7 24.1-1.4 31.4 2.4 12.9 6.7 11.9 21.3 11.8 21.9-.1 1.6-1.5 2.9-3.1 2.9-10 .2-45 .7-71.5.7z" fill="#3f0f33"/></g></g></g><g><g><g><path d="m182.8 438.2c-1 0-2.1-.5-2.7-1.5-.9-1.5-.5-3.4 1-4.3.4-.3 43.8-27.7 43.2-57.9-.3-14.2-10.5-27.2-30.3-38.5-1.5-.9-2-2.8-1.2-4.3.9-1.5 2.8-2 4.3-1.2 21.9 12.5 33.1 27.2 33.4 43.8.7 33.7-44.2 62.1-46.1 63.3-.5.4-1 .6-1.6.6z" fill="#3f0f33"/></g></g></g><g><g><g><path d="m312 458h-47c-1 0-1.9-.4-2.5-1.2s-.8-1.7-.6-2.7c2.5-10.4-6.1-39.2-15.1-62.7-7.7-20.3-16.4-50.5-15.4-68.9.9-16.8-13.4-54.2-13.5-54.6-.6-1.6.2-3.4 1.8-4.1 1.6-.6 3.4.2 4.1 1.8.6 1.6 14.9 39.1 13.9 57.2-1 17.5 7.5 46.7 15 66.3 5.3 14 16.8 46.3 15.9 62.6h38.9c-1.9-4-6-10-14.1-11-1.3-.2-2.3-1.1-2.6-2.3-.1-.2-6-22.5-12.8-52.3-3.5-15.2-2.5-36.5-1.5-57 1-20.1 1.9-39.1-1.8-47.9-.7-1.6.1-3.4 1.7-4.1s3.4.1 4.1 1.7c4.2 10.1 3.3 29.8 2.3 50.6-1 20.1-2 40.9 1.3 55.3 5.6 24.6 10.6 44.1 12.2 50.1 14.9 3.2 18.5 18.6 18.7 19.3.2.9 0 1.9-.6 2.6-.6.9-1.5 1.3-2.4 1.3z" fill="#3f0f33"/></g></g></g><g><g><g><path d="m279.9 381.2c-1.3 0-2.6-.9-3-2.2-.5-1.7.4-3.4 2.1-3.9.3-.1 26.8-9.1 61.8-62.7 35.1-53.8 18.8-139.3 18.6-140.1-.3-1.7.8-3.4 2.5-3.7s3.3.8 3.7 2.5c.7 3.6 17 88.8-19.5 144.8-36.4 55.8-64 64.9-65.2 65.2-.4.1-.7.1-1 .1z" fill="#3f0f33"/></g></g></g><g><g><g><path d="m344.1 458h-32.1c-1.7 0-3.1-1.4-3.1-3.1s1.4-3.1 3.1-3.1h28.4c-2.6-11.9-11.6-14.1-12-14.2-1.2-.3-2.1-1.2-2.4-2.4-.2-1.1-6.1-27.2-6-47.7.1-20.6 11.5-60.4 12-62 .5-1.7 2.2-2.6 3.9-2.1s2.6 2.2 2.1 3.9c-.1.4-11.7 40.6-11.7 60.3 0 16.9 4.2 38.4 5.5 44.6 4.3 1.6 13.9 7 15.4 22.5.1.9-.2 1.8-.8 2.4-.6.5-1.4.9-2.3.9z" fill="#3f0f33"/></g></g></g><g><g><g><path d="m302.9 444.3c-1.3 0-2.4-.8-2.9-2-11.2-29-3.7-75.3-3.4-77.2.3-1.7 1.9-2.9 3.6-2.6s2.9 1.9 2.6 3.6c-.1.5-7.5 46.5 3.1 73.9.6 1.6-.2 3.4-1.8 4.1-.4.1-.8.2-1.2.2z" fill="#3f0f33"/></g></g></g><g><g><g><path d="m265 453.2h-44.3c-1.7 0-3.1-1.4-3.1-3.1s1.4-3.1 3.1-3.1h44.3c1.7 0 3.1 1.4 3.1 3.1s-1.3 3.1-3.1 3.1z" fill="#3f0f33"/></g></g></g><g><g><g><path d="m263.7 438.2c-.6 0-1.2-.2-1.8-.5-.2-.1-12.5-8-38-4-1.7.2-3.3-.9-3.6-2.6s.9-3.3 2.6-3.6c28.4-4.4 42 4.6 42.5 5 1.4 1 1.8 2.9.8 4.4-.5.8-1.5 1.3-2.5 1.3z" fill="#3f0f33"/></g></g></g><g><g><g><path d="m317.7 351.2c-.6 0-1.2-.2-1.8-.6-1.4-1-1.8-2.9-.8-4.4.3-.4 27.6-40.4 22.3-65.3-.4-1.7.7-3.4 2.4-3.7 1.7-.4 3.4.7 3.7 2.4 5.9 27.6-22.1 68.4-23.3 70.2-.5.9-1.5 1.4-2.5 1.4z" fill="#3f0f33"/></g></g></g><g><g><g><path d="m297 136.8c-2.6 0-5.2-.8-7.3-2.5l-8.8-7c-.7-.6-1.2-1.5-1.2-2.5 0-6.9 7.4-12 17.3-12 9.4 0 16.8 5.5 16.8 12.5 0 1-.4 1.9-1.2 2.5l-8.3 6.5c-2.1 1.6-4.7 2.5-7.3 2.5zm-10.7-13.3 7.3 5.8c2 1.6 4.8 1.6 6.9 0l6.8-5.4c-1-2.5-5-4.9-10.3-4.9-5 0-9.5 2-10.7 4.5z" fill="#3f0f33"/></g></g></g><g><g><g><path d="m277.5 152.8c-1.7 0-3.3-.3-4.6-1-7.1-3.6-18.6-13.6-19.1-14-1.3-1.1-1.5-3.1-.3-4.4 1.1-1.3 3.1-1.5 4.4-.3.1.1 11.5 9.9 17.9 13.2 3.2 1.7 12.3-2.6 18.2-6.5v-6.1c0-1.7 1.4-3.1 3.1-3.1s3.1 1.4 3.1 3.1v7.8c0 1-.5 2-1.3 2.6-2.5 1.6-13.2 8.7-21.4 8.7z" fill="#3f0f33"/></g></g></g><g><g><g><path d="m297 176.7c-1.7 0-3.1-1.4-3.1-3.1v-32.2c0-1.2.6-2.2 1.7-2.8 1-.5 2.3-.5 3.2.2 5.8 4 16.1 9.2 19.6 7.4 6.4-3.3 17.7-13.1 17.9-13.2 1.3-1.1 3.3-1 4.4.3s1 3.3-.3 4.4c-.5.4-12 10.4-19.1 14-5.8 3-15.2-1.3-21.1-4.7v26.5c0 1.8-1.4 3.2-3.2 3.2z" fill="#3f0f33"/></g></g></g><g><g><g><path d="m297 200.7c-.1 0-.1 0-.2 0-6.5-.4-11.5-2.7-14.9-6.9-6.3-7.8-5.5-20-4.3-28.6 1.3-9.1-1.4-14-1.4-14.1-.8-1.5-.3-3.4 1.2-4.3 1.5-.8 3.4-.3 4.2 1.1.2.3 3.7 6.6 2.1 18-1 7.4-1.8 17.9 2.9 23.7 2.3 2.8 5.7 4.3 10.4 4.6 1.7.1 3 1.6 2.9 3.3.2 1.9-1.2 3.2-2.9 3.2z" fill="#3f0f33"/></g></g></g><g><g><g><path d="m297 200.7c-1.6 0-3-1.3-3.1-2.9-.1-1.7 1.2-3.2 2.9-3.3 4.7-.3 8.1-1.8 10.5-4.6 4.8-5.9 4-16.3 2.9-23.7-1.6-11.4 2-17.8 2.1-18 .9-1.5 2.8-2 4.3-1.1s2 2.8 1.2 4.3c-.1.1-2.6 5-1.4 14.1 1.2 8.5 2 20.8-4.3 28.6-3.4 4.2-8.4 6.5-14.9 6.9 0-.3-.1-.3-.2-.3z" fill="#3f0f33"/></g></g></g><g><g><g><path d="m280.4 171c-.4 0-.7-.1-1.1-.2-16.3-6.1-19.2-21.3-18.5-28.5.2-1.7 1.7-3 3.4-2.8s3 1.7 2.8 3.4c-.1.7-1.3 16.1 14.5 22 1.6.6 2.4 2.4 1.8 4-.4 1.3-1.6 2.1-2.9 2.1z" fill="#3f0f33"/></g></g></g><g><g><g><path d="m313.6 171c-1.3 0-2.5-.8-2.9-2-.6-1.6.2-3.4 1.8-4 15.9-6 14.5-21.9 14.5-22-.2-1.7 1.1-3.3 2.8-3.4 1.8-.2 3.3 1.1 3.4 2.8.7 7.2-2.2 22.4-18.5 28.5-.3 0-.7.1-1.1.1z" fill="#3f0f33"/></g></g></g><g><g><g><circle cx="276.7" cy="98.2" fill="#3f0f33" r="6.9"/></g></g></g><g><g><g><circle cx="320.5" cy="98.2" fill="#3f0f33" r="6.9"/></g></g></g></g></g></svg>