<svg id="Capa_1" enable-background="new 0 0 512 512" height="512" viewBox="0 0 512 512" width="512" xmlns="http://www.w3.org/2000/svg"><g><path d="m512 469.66c0 11.693-4.739 22.273-12.403 29.937-7.665 7.664-18.245 12.403-29.937 12.403h-149.233c-19.553 0-38.941-3.688-57.123-10.868l-54.826-21.634c-24.117-9.519-51.293-4.378-70.938 12.537-14.67 12.62-33.78 19.965-54.003 19.965-17.4 0-33.965-5.439-47.584-14.989s-24.302-23.21-29.968-39.662c-3.883-11.27-5.985-23.365-5.985-35.953 0-26.115 8.86-49.438 20.48-68.796 32.173-53.59 44.947-116.586 34.666-178.242l-25.961-155.588c-1.638-9.828 5.934-18.77 15.896-18.77h189.934c8.911 0 16.122 7.222 16.122 16.133l-.206 228.092c-.01 15.36 6.727 29.958 18.44 39.899l141.537 120.284c13.331 11.322 29.628 18.584 46.956 20.933l8.855 10.966c16.73 2.256 30.033 14.131 43.417 20.908 1.215 3.946 1.864 8.128 1.864 12.445z" fill="#b87d72"/><path d="m510.135 457.215h-36.551c-8.684 0-15.721-7.036-15.721-15.721v-16.153l17.462 2.359c16.731 2.256 30.072 14.093 34.81 29.515z" fill="#faf7f7"/><path d="m484.443 457.215h-10.858c-8.684 0-15.721-7.036-15.721-15.72v-16.153l10.858 1.463v14.69c0 8.684 7.036 15.72 15.721 15.72z" fill="#f3eae6"/><g fill="#ab695d"><path d="m95.292 497.011c5.532 3.873 11.559 7.077 17.915 9.509-9.303 3.564-19.337 5.48-29.67 5.48-17.4 0-33.965-5.439-47.584-14.989s-24.302-23.21-29.968-39.662c-3.883-11.27-5.985-23.365-5.985-35.953 0-26.115 8.86-49.438 20.48-68.796 32.173-53.59 44.947-116.586 34.666-178.242l-25.961-155.588c-1.638-9.828 5.934-18.77 15.896-18.77h59.338c-9.962 0-17.534 8.942-15.896 18.77l25.961 155.588c10.281 61.656-2.493 124.652-34.666 178.242-11.62 19.357-20.48 42.68-20.48 68.796 0 12.589 2.102 24.683 5.985 35.953 5.667 16.452 16.35 30.112 29.969 39.662z"/><path d="m152.62 368.787c-30.106 0-54.599-24.493-54.599-54.598 0-30.106 24.493-54.598 54.599-54.598 4.267 0 7.726 3.459 7.726 7.726s-3.459 7.726-7.726 7.726c-21.585 0-39.146 17.561-39.146 39.146s17.561 39.145 39.146 39.145c4.267 0 7.726 3.459 7.726 7.726 0 4.268-3.459 7.727-7.726 7.727z"/></g></g></svg>