<svg height="480pt" viewBox="0 -32 480 480" width="480pt" xmlns="http://www.w3.org/2000/svg"><path d="m216 64.035156h48c97.203125 0 176 78.796875 176 176h-400c0-97.203125 78.796875-176 176-176zm0 0" fill="#eb8cb3"/><path d="m307.199219 64.035156c0 6.039063-22.808594 8.398438-24.574219 13.855469-1.839844 5.648437 15.160156 20.953125 11.734375 25.65625-3.421875 4.703125-23.28125-6.710937-28-3.257813-4.71875 3.457032.089844 25.832032-5.597656 27.671876-5.449219 1.769531-14.730469-19.125-20.800781-19.125-6.074219 0-15.320313 20.894531-20.800782 19.125-5.648437-1.839844-.855468-24.253907-5.601562-27.671876-4.742188-3.414062-24.582032 8-28 3.25-3.414063-4.753906 13.601562-20 11.746094-25.65625-1.695313-5.449218-24.503907-7.808593-24.503907-13.847656 0-6.039062 22.808594-8.402344 24.574219-13.855468 1.839844-5.648438-15.160156-20.953126-11.734375-25.65625 3.421875-4.707032 23.28125 6.710937 28 3.253906 4.71875-3.457032-.089844-25.832032 5.597656-27.671875 5.441407-1.765625 14.722657 19.128906 20.761719 19.128906s15.320312-20.894531 20.800781-19.128906c5.648438 1.839843.855469 24.257812 5.597657 27.671875 4.746093 3.417968 24.585937-8 28.042968-3.246094 3.453125 4.75-13.601562 20-11.746094 25.65625 1.695313 5.445312 24.503907 7.808594 24.503907 13.847656zm0 0" fill="#dd3e46"/><path d="m40 240.035156h400v72h-400zm0 0" fill="#dd3e46"/><g fill="#eb8cb3"><path d="m232 264.035156h16v24h-16zm0 0"/><path d="m200 264.035156h16v24h-16zm0 0"/><path d="m168 264.035156h16v24h-16zm0 0"/><path d="m136 264.035156h16v24h-16zm0 0"/><path d="m104 264.035156h16v24h-16zm0 0"/><path d="m72 264.035156h16v24h-16zm0 0"/><path d="m392 264.035156h16v24h-16zm0 0"/><path d="m360 264.035156h16v24h-16zm0 0"/><path d="m328 264.035156h16v24h-16zm0 0"/><path d="m296 264.035156h16v24h-16zm0 0"/><path d="m264 264.035156h16v24h-16zm0 0"/></g><path d="m80 216.035156c-2.273438 0-4.441406-.964844-5.960938-2.65625-1.515624-1.691406-2.246093-3.949218-2-6.207031 7.648438-70.34375 81.183594-108.664063 84.3125-110.265625 3.9375-2.011719 8.761719-.453125 10.773438 3.484375s.453125 8.757813-3.484375 10.773437c-.6875.351563-68.984375 36.0625-75.695313 97.734376-.441406 4.054687-3.863281 7.132812-7.945312 7.136718zm0 0" fill="#fff"/><path d="m424 304.035156h-368c-30.929688 0-56 25.070313-56 56 0 30.925782 25.070312 56 56 56h368c30.929688 0 56-25.074218 56-56 0-30.929687-25.070312-56-56-56zm0 0" fill="#eb8cb3"/></svg>