<svg id="Capa_1" enable-background="new 0 0 512 512" height="512" viewBox="0 0 512 512" width="512" xmlns="http://www.w3.org/2000/svg"><g><g><g><path d="m168.742 273.979 11.662 154.14c.073 1.537-.535 3.028-1.677 4.06-3.735 3.381-12.158 12.283-14.214 25.348-.487 3.099 1.985 5.879 5.122 5.879h24.021c1.745 0 3.372-.88 4.327-2.341l11.095-16.969c.541-.827.834-1.793.843-2.782l1.269-167.336h-42.448z" fill="#945c33"/></g><g><path d="m380.694 365.288c-.159-1.427.282-2.856 1.218-3.945l63.239-73.423-48.541-49.899-48.098 30.348s11.585 22.585 29.189 35.706c2.4 1.789 2.837 5.204.913 7.496l-32.672 38.917c-.984 1.172-1.398 2.718-1.132 4.225l3.446 19.489c.16.906.08 1.834-.243 2.696-1.843 4.916-7.655 23.3 2.481 37.074 1.768 2.403 5.254 2.711 7.503.752l23.672-20.63c1.279-1.114 1.93-2.786 1.741-4.472z" fill="#945c33"/></g><g><path d="m503.018 151.474c-24.783-44.102-75.025-23.483-75.025-23.483l46.568 90.547c1.466 23.186 12.869 36.432 20.294 42.679 2.928 2.463 7.412 1.036 8.353-2.672 5.05-19.891 17.064-76.367-.19-107.071z" fill="#633d22"/></g><g><path d="m486.281 283.106c-9.813-10.291-14.822-24.241-13.787-38.423 1.316-18.038 2.815-42.426 2.335-54.445-.817-20.428-11.399-50.224-43.678-65.819-25.151-12.15-52.854-9.789-82.637-1.886l-51.621 34.056-60.342-31.178c-7.279-2.582-13.452-5.291-18.021-7.624-18.856-9.628-36.498-27.237-57.198-44.124s-90.342-16.653-90.342-16.653-17.295 2.104-23.415 6.118c-2.378 1.56-4.668 3.254-6.849 5.096l.001-.001c-13.334-11.042-28.578-11.155-36.141-10.334-2.762.3-4.818 2.734-4.565 5.501 2.251 24.566 21.722 32.936 21.722 32.936l.022-.032c-9.777 31.058.366 46.607 4.905 72.832 1.175 6.788 2.431 15.769 3.576 24.651v-.001l52.337 5.269 6.045-42.027c.29-2.015 2.538-3.093 4.292-2.061 29.311 17.24 19.928 55.144 19.928 71.641 0 11.253 1.933 20.398 3.263 25.36.642 2.394-.501 4.899-2.73 5.985l-41.373 20.147c-1.067.52-1.923 1.391-2.424 2.467l-24.97 53.652c-2.922 6.279-3.853 13.302-2.666 20.125l4.546 26.138c.111.64.093 1.298-.037 1.934-2.087 10.182-1.324 18.719-.216 24.334.713 3.618 4.839 5.377 7.92 3.352l24.781-16.287c1.693-1.112 2.58-3.111 2.27-5.113l-6.303-40.683c-.175-1.132.03-2.289.583-3.291l21.983-39.807c.634-1.147 1.68-2.012 2.927-2.418l75.131-23.633c7.754-2.439 16.014-2.751 23.927-.891 21.602 5.077 66.371 13.073 106.635 4.191 43.351-9.563 71.78-28.824 82.183-36.83 2.387-1.836 5.805-1.228 7.47 1.281 17.308 26.076 54.472 56.322 71.944 69.794 5.953 4.59 9.459 11.666 9.485 19.184l.3 85.557c.007 1.566-.705 3.05-1.92 4.038-11.855 9.63-15.24 19.554-16.112 25.641-.447 3.123 1.962 5.918 5.116 5.918h32.232c2.032 0 3.875-1.19 4.712-3.041l6.769-14.974c.3-.664.456-1.383.459-2.111l.381-119.755c.02-6.275-2.387-12.316-6.718-16.857z" fill="#c57a44"/></g><g><path d="m389.547 244.362c-11.824-12.809-30.813-15.915-46.117-7.57-15.318 8.353-35.903 17.389-60 22.705-40.264 8.882-85.033.885-106.635-4.192-7.913-1.86-16.173-1.548-23.927.891l-52.746 23.153c-9.847 4.323-18.017 11.737-23.272 21.119l-10.533 18.806c-4.486 8.009-6.655 17.109-6.263 26.281l.727 17.006c.303 7.084-4.617 13.326-11.576 14.686l-3.162.618.453 2.606c.111.64.093 1.299-.037 1.935-2.087 10.181-1.324 18.718-.216 24.333.713 3.618 4.839 5.377 7.92 3.352l24.781-16.287c1.693-1.113 2.58-3.111 2.27-5.113l-6.303-40.683c-.175-1.132.03-2.289.583-3.291l21.983-39.807c.634-1.147 1.68-2.012 2.927-2.418l75.131-23.633c7.754-2.439 16.015-2.751 23.928-.891 21.602 5.078 66.371 13.073 106.634 4.191 43.351-9.563 71.78-28.824 82.183-36.83.455-.35.953-.584 1.463-.76-.066-.066-.131-.136-.196-.207z" fill="#aa693b"/></g><g><path d="m502.398 300.007-16.117-16.901c-.619-.649-3.422-4.075-4.003-4.752 2.46 3.886 4.186 11.18 4.171 15.844l-.381 119.755c-.003.728-.159 1.448-.459 2.111l-6.769 14.974c-.837 1.851-2.681 3.041-4.712 3.041h-7.309c-4.965 6.506-6.771 12.543-7.374 16.748-.447 3.123 1.962 5.918 5.116 5.918h32.233c2.032 0 3.875-1.19 4.712-3.041l6.769-14.974c.3-.664.456-1.383.459-2.111l.381-119.755c.021-6.275-2.386-12.316-6.717-16.857z" fill="#aa693b"/></g><g><path d="m30.246 193.776v.001c.465 3.605.912 7.194 1.327 10.613 1.475 12.145 11.223 21.88 23.433 22.669 13.302.86 24.792-8.644 26.653-21.585l.925-6.429c-24.025-24.297-52.338-5.269-52.338-5.269z" fill="#945c33"/></g><g><path d="m267.256 207.456h50.551c16.958 0 30.706-13.748 30.706-30.707v-54.217c-8.354 2.216-16.872 4.869-25.543 7.759-29.993 9.997-63.659 3.192-86.42-4.88v51.338c-.001 16.959 13.747 30.707 30.706 30.707z" fill="#fed2a4"/></g><g><path d="m322.97 130.292c-1.776.592-3.566 1.121-5.365 1.598v13.951c0 16.959-13.748 30.707-30.706 30.707h-50.349v.202c0 16.959 13.748 30.707 30.706 30.707h50.551c16.958 0 30.706-13.748 30.706-30.707v-54.217c-8.354 2.216-16.872 4.868-25.543 7.759z" fill="#ffbd86"/></g><g><path d="m124.764 97.762c29.864 48.803 21.484 82.886 64.037 102.904 2.797 1.316 6.133-.119 7.097-3.056 5.653-17.217 19.01-72.92-26.198-116.966-2.741-2.326-5.524-4.66-8.369-6.98-20.7-16.887-55.983-33.649-93.984-20.143-6.947 2.469-13.645 5.609-19.765 9.622 1.007-.079 46.694-15.203 77.182 34.619z" fill="#633d22"/></g></g><circle cx="52.897" cy="140.126" fill="#4a4545" r="7.726"/></g></svg>