<svg id="Capa_1" enable-background="new 0 0 512 512" height="512" viewBox="0 0 512 512" width="512" xmlns="http://www.w3.org/2000/svg"><g><g><g><g><path d="m483.337 220.101-41.699-147.365c-5.36-18.941-20.033-33.825-38.364-41.31l-65.997-19.348c-14.939 20.782-42.956 50.41-81.277 50.41-46.539 0-77.882-43.7-89.056-62.18-5.46-.677-11.026-.249-16.349 1.339l-71.469 21.333c-18.863 5.63-33.536 20.514-38.896 39.455l-38.955 137.667c-3.929 13.885 3.738 28.409 17.42 32.997l54.48 18.27 2.736-1.254 11.326 3.659 1.39 2.777v226.52c0 15.977 12.952 28.928 28.928 28.928h265.138c3.836 0 7.279-2.543 8.217-6.263.568-2.253.871-4.611.871-7.042v-218.67l31.591-23.475 56.475-18.939c3.564-4.877 5.061-11.958 3.49-17.509z" fill="#fa8084"/><g fill="#f8636f"><path d="m410.226 185.922c-13.685 4.589-22.908 17.41-22.908 31.844v277.495c0 6.24-1.982 12.013-5.342 16.738h12.468c15.977 0 28.928-12.952 28.928-28.928v-296.113c0-2.677-2.625-4.565-5.162-3.714z"/><path d="m510.725 200.102-38.955-137.667c-5.36-18.941-20.033-33.825-38.895-39.455l-71.47-21.331c-5.323-1.589-10.889-2.016-16.349-1.339-2.402 3.972-5.735 9.108-9.951 14.726 1.525 1.511 2.526 2.469 2.526 2.469l59.189 17.665c18.862 5.63 33.535 20.514 38.895 39.455l41.699 147.365c2.234 7.896-1.691 16.127-9.004 19.458l24.895-8.348c13.682-4.589 21.349-19.113 17.42-32.998z"/><path d="m80.902 173.787c-4.267 0-7.726 3.459-7.726 7.726v69.856l15.452 5.182v-75.038c0-4.267-3.459-7.726-7.726-7.726z"/></g></g></g></g><path d="m348.613.026c-3.63.123-7.247.716-10.747 1.828l-4.822 1.531c-50.129 15.92-103.959 15.92-154.088 0l-4.822-1.531c-3.5-1.112-7.117-1.705-10.747-1.828 6.025 11.206 39.378 68.386 92.613 68.386s86.588-57.179 92.613-68.386z" fill="#f84954"/></g></svg>