<svg id="Layer_1" height="512" viewBox="0 0 512 512" width="512" xmlns="http://www.w3.org/2000/svg" data-name="Layer 1"><path d="m443.69 108h-82.44c.08 52 41.63 91.33 93.32 91.33l2.65-.385z" fill="#7492e8"/><path d="m73 54h371v54h-371z" fill="#49bdff"/><path d="m73.18 108-15.54 90.85 2.79.485c51.69 0 93.24-39.335 93.32-91.335z" fill="#7492e8"/><path d="m457.22 198.93-2.65.4c-51.69 0-93.24-39.33-93.32-91.33h-207.5c-.08 52-41.63 91.33-93.32 91.33l-2.79-.485-28.46 166.437 187.57 44.384 37.53-91.666h.92l38 93.465.04.173 190.31-35.7z" fill="#98aee5"/><g fill="#7492e8"><path d="m494.88 373.8-212.5 39.86 17.47 44.05 200.88-37.07z"/><path d="m18.29 362.7-7.02 46.84 198.35 47.25 17.82-44.63z"/><path d="m274.15 107.98v138.03a35.132 35.132 0 0 1 -35.13-35.13v-102.9z"/></g><path d="m354 54h20v54h-20z" fill="#3090fc"/><path d="m143 54h20v54h-20z" fill="#3090fc"/><path d="m103 54h-30v54h.18 29.82z" fill="#8ddcff"/><path d="m88.237 195.355 14.943-87.355h-30l-15.539 90.845 2.789.485a98.067 98.067 0 0 0 27.807-3.975z" fill="#aec5ff"/><path d="m60.43 199.33-2.789-.485-28.46 166.431 24.575 6.424 33.884-172.855.6-3.49a98.067 98.067 0 0 1 -27.81 3.975z" fill="#c5d8ff"/><path d="m18.29 362.7-7.02 46.84 28.816 6.864 7.177-46.852z" fill="#aec5ff"/><path d="m70.741 239.176a6 6 0 0 0 -6.925 4.9l-10.16 59.43a6 6 0 1 0 11.828 2.022l10.161-59.428a6 6 0 0 0 -4.904-6.924z" fill="#284268"/><path d="m75.225 213.006a6 6 0 0 0 -6.929 4.9l-1.46 8.511a6 6 0 1 0 11.828 2.029l1.46-8.51a6 6 0 0 0 -4.899-6.93z" fill="#284268"/><path d="m500.834 373.056a6 6 0 0 0 -7.063-5.153l-5.042 1.01-38.729-261.376v-53.247a6.525 6.525 0 0 0 -6.31-6.29h-370.51a6.41 6.41 0 0 0 -6.18 6.29v53.181l-42.745 250.475-4.582-1.084a6 6 0 0 0 -7.317 4.949l-7.02 46.84a6 6 0 0 0 4.543 6.726l198.35 47.25a6 6 0 0 0 6.963-3.612l17.821-44.63a6 6 0 0 0 -4.191-8.064l-3.861-.913 29.762-72.715 30.3 74.552-3.75.657a5.889 5.889 0 0 0 -4.469 8l17.469 44.032a5.973 5.973 0 0 0 6.666 3.676l200.881-37.072a6 6 0 0 0 4.866-6.645zm-50.534-179.818c-44.794-2.018-79.786-35.238-82.813-79.238h71.03zm-70.3-133.238h58v42h-58zm-20 0h8v42h-8zm-191 0h179v42h-179zm99 54v125.4a30.9 30.9 0 0 1 -14.536-7.92 28.849 28.849 0 0 1 -8.464-20.6v-96.88zm-119-54h8v42h-8zm-70 0h58v42h-58zm-.76 54h69.273c-3.031 44-38.025 77.223-82.822 79.238zm182.519 201.706a5.968 5.968 0 0 0 -5.559-3.706h-.92a5.967 5.967 0 0 0 -5.552 3.693l-35.582 86.921-130.188-30.784a6 6 0 0 0 -2.758 11.678l139.088 32.892-13.318 33.352-187.95-44.772 5.237-34.937 37.353 8.834a6 6 0 1 0 2.762-11.677l-27.347-6.47 26.59-155.43c52.514-1.067 93.845-40.3 96.942-91.3h73.443v96.88a41.15 41.15 0 0 0 41.07 41.13 5.941 5.941 0 0 0 5.93-6v-132.01h75.443c3.087 51 44.27 90.1 96.657 91.3l24.685 165.937-179.7 33.83zm42.85 135.209-12.968-32.7 199.076-37.338 4.358 34.892z" fill="#284268"/></svg>