<svg id="Icons" height="512" viewBox="0 0 60 60" width="512" xmlns="http://www.w3.org/2000/svg"><path d="m45.57 15.55c3.38 2.09 5.43 5.41 5.43 10.429 0 17.509-10.79 27.489-16.9 31.739a7.2 7.2 0 0 1 -8.2 0c-6.11-4.25-16.9-14.23-16.9-31.739 0-5.019 2.05-8.339 5.43-10.429l1.57-1.55h28z" fill="#f45151"/><g fill="#ce3e3e"><path d="m19 30c0 2-.895 3-2 3s-2-1-2-3a2 2 0 0 1 4 0z"/><path d="m45 30c0 2-.9 3-2 3s-2-1-2-3a2 2 0 0 1 4 0z"/><path d="m40 41c0 2-.9 3-2 3s-2-1-2-3a2 2 0 0 1 4 0z"/><path d="m24 41c0 2-.895 3-2 3s-2-1-2-3a2 2 0 0 1 4 0z"/><path d="m32 32c0 2-.895 3-2 3s-2-1-2-3a2 2 0 0 1 4 0z"/><path d="m32 48c0 2-.895 3-2 3s-2-1-2-3a2 2 0 0 1 4 0z"/></g><path d="m44.63 16.211c-2.31.12-5.73.04-7.61-1.19a12.746 12.746 0 0 1 2.38 4.07 1.094 1.094 0 0 1 -1.33 1.439c-1.84-.549-4.41-1.639-5.06-3.5a8.631 8.631 0 0 1 -2.25 7.329 1.113 1.113 0 0 1 -1.52 0 8.631 8.631 0 0 1 -2.25-7.329c-.65 1.86-3.22 2.95-5.06 3.5a1.094 1.094 0 0 1 -1.33-1.439 12.746 12.746 0 0 1 2.38-4.07c-1.88 1.23-5.3 1.31-7.61 1.19a1.093 1.093 0 0 1 -.65-1.92c4.76-4.049 10.93-4.379 13.3-4.329.23-4.74 1.99-7.41 3.04-8.609a1.084 1.084 0 0 1 1.52-.08l1.61 1.449a.945.945 0 0 1 .06 1.38 9.411 9.411 0 0 0 -2.21 5.86c2.41-.04 8.52.31 13.24 4.329a1.093 1.093 0 0 1 -.65 1.92z" fill="#9cc824"/></svg>