<svg id="Layer_1" height="512" viewBox="0 0 512 512" width="512" xmlns="http://www.w3.org/2000/svg" data-name="Layer 1"><path d="m509.544 453.336-119.063-206.223-119.063-206.224a17.811 17.811 0 0 0 -6.481-6.616l.008-.015a18.909 18.909 0 0 0 -17.526-.2l-.356.218a17.811 17.811 0 0 0 -6.481 6.616l-119.063 206.221-119.063 206.223-.014-.009a17.367 17.367 0 0 0 .014 17.784 17.811 17.811 0 0 0 6.481 6.616l-.008.015a17.812 17.812 0 0 0 8.945 2.258h476.252a17.938 17.938 0 0 0 8.581-2.053l.356-.218a17.719 17.719 0 0 0 6.481-24.391z" fill="#5eac24" fill-rule="evenodd"/></svg>